<svg xmlns="http://www.w3.org/2000/svg" width="4410" height="5055" viewBox="0 0 294 337">
  <metadata><?xpacket begin="﻿" id="W5M0MpCehiHzreSzNTczkc9d"?>
<x:xmpmeta xmlns:x="adobe:ns:meta/" x:xmptk="Adobe XMP Core 7.1-c000 79.7a7a236, 2021/08/12-00:25:20        ">
   <rdf:RDF xmlns:rdf="http://www.w3.org/1999/02/22-rdf-syntax-ns#">
      <rdf:Description rdf:about=""
            xmlns:xmp="http://ns.adobe.com/xap/1.0/">
         <xmp:CreatorTool>Adobe Photoshop 22.5 (Windows)</xmp:CreatorTool>
      </rdf:Description>
   </rdf:RDF>
</x:xmpmeta>
                                                                                                    
                                                                                                    
                                                                                                    
                                                                                                    
                                                                                                    
                                                                                                    
                                                                                                    
                                                                                                    
                                                                                                    
                                                                                                    
                                                                                                    
                                                                                                    
                                                                                                    
                                                                                                    
                                                                                                    
                                                                                                    
                                                                                                    
                                                                                                    
                                                                                                    
                                                                                                    
                           
<?xpacket end="w"?></metadata>
<defs>
    <style>
      .cls-1 {
        fill: #f7f7f7;
        stroke: #34a266;
        stroke-width: 2.51px;
      }

      .cls-1, .cls-2, .cls-4, .cls-5, .cls-6, .cls-7 {
        fill-rule: evenodd;
      }

      .cls-2, .cls-3 {
        fill: #379e65;
      }

      .cls-4 {
        fill: #201e1e;
      }

      .cls-5 {
        fill: #db353a;
      }

      .cls-6 {
        fill: #359d63;
      }

      .cls-7 {
        fill: #cfc87b;
        stroke: #7c6d00;
        stroke-width: 1.22px;
      }
    </style>
  </defs>
  <path class="cls-1" d="M147,63.617A118.05,118.05,0,1,1,28.949,181.668,118.051,118.051,0,0,1,147,63.617Z"/>
  <path class="cls-2" d="M181.536,227.531l-5.451,4.543v0.908h0.909v16.353H150.648s-6.976-10.855-11.81-10.9-7.268,5.451-7.268,5.451l3.634,2.725s0.346-3.986,3.634-3.634,5.293,4.2,5.451,6.36H123.394v-4.543l-5.451,4.543a1.258,1.258,0,0,1,.908.908c0.024,0.641,0,5.451,0,5.451s0.335,2.762-4.542,2.726c0,0,.448,2.794,4.542,2.725a7.223,7.223,0,0,0,5.451-6.359H149.74s2.538,3.489,3.634,3.634c1.474,0.041,6.359,0,6.359,0l-0.909-3.634h22.712V227.531Z"/>
  <path class="cls-2" d="M190.621,248.426V232.982h1.817s-5.989-5.006-6.359-5.451v27.255h9.993l-2.726-6.36h-2.725Z"/>
  <path class="cls-2" d="M116.126,254.786l-2.725-6.36h-2.726V233.891l1.817-1.817-6.359-4.543v27.255h9.993Z"/>
  <path class="cls-2" d="M103.407,254.786v-10.9l-4.542,5.451H85.238v-4.543l-5.451,4.543v9.085H76.153a5.017,5.017,0,0,0,4.542,2.725s5.418,0.039,5.451-6.359h17.261Z"/>
  <path class="cls-2" d="M95.231,245.7s-2.643-1.866-2.725-3.634,2.389-3.842,3.634-4.542l-5.451.908s-1.778.6-1.817,1.817,0,4.542,0,4.542l-1.817.909h8.176Z"/>
  <circle class="cls-3" cx="141.109" cy="258.875" r="2.266"/>
  <path id="Ellipse_2_copy" data-name="Ellipse 2 copy" class="cls-2" d="M120.214,238.433a2.271,2.271,0,1,1-2.271,2.271A2.271,2.271,0,0,1,120.214,238.433Z"/>
  <path class="cls-4" d="M100.682,221.172L115.218,213l18.169,3.634S117.575,224.649,100.682,221.172Z"/>
  <path class="cls-4" d="M148.831,201.186s7.2-10.656,6.359-27.255l-8.176,9.994Z"/>
  <path class="cls-4" d="M144.289,150.311l-14.536-1.817-9.085-12.718S136.268,139.3,144.289,150.311Z"/>
  <path class="cls-4" d="M96.14,137.592L89.78,153.037l-18.169,8.176S78.631,143.593,96.14,137.592Z"/>
  <path class="cls-4" d="M79.787,207.545L80.7,192.1,67.977,177.565S67.566,196.724,79.787,207.545Z"/>
  <path class="cls-4" d="M123.394,165.755l-24.529.909-4.542,20.9,20.9,9.993L131.57,181.2Z"/>
  <path class="cls-5" d="M172.451,166.664l-1.816-10.9,8.176,8.176,9.993-5.451-5.451,9.994,7.268,7.267-10.9-.908-3.634,9.993-2.725-11.81-9.993-.909Z"/>
  <path class="cls-5" d="M203.34,153.037s-0.563,40.837-46.333,45.423c0,0-7.5,14.564-13.627,18.17C143.38,216.63,201.934,224.039,203.34,153.037Z"/>
  <path class="cls-5" d="M117.035,129.416s7.1-28.056,37.247-30.888c0,0-31.425-8.64-51.783,30.888h14.536Z"/>
  <path class="cls-6" d="M67.977,109.43v-6.36h52.691a17.228,17.228,0,0,0-8.176,6.36H67.977Z"/>
  <path class="cls-6" d="M67.977,113.064h40.881s-3.666,3.772-4.542,6.359H67.977v-6.359Z"/>
  <path class="cls-6" d="M67.977,128.508v-6.36H102.5s-3.586,3.462-3.634,6.36H67.977Z"/>
  <path class="cls-6" d="M137.021,108.482c-1.846,1.594-3.7,3.206-5.451,4.542a126.524,126.524,0,0,1,11.34,6.751c5.338,3.5,10.043,5.523,14.918,6.209a83.7,83.7,0,0,0,10.99.666v-6.359c0.077-.215-11.061,2.038-19.466-2.561A104.923,104.923,0,0,1,137.021,108.482Z"/>
  <path id="Shape_18_copy" data-name="Shape 18 copy" class="cls-6" d="M130.365,114.645c-1.9,2.243-3.786,4.491-5.773,6.61a105.911,105.911,0,0,1,13.671,5.758c6.416,3.409,11.629,7.286,17.372,8.507a69.44,69.44,0,0,0,13.182,1.1v-7.691c0.021,0.028-12.968,1.111-22.964-4.249C136.055,119.589,130.51,114.842,130.365,114.645Z"/>
  <path class="cls-6" d="M167.949,139.369v7.268c0.015,0-9.28.994-17.223-3.631-8-4.63-17.478-14.119-29.657-12.525,0.2,0.018,1.893-5.977,2.626-7.359a36.051,36.051,0,0,1,12.549,4.527c6.359,3.793,13.563,9.85,21.761,10.816A94.1,94.1,0,0,0,167.949,139.369Z"/>
  <path class="cls-6" d="M171.543,126.691v-7.268h23.62l-6.359,7.268H171.543Z"/>
  <path class="cls-6" d="M191.529,126.691l6.36-7.268h1.817v7.268h-8.177Z"/>
  <path class="cls-6" d="M202.431,119.423h23.62l-6.359,7.268H202.431v-7.268Z"/>
  <path class="cls-6" d="M171.543,145.769V129.416h14.536l-5.451,6.36h-3.634v4.542Z"/>
  <path class="cls-6" d="M174.268,145.769L188.8,129.416h10.9v16.353h-6.36v-9.993h-2.725l-9.085,9.993h-7.268Z"/>
  <path class="cls-6" d="M202.431,145.769V129.416h14.536l-5.451,6.36h-3.634v4.542Z"/>
  <path id="Polygon_1" data-name="Polygon 1" class="cls-7" d="M119.052,6.791a1,1,0,0,1,1.885,0l6.133,17.35,18.4,0.47a1,1,0,0,1,.582,1.793L131.442,37.6l5.237,17.641a1,1,0,0,1-1.525,1.108L120,45.915l-15.16,10.432a1,1,0,0,1-1.525-1.108L108.547,37.6,93.941,26.4a1,1,0,0,1,.583-1.793l18.4-.47Z"/>
  <path id="Polygon_1_copy" data-name="Polygon 1 copy" class="cls-7" d="M181.052,6.791a1,1,0,0,1,1.885,0l6.133,17.35,18.4,0.47a1,1,0,0,1,.582,1.793L193.442,37.6l5.237,17.641a1,1,0,0,1-1.525,1.108L182,45.915l-15.16,10.432a1,1,0,0,1-1.525-1.108L170.547,37.6,155.941,26.4a1,1,0,0,1,.583-1.793l18.4-.47Z"/>
</svg>
