<?xml version="1.0" encoding="utf-8"?>
<!-- Generator: Adobe Illustrator 13.0.0, SVG Export Plug-In . SVG Version: 6.00 Build 14948)  -->
<!DOCTYPE svg PUBLIC "-//W3C//DTD SVG 1.0//EN" "http://www.w3.org/TR/2001/REC-SVG-20010904/DTD/svg10.dtd">
<svg version="1.0" id="Ebene_1" xmlns="http://www.w3.org/2000/svg" xmlns:xlink="http://www.w3.org/1999/xlink" x="0px" y="0px"
	 width="283.465px" height="264.844px" viewBox="0 0 283.465 264.844" enable-background="new 0 0 283.465 264.844"
	 xml:space="preserve">
<path fill-rule="evenodd" clip-rule="evenodd" fill="#00ABDA" d="M141.612,18.652c67.973,0,123.096,55.123,123.096,123.096
	s-55.123,123.096-123.096,123.096S18.516,209.721,18.516,141.748S73.639,18.652,141.612,18.652L141.612,18.652z M181.104,254.321
	l1.382-1.926l4.37-6.709l4.058-6.881l3.746-7.039l3.434-7.186l3.125-7.313l2.816-7.434l2.057-6.176l6.231-2.161l7.151-2.812
	l7.006-3.098l6.844-3.381l6.672-3.667l6.482-3.947l6.284-4.228l2.29-1.702C243.565,213.973,216.051,242.055,181.104,254.321
	L181.104,254.321z M207.454,199.146l1.293-4.477l1.898-7.705l1.24-6.035c8.757-3.439,16.879-7.73,24.165-12.036
	c11.462-6.773,20.097-14.19,24.503-18.171c-0.561,7.495-1.814,14.797-3.695,21.84l-6.305,4.684l-6.136,4.133l-6.336,3.858
	l-6.524,3.585l-6.697,3.309l-6.858,3.032l-7.005,2.755L207.454,199.146L207.454,199.146z M212.759,176.077l0.779-4.703l0.993-7.861
	l0.694-7.883l0.396-7.896l0.1-7.893l-0.199-7.882l-0.49-7.851l-0.787-7.811l-1.076-7.755l-0.586-3.287
	c16.716,6.795,32.609,17.219,48.148,30.376c0.104,2.027,0.158,4.065,0.158,6.116c0,1.247-0.021,2.486-0.059,3.725
	c-9.059,7.786-18.393,14.88-28.253,20.647C226.077,169.923,219.565,173.193,212.759,176.077L212.759,176.077z M211.724,100.51
	l-1.584-7.264l-1.949-7.516l-1.154-3.82l3.59,1.245l7.005,2.754l6.858,3.032l6.697,3.309l6.524,3.585l6.335,3.858l6.137,4.132
	l5.918,4.398c2.063,7.052,3.493,14.369,4.224,21.896C245.251,117.405,229.039,107.393,211.724,100.51L211.724,100.51z
	 M205.624,77.38l-2.199-6.342l-2.811-7.151l-3.098-7.006l-3.381-6.844l-3.667-6.671l-3.947-6.483l-4.228-6.284l-1.018-1.369
	c33.914,11.962,60.805,38.828,72.802,72.729l-1.688-1.254l-6.284-4.228l-6.482-3.947l-6.672-3.667l-6.844-3.381l-7.006-3.098
	l-7.151-2.812L205.624,77.38L205.624,77.38z M175.021,27.219l4.151,5.588l4.133,6.136l3.858,6.335l1.729,3.149l-6.756-1.474
	l-7.691-1.371l-7.754-1.077l-7.811-0.787l-7.852-0.491l-7.882-0.199l-7.893,0.101l-7.896,0.395l-7.883,0.695l-7.861,0.994
	l-7.82,1.295l-7.563,1.554l1.53-2.785l3.859-6.335l4.132-6.136l4.602-6.193c9.963-2.699,20.439-4.143,31.256-4.143
	C153.211,22.471,164.42,24.129,175.021,27.219L175.021,27.219z M191.324,52.968l2.733,5.532l3.032,6.858l2.754,7.005l1.249,3.604
	l-3.834-1.159l-7.516-1.949l-7.605-1.659l-7.691-1.37l-7.754-1.077l-7.811-0.786l-7.852-0.491l-7.882-0.198l-7.893,0.1l-7.896,0.395
	l-7.883,0.695l-7.861,0.994l-7.82,1.295l-7.771,1.596l-7.706,1.9l-4.325,1.249l1.088-3.138l2.754-7.005l3.033-6.858l2.92-5.91
	l3.078-0.759l7.625-1.565l7.675-1.272l7.716-0.975l7.74-0.682l7.753-0.39l7.75-0.099l7.736,0.195l7.707,0.483l7.668,0.771
	l7.611,1.058l7.546,1.344l7.463,1.628L191.324,52.968L191.324,52.968z M202.593,80.41l1.92,6.354l1.911,7.369l1.628,7.463
	l1.345,7.545l1.058,7.612l0.771,7.667l0.482,7.708l0.195,7.738l-0.099,7.748l-0.39,7.754l-0.682,7.74l-0.975,7.716l-1.271,7.675
	l-1.566,7.625l-1.863,7.561l-2.008,6.953l-6.453,1.949l-7.367,1.911l-7.464,1.629l-7.545,1.344l-7.612,1.058l-7.667,0.771
	l-7.708,0.482l-7.736,0.195l-7.75-0.098l-7.753-0.391l-7.74-0.682l-7.716-0.975l-7.675-1.271l-7.625-1.566l-7.561-1.863l-7.482-2.16
	l-0.247-0.082l-2.081-7.205l-1.863-7.561l-1.565-7.625l-1.272-7.675l-0.975-7.716l-0.682-7.74l-0.39-7.754l-0.098-7.748l0.195-7.738
	l0.483-7.708l0.771-7.667l1.058-7.612l1.344-7.545l1.628-7.463l1.911-7.369l2.07-6.852l6.823-1.97l7.561-1.863l7.625-1.565
	l7.675-1.272l7.716-0.975l7.74-0.681l7.753-0.39l7.75-0.098l7.736,0.194l7.707,0.483l7.668,0.771l7.611,1.058l7.546,1.344
	l7.463,1.629l7.368,1.911L202.593,80.41L202.593,80.41z M201.598,205.063l-1.163,3.49l-2.761,7.286l-3.062,7.168l-3.363,7.038
	l-3.668,6.893l-3.971,6.735l-4.281,6.563l-4.341,6.051c-10.591,3.085-21.79,4.737-33.376,4.737c-10.813,0-21.288-1.442-31.246-4.142
	l-4.769-6.646l-4.28-6.563l-3.971-6.735l-3.667-6.893l-3.363-7.038l-3.063-7.168l-2.76-7.286l-1.086-3.262l5.286,1.527l7.706,1.898
	l7.771,1.597l7.819,1.296l7.861,0.993l7.883,0.695l7.896,0.396l7.893,0.1l7.881-0.199l7.852-0.49l7.811-0.786l7.755-1.077
	l7.69-1.371l7.605-1.658l7.516-1.949L201.598,205.063L201.598,205.063z M104.371,255.086l-1.93-2.69l-4.371-6.709l-4.057-6.881
	l-3.746-7.039l-3.434-7.186l-3.125-7.313l-2.816-7.434l-1.976-5.934l-5.391-1.795l-7.434-2.816l-7.313-3.125l-7.185-3.434
	l-7.039-3.746l-6.881-4.057l-6.709-4.371l-2.841-2.039C39.826,214.651,68.308,243.235,104.371,255.086L104.371,255.086z
	 M77.553,199.422l-1.373-4.753l-1.899-7.705l-1.177-5.729c-17.529-6.769-33.343-16.268-47.592-27.916l-2.843-2.632
	c0.559,7.503,1.812,14.813,3.694,21.864l6.76,4.851l6.563,4.28l6.736,3.971l6.892,3.668l7.038,3.363l7.168,3.063l7.287,2.76
	L77.553,199.422L77.553,199.422z M72.235,176.487l-0.847-5.113l-0.994-7.861L69.7,155.63l-0.396-7.896l-0.1-7.893l0.199-7.882
	l0.49-7.851l0.787-7.811l1.077-7.755l0.703-3.943c-17.597,7.425-34.207,16.868-49.925,30.217c-0.132,2.293-0.201,4.606-0.201,6.932
	c0,1.061,0.017,2.115,0.044,3.169C35.953,157.445,53.446,168.841,72.235,176.487L72.235,176.487z M73.356,99.808l1.431-6.562
	l1.949-7.516l1.321-4.373l-3.622,1.207l-7.286,2.761l-7.168,3.063l-7.038,3.363l-6.893,3.668l-6.735,3.971l-6.564,4.28l-5.435,3.9
	c-2.1,7.022-3.569,14.313-4.344,21.811l2.168-1.608C40.16,115.722,56.203,106.312,73.356,99.808L73.356,99.808z M79.483,76.857
	l2.018-5.819l2.811-7.151l3.098-7.006l3.381-6.844l3.667-6.671l3.947-6.483l4.228-6.284l1.596-2.147
	c-34.808,11.483-62.53,38.564-74.893,72.965l1.257-0.901l6.709-4.372l6.881-4.057l7.039-3.746l7.186-3.434l7.313-3.125l7.434-2.816
	L79.483,76.857L79.483,76.857z"/>
<path fill-rule="evenodd" clip-rule="evenodd" fill="#00ABDA" d="M141.612,85.709c29.589,0,53.584,23.996,53.584,53.584
	c0,29.59-23.995,53.585-53.584,53.585c-29.589,0-53.584-23.995-53.584-53.585C88.027,109.705,112.023,85.709,141.612,85.709
	L141.612,85.709z M141.612,89.528c27.48,0,49.768,22.286,49.768,49.766s-22.287,49.767-49.768,49.767
	c-27.479,0-49.766-22.286-49.766-49.767S114.133,89.528,141.612,89.528L141.612,89.528z"/>
<path fill-rule="evenodd" clip-rule="evenodd" fill="#00ABDA" d="M90.792,170.444l-43.928,28.818
	c20.901,34.627,59.835,52.27,94.443,52.253c34.534-0.017,70.881-15.452,95.147-52.054l-43.73-29.022
	c-12.121,19.577-33.239,28.504-51.625,28.521C122.896,198.978,102.929,190.315,90.792,170.444L90.792,170.444z M63.144,214.315
	l2.466,2.502l2.541,2.404l2.614,2.313l2.681,2.213l2.743,2.119l2.802,2.021l2.86,1.925l2.909,1.826l2.958,1.729l3.001,1.633
	l3.043,1.535l3.077,1.438l3.107,1.34l3.135,1.238l3.159,1.143l3.176,1.042l3.192,0.944l3.201,0.843l3.211,0.747l3.21,0.646
	l3.209,0.548l3.202,0.445l3.194,0.348l3.178,0.246l3.159,0.148l3.138,0.048l3.133-0.045l3.143-0.134l3.148-0.223l3.151-0.313
	l3.152-0.403l3.147-0.497l3.143-0.59l3.134-0.687l3.128-0.779l3.113-0.877l3.1-0.973l3.08-1.072l3.063-1.171l3.039-1.272
	l3.016-1.373l2.99-1.477l2.961-1.578l2.928-1.683l2.895-1.789l2.859-1.896l2.82-2.003l2.779-2.113l2.736-2.222l2.691-2.336
	l2.645-2.446l2.594-2.561l2.541-2.676l2.484-2.795l2.43-2.909l2.369-3.03l2.308-3.15l0.085-0.123l-37.324-24.771l-0.346,0.494
	l-1.342,1.791l-1.395,1.723l-1.438,1.66l-1.485,1.595l-1.526,1.53l-1.566,1.463l-1.602,1.402l-1.641,1.339l-1.672,1.274
	l-1.704,1.211l-1.728,1.147l-1.756,1.085l-1.781,1.027l-1.801,0.96l-1.816,0.901l-1.836,0.841l-1.852,0.78l-1.862,0.721
	l-1.872,0.662l-1.881,0.6l-1.887,0.543l-1.891,0.484l-1.891,0.428l-1.893,0.367l-1.889,0.313l-1.886,0.254l-1.876,0.199
	l-1.871,0.141l-1.858,0.086l-3.668,0.004l-1.834-0.079l-1.841-0.136l-1.845-0.191l-1.846-0.246l-1.851-0.304l-1.848-0.36
	l-1.848-0.42l-1.841-0.475l-1.838-0.536l-1.83-0.594l-1.821-0.655l-1.809-0.713l-1.797-0.775l-1.78-0.836l-1.765-0.898l-1.744-0.958
	l-1.726-1.022l-1.702-1.086l-1.68-1.148l-1.65-1.213l-1.623-1.277l-1.594-1.343l-1.562-1.409l-1.523-1.473l-1.489-1.54l-1.45-1.605
	l-1.411-1.671l-1.367-1.738l-1.324-1.805l-0.35-0.513l-37.598,24.665l2.012,2.949l2.128,2.885l2.218,2.789l2.306,2.695
	L63.144,214.315L63.144,214.315z"/>
<polygon fill-rule="evenodd" clip-rule="evenodd" fill="#FFFFFF" points="63.144,214.315 65.609,216.817 68.15,219.222 
	70.765,221.534 73.445,223.747 76.188,225.866 78.99,227.887 81.85,229.812 84.759,231.638 87.717,233.366 90.718,234.999 
	93.762,236.534 96.838,237.972 99.945,239.312 103.08,240.55 106.239,241.692 109.415,242.734 112.607,243.679 115.809,244.521 
	119.02,245.269 122.229,245.914 125.439,246.462 128.641,246.907 131.835,247.255 135.013,247.501 138.171,247.649 141.309,247.697 
	144.442,247.652 147.585,247.519 150.733,247.296 153.885,246.982 157.037,246.579 160.185,246.082 163.327,245.492 
	166.461,244.806 169.589,244.026 172.702,243.149 175.802,242.177 178.882,241.104 181.944,239.934 184.983,238.661 
	187.999,237.288 190.989,235.812 193.95,234.233 196.878,232.551 199.772,230.762 202.632,228.865 205.452,226.862 208.231,224.749 
	210.968,222.527 213.659,220.191 216.304,217.745 218.897,215.185 221.438,212.509 223.923,209.714 226.353,206.805 
	228.722,203.774 231.029,200.624 231.114,200.501 193.79,175.729 193.444,176.224 192.103,178.015 190.708,179.737 189.271,181.397 
	187.785,182.992 186.259,184.522 184.692,185.985 183.091,187.388 181.45,188.727 179.778,190.001 178.074,191.212 176.347,192.359 
	174.591,193.444 172.81,194.472 171.009,195.432 169.192,196.333 167.356,197.174 165.505,197.954 163.643,198.675 161.771,199.337 
	159.89,199.937 158.003,200.479 156.112,200.964 154.222,201.392 152.329,201.759 150.44,202.071 148.555,202.325 146.679,202.524 
	144.808,202.665 142.949,202.751 141.103,202.778 139.281,202.755 137.447,202.676 135.605,202.54 133.761,202.349 131.915,202.103 
	130.064,201.799 128.216,201.438 126.368,201.019 124.526,200.544 122.688,200.008 120.858,199.414 119.037,198.759 
	117.229,198.046 115.432,197.271 113.651,196.435 111.887,195.536 110.143,194.578 108.417,193.556 106.715,192.47 105.035,191.321 
	103.385,190.108 101.762,188.831 100.168,187.488 98.606,186.079 97.083,184.606 95.594,183.066 94.144,181.461 92.732,179.79 
	91.366,178.052 90.042,176.247 89.691,175.734 52.094,200.399 54.105,203.349 56.233,206.233 58.451,209.022 60.757,211.718 
	63.144,214.315 "/>
<path fill-rule="evenodd" clip-rule="evenodd" fill="#00ABDA" d="M95.429,233.099l2.974,1.389l3.001,1.295l3.028,1.196l3.052,1.104
	l3.068,1.006l3.083,0.912l3.093,0.813l3.1,0.722l3.099,0.623l3.096,0.529l3.087,0.429l3.079,0.336l3.06,0.237l3.041,0.142
	l3.021,0.047l3.023-0.044l3.036-0.129l3.04-0.215l3.044-0.303l3.043-0.389l3.037-0.48l3.031-0.568l3.025-0.663l3.019-0.753
	l3.005-0.846l2.987-0.938l2.971-1.035l2.952-1.129l2.932-1.227l2.906-1.322l2.883-1.424l2.855-1.522l2.821-1.622l2.79-1.725
	l2.758-1.829l2.721-1.933l2.682-2.039l2.641-2.143l2.598-2.254l2.555-2.364l2.506-2.474l2.455-2.586l2.404-2.703l2.352-2.816
	l2.293-2.932l-30.996-20.572l-1.041,1.288l-1.525,1.761l-1.578,1.693l-1.621,1.623l-1.658,1.551l-1.699,1.486l-1.739,1.421
	l-1.774,1.353l-1.806,1.281l-1.829,1.217l-1.859,1.148l-1.885,1.086l-1.906,1.018l-1.92,0.953l-1.943,0.889l-1.957,0.826
	l-1.968,0.761l-1.979,0.7l-1.99,0.635l-1.994,0.575l-1.998,0.51l-1.998,0.452l-2.002,0.39l-2,0.331l-1.997,0.269l-1.987,0.21
	l-1.982,0.15l-1.975,0.092l-1.959,0.027l-1.933-0.024l-1.949-0.084l-1.957-0.144l-1.957-0.203l-1.957-0.262l-1.965-0.323
	l-1.961-0.383l-1.958-0.444l-1.955-0.502l-1.95-0.57l-1.941-0.63l-1.932-0.694l-1.92-0.757l-1.908-0.823l-1.89-0.887l-1.873-0.954
	l-1.851-1.018l-1.833-1.085l-1.809-1.152l-1.783-1.222l-1.752-1.288l-1.722-1.355l-1.692-1.426l-1.659-1.496l-1.616-1.563
	l-1.58-1.633l-1.536-1.702l-1.495-1.771l-1.014-1.289l-31.308,20.539l1.815,2.459l2.131,2.681l2.216,2.593l2.297,2.498l2.372,2.407
	l2.447,2.313l2.516,2.228l2.583,2.133l2.644,2.042l2.701,1.947l2.759,1.856l2.805,1.763l2.855,1.668l2.898,1.576L95.429,233.099
	L95.429,233.099z M117.647,237.108l2.991,0.695l2.987,0.602l2.982,0.51l2.973,0.412l2.964,0.324l2.942,0.227l2.922,0.137
	l2.905,0.046l2.913-0.043l2.928-0.124l2.932-0.207l2.938-0.293l2.934-0.375l2.928-0.463l2.922-0.547l2.914-0.639l2.91-0.727
	l2.895-0.814l2.877-0.903l2.861-0.997l2.843-1.086l2.821-1.181l2.799-1.273l2.775-1.372l2.749-1.465l2.716-1.561l2.687-1.662
	l2.657-1.76l2.619-1.861l2.584-1.965l2.545-2.065l2.504-2.173l2.465-2.281l2.418-2.387l2.37-2.496l2.322-2.611l1.976-2.365
	l-24.699-16.393l-0.461,0.531l-1.668,1.791l-1.715,1.717l-1.752,1.64l-1.795,1.57l-1.841,1.503l-1.876,1.431l-1.907,1.352
	l-1.931,1.284l-1.962,1.213l-1.99,1.146l-2.011,1.073l-2.024,1.005l-2.05,0.938l-2.063,0.871l-2.073,0.801l-2.088,0.739
	l-2.098,0.669l-2.104,0.606l-2.105,0.536l-2.104,0.478l-2.112,0.411l-2.109,0.348l-2.107,0.285l-2.098,0.221l-2.097,0.158
	l-2.089,0.098l-2.072,0.029l-2.044-0.025l-2.064-0.088l-2.072-0.153l-2.07-0.215l-2.069-0.276l-2.077-0.342l-2.074-0.405
	l-2.068-0.469l-2.069-0.532l-2.064-0.603l-2.05-0.667l-2.042-0.732l-2.031-0.801l-2.02-0.871l-2-0.939l-1.98-1.009l-1.958-1.077
	l-1.938-1.148l-1.914-1.219l-1.888-1.293l-1.855-1.363l-1.821-1.434l-1.791-1.508l-1.755-1.584l-1.709-1.652l-1.671-1.728
	l-1.623-1.798l-0.415-0.49l-25.024,16.418l1.392,1.751l2.128,2.489l2.206,2.398l2.278,2.313l2.353,2.224l2.42,2.142l2.484,2.052
	l2.545,1.967l2.6,1.872l2.658,1.791l2.703,1.697l2.752,1.607l2.795,1.52l2.834,1.431l2.87,1.341l2.894,1.248l2.922,1.153
	l2.945,1.066l2.96,0.971l2.973,0.879L117.647,237.108L117.647,237.108z"/>
<polygon fill-rule="evenodd" clip-rule="evenodd" fill="#FFFFFF" points="117.647,237.108 120.638,237.804 123.625,238.405 
	126.607,238.915 129.58,239.327 132.544,239.651 135.486,239.878 138.408,240.015 141.313,240.061 144.226,240.018 147.153,239.894 
	150.085,239.687 153.022,239.394 155.956,239.019 158.884,238.556 161.806,238.009 164.72,237.37 167.63,236.644 170.524,235.829 
	173.401,234.926 176.263,233.929 179.105,232.843 181.927,231.662 184.726,230.389 187.501,229.017 190.25,227.552 192.966,225.991 
	195.652,224.329 198.31,222.569 200.929,220.708 203.513,218.743 206.058,216.678 208.562,214.505 211.026,212.224 213.444,209.837 
	215.814,207.341 218.137,204.729 220.112,202.364 195.413,185.972 194.952,186.503 193.284,188.294 191.569,190.011 189.817,191.65 
	188.022,193.221 186.182,194.724 184.306,196.154 182.398,197.506 180.468,198.79 178.506,200.003 176.516,201.149 174.505,202.223 
	172.48,203.228 170.431,204.165 168.367,205.036 166.294,205.837 164.206,206.576 162.108,207.245 160.005,207.852 157.899,208.388 
	155.795,208.865 153.683,209.276 151.573,209.624 149.466,209.909 147.368,210.13 145.271,210.288 143.183,210.386 141.11,210.415 
	139.066,210.39 137.002,210.302 134.93,210.148 132.86,209.934 130.791,209.657 128.714,209.315 126.64,208.91 124.571,208.441 
	122.502,207.909 120.438,207.307 118.388,206.64 116.346,205.907 114.315,205.106 112.295,204.235 110.295,203.296 108.314,202.287 
	106.356,201.21 104.418,200.062 102.504,198.843 100.616,197.55 98.761,196.187 96.939,194.753 95.148,193.245 93.393,191.661 
	91.684,190.009 90.013,188.281 88.39,186.483 87.976,185.993 62.951,202.411 64.343,204.162 66.471,206.651 68.677,209.05 
	70.955,211.362 73.308,213.586 75.728,215.728 78.212,217.779 80.757,219.746 83.356,221.618 86.014,223.409 88.717,225.106 
	91.469,226.714 94.264,228.233 97.098,229.664 99.968,231.005 102.862,232.253 105.784,233.406 108.729,234.473 111.689,235.443 
	114.662,236.322 117.647,237.108 "/>
<polygon fill-rule="evenodd" clip-rule="evenodd" fill="#E75E24" points="141.612,103.444 152.468,126.178 177.443,129.478 
	159.177,146.827 163.757,171.601 141.612,159.591 119.467,171.601 124.046,146.827 105.78,129.478 130.755,126.178 141.612,103.444 
	"/>
<polygon fill-rule="evenodd" clip-rule="evenodd" fill="#00ABDA" points="113.262,183.328 116.735,183.328 116.735,194.769 
	113.262,194.769 113.262,183.328 "/>
<polygon fill-rule="evenodd" clip-rule="evenodd" fill="#00ABDA" points="166.376,183.737 169.849,183.737 169.849,195.177 
	166.376,195.177 166.376,183.737 "/>
<path fill-rule="evenodd" clip-rule="evenodd" fill="#00ABDA" d="M240.53,130.827c5.415,0,9.807,4.391,9.807,9.806
	s-4.392,9.806-9.807,9.806c-5.414,0-9.805-4.391-9.805-9.806S235.116,130.827,240.53,130.827L240.53,130.827z M240.53,134.646
	c3.307,0,5.988,2.682,5.988,5.987s-2.682,5.987-5.988,5.987c-3.305,0-5.986-2.682-5.986-5.987S237.226,134.646,240.53,134.646
	L240.53,134.646z"/>
<polygon fill="#E75E24" points="31.236,206.591 18.885,212.884 14.57,204.414 16.661,203.35 19.704,209.321 22.626,207.833 
	19.999,202.677 22.09,201.612 24.717,206.769 29.964,204.095 31.236,206.591 "/>
<polygon fill="#E75E24" points="25.586,196.282 12.645,201.249 8.962,191.655 11.153,190.815 13.833,197.796 16.701,196.694 
	14.208,190.198 16.386,189.363 18.879,195.858 22.402,194.507 19.627,187.279 21.809,186.442 25.586,196.282 "/>
<path fill="#E75E24" d="M7.247,187.827l-1.324-4.941c-0.298-1.113-0.44-1.982-0.426-2.615c0.02-0.848,0.251-1.631,0.693-2.348
	c0.439-0.719,1.048-1.34,1.823-1.861c0.78-0.52,1.793-0.949,3.051-1.285c1.1-0.295,2.087-0.413,2.959-0.352
	c1.063,0.072,1.978,0.338,2.747,0.8c0.583,0.345,1.108,0.883,1.578,1.612c0.351,0.544,0.657,1.317,0.925,2.318l1.362,5.084
	L7.247,187.827L7.247,187.827z M8.789,184.518l8.865-2.376l-0.54-2.018c-0.202-0.754-0.39-1.289-0.566-1.602
	c-0.226-0.407-0.508-0.723-0.848-0.943c-0.339-0.219-0.835-0.336-1.484-0.36c-0.646-0.021-1.491,0.106-2.526,0.383
	c-1.034,0.278-1.802,0.583-2.309,0.913c-0.506,0.332-0.87,0.704-1.091,1.113c-0.223,0.416-0.32,0.889-0.294,1.422
	c0.014,0.401,0.172,1.152,0.467,2.254L8.789,184.518L8.789,184.518z"/>
<polygon fill="#E75E24" points="16.922,170.843 3.271,173.251 1.486,163.131 3.797,162.724 5.096,170.087 8.122,169.554 
	6.914,162.7 9.211,162.296 10.42,169.147 14.135,168.493 12.79,160.868 15.092,160.463 16.922,170.843 "/>
<path fill="#E75E24" d="M14.686,158.039l-13.827,0.967l-0.411-5.879c-0.104-1.478-0.053-2.559,0.147-3.246
	c0.203-0.687,0.605-1.255,1.212-1.702c0.609-0.446,1.32-0.697,2.137-0.754c1.037-0.072,1.917,0.173,2.636,0.734
	c0.716,0.561,1.208,1.445,1.467,2.646c0.312-0.629,0.663-1.156,1.057-1.578c0.395-0.422,1.105-1.002,2.133-1.744l2.581-1.879
	l0.232,3.34l-2.868,2.229c-1.025,0.793-1.667,1.33-1.929,1.613c-0.262,0.283-0.432,0.576-0.518,0.88
	c-0.082,0.304-0.101,0.774-0.056,1.419l0.04,0.563l5.772-0.403L14.686,158.039L14.686,158.039z M6.51,155.802l-0.145-2.063
	c-0.093-1.34-0.207-2.174-0.343-2.501c-0.136-0.323-0.349-0.571-0.64-0.741c-0.29-0.168-0.642-0.238-1.057-0.211
	c-0.467,0.033-0.832,0.186-1.101,0.453s-0.425,0.631-0.471,1.092c-0.013,0.226,0.018,0.907,0.097,2.04l0.152,2.176L6.51,155.802
	L6.51,155.802z"/>
<path fill="#E75E24" d="M14.151,131.609l-0.107,3.044l-3.19,1.1l-0.194,5.537l3.109,1.253l-0.104,2.968L0,139.63l0.104-2.957
	L14.151,131.609L14.151,131.609z M8.491,136.568l-5.208,1.729l5.076,2.051L8.491,136.568L8.491,136.568z"/>
<polygon fill="#E75E24" points="14.451,128.439 3.047,126.836 2.476,130.907 0.152,130.581 1.686,119.674 4.009,120 3.438,124.062 
	14.841,125.665 14.451,128.439 "/>
<polygon fill="#E75E24" points="15.639,119.812 2.032,117.167 2.566,114.421 16.173,117.065 15.639,119.812 "/>
<path fill="#E75E24" d="M9.771,113.187c-1.359-0.391-2.439-0.918-3.244-1.588c-0.589-0.499-1.082-1.086-1.472-1.765
	c-0.387-0.679-0.622-1.367-0.703-2.065c-0.116-0.933-0.015-1.938,0.297-3.023c0.563-1.964,1.621-3.359,3.178-4.189
	c1.554-0.831,3.417-0.935,5.585-0.312c2.154,0.618,3.667,1.686,4.547,3.205c0.878,1.517,1.038,3.254,0.478,5.209
	c-0.568,1.981-1.625,3.385-3.167,4.208C13.723,113.688,11.889,113.794,9.771,113.187L9.771,113.187z M10.475,110.391
	c1.507,0.432,2.753,0.408,3.731-0.063c0.979-0.474,1.621-1.246,1.929-2.32c0.307-1.07,0.174-2.061-0.404-2.973
	c-0.577-0.907-1.635-1.583-3.179-2.025c-1.527-0.438-2.762-0.43-3.707,0.021c-0.943,0.456-1.573,1.237-1.891,2.346
	c-0.319,1.111-0.193,2.113,0.373,3.011C7.893,109.28,8.94,109.949,10.475,110.391L10.475,110.391z"/>
<polygon fill="#E75E24" points="20.681,100.029 7.829,94.836 8.85,92.311 19.557,90.518 10.975,87.05 11.949,84.639 24.802,89.831 
	23.749,92.437 13.274,94.23 21.655,97.617 20.681,100.029 "/>
<path fill="#E75E24" d="M28.421,71.902l2.099-1.919c1.103,1.117,1.73,2.277,1.883,3.483c0.151,1.202-0.145,2.45-0.888,3.739
	c-0.921,1.593-2.222,2.589-3.902,2.987c-1.682,0.397-3.468,0.051-5.355-1.038c-1.998-1.154-3.25-2.568-3.763-4.237
	c-0.508-1.669-0.279-3.343,0.693-5.026c0.848-1.468,1.97-2.41,3.368-2.825c0.828-0.253,1.8-0.235,2.921,0.046l-0.813,2.732
	c-0.704-0.22-1.367-0.208-1.989,0.037c-0.621,0.242-1.115,0.686-1.486,1.329c-0.513,0.889-0.613,1.797-0.292,2.72
	c0.318,0.921,1.192,1.795,2.623,2.621c1.518,0.876,2.756,1.229,3.715,1.053c0.96-0.172,1.692-0.696,2.196-1.568
	c0.372-0.645,0.487-1.316,0.345-2.018C29.635,73.318,29.182,72.612,28.421,71.902L28.421,71.902z"/>
<path fill="#E75E24" d="M29.664,66.641c-1.144-0.831-1.978-1.696-2.505-2.602c-0.383-0.669-0.645-1.391-0.779-2.162
	c-0.131-0.771-0.117-1.498,0.046-2.182c0.21-0.916,0.649-1.825,1.313-2.739c1.201-1.653,2.672-2.603,4.419-2.85
	c1.744-0.249,3.53,0.292,5.354,1.617c1.813,1.316,2.87,2.838,3.177,4.566c0.306,1.726-0.137,3.414-1.333,5.06
	c-1.212,1.667-2.686,2.625-4.416,2.87C33.207,68.465,31.447,67.937,29.664,66.641L29.664,66.641z M31.282,64.254
	c1.269,0.922,2.448,1.327,3.527,1.218c1.083-0.112,1.95-0.618,2.606-1.522c0.654-0.9,0.868-1.877,0.637-2.931
	c-0.231-1.049-0.995-2.046-2.293-2.991c-1.286-0.934-2.448-1.348-3.491-1.248c-1.042,0.105-1.901,0.625-2.578,1.557
	c-0.68,0.936-0.904,1.919-0.681,2.958C29.236,62.329,29.991,63.315,31.282,64.254L31.282,64.254z"/>
<polygon fill="#E75E24" points="44.57,58.113 34.599,48.484 36.492,46.524 47.092,48.874 40.432,42.443 42.239,40.572 
	52.211,50.201 50.259,52.223 39.875,49.962 46.377,56.242 44.57,58.113 "/>
<path fill="#E75E24" d="M56.041,40.122l-1.503-1.79l4.621-3.877l3.55,4.23c-0.084,0.813-0.413,1.741-0.988,2.789
	c-0.578,1.043-1.301,1.934-2.174,2.666c-1.11,0.931-2.274,1.512-3.49,1.74c-1.218,0.226-2.397,0.081-3.541-0.438
	c-1.143-0.518-2.142-1.286-2.996-2.305c-0.928-1.105-1.521-2.285-1.781-3.532c-0.254-1.249-0.131-2.477,0.38-3.685
	c0.383-0.924,1.083-1.811,2.098-2.662c1.317-1.106,2.579-1.694,3.782-1.763c1.207-0.069,2.324,0.295,3.357,1.093l-1.796,2.184
	c-0.588-0.396-1.217-0.571-1.882-0.527c-0.667,0.045-1.307,0.326-1.924,0.844c-0.938,0.788-1.433,1.707-1.489,2.766
	c-0.054,1.061,0.41,2.17,1.392,3.339c1.056,1.259,2.13,1.971,3.22,2.13c1.087,0.163,2.086-0.139,2.994-0.901
	c0.449-0.378,0.824-0.845,1.13-1.4c0.303-0.553,0.511-1.093,0.624-1.614l-1.131-1.347L56.041,40.122L56.041,40.122z"/>
<path fill="#E75E24" d="M61.766,32.95c-0.75-1.199-1.198-2.314-1.348-3.351c-0.105-0.764-0.078-1.531,0.086-2.297
	c0.167-0.763,0.453-1.432,0.859-2.006c0.54-0.771,1.286-1.45,2.245-2.048c1.731-1.083,3.452-1.412,5.165-0.986
	c1.71,0.423,3.164,1.592,4.359,3.505c1.188,1.901,1.597,3.707,1.235,5.424c-0.363,1.715-1.407,3.114-3.131,4.191
	c-1.749,1.093-3.473,1.428-5.17,1.008C64.367,35.968,62.934,34.819,61.766,32.95L61.766,32.95z M64.16,31.344
	c0.832,1.33,1.773,2.146,2.814,2.45c1.046,0.303,2.039,0.157,2.987-0.435c0.944-0.59,1.508-1.416,1.688-2.479
	c0.179-1.06-0.156-2.27-1.007-3.632c-0.841-1.348-1.765-2.167-2.769-2.465c-1.005-0.292-1.997-0.132-2.975,0.478
	c-0.98,0.613-1.557,1.441-1.738,2.487C62.983,28.791,63.313,29.99,64.16,31.344L64.16,31.344z"/>
<polygon fill="#E75E24" points="78.74,30.395 72.498,18.146 74.991,16.875 80.172,27.042 86.371,23.883 87.433,25.965 78.74,30.395 
	"/>
<path fill="#E75E24" d="M100.875,20.469l-2.844,1.092l-2.258-2.508l-5.174,1.987l0.062,3.35l-2.771,1.064l0.073-14.875l2.764-1.061
	L100.875,20.469L100.875,20.469z M94.099,17.197l-3.626-4.118l0.095,5.473L94.099,17.197L94.099,17.197z"/>
<polygon fill="#E75E24" points="102.164,20.01 97.881,6.826 100.541,5.962 104.825,19.145 102.164,20.01 "/>
<path fill="#E75E24" d="M105.567,14.125l2.592-0.875c0.364,0.858,0.838,1.437,1.426,1.741c0.583,0.304,1.289,0.362,2.119,0.17
	c0.877-0.202,1.499-0.54,1.854-1.018c0.361-0.475,0.484-0.959,0.37-1.456c-0.075-0.32-0.231-0.569-0.472-0.749
	c-0.237-0.184-0.609-0.304-1.116-0.359c-0.344-0.04-1.119-0.066-2.318-0.087c-1.546-0.024-2.674-0.234-3.384-0.626
	c-1.001-0.551-1.625-1.361-1.872-2.429c-0.16-0.689-0.113-1.375,0.139-2.067c0.252-0.686,0.709-1.273,1.369-1.757
	c0.664-0.48,1.512-0.841,2.549-1.081c1.698-0.392,3.058-0.316,4.088,0.228c1.027,0.548,1.706,1.435,2.037,2.667l-2.7,0.749
	c-0.276-0.668-0.643-1.11-1.098-1.323c-0.453-0.217-1.063-0.235-1.831-0.057c-0.792,0.182-1.378,0.486-1.749,0.916
	c-0.242,0.275-0.322,0.588-0.242,0.938c0.075,0.321,0.273,0.563,0.597,0.728c0.409,0.21,1.314,0.318,2.714,0.323
	c1.399,0.008,2.455,0.105,3.167,0.292c0.712,0.189,1.315,0.531,1.811,1.029c0.493,0.5,0.838,1.174,1.035,2.027
	c0.178,0.772,0.132,1.549-0.143,2.322c-0.275,0.775-0.766,1.418-1.476,1.926c-0.71,0.512-1.653,0.902-2.828,1.173
	c-1.706,0.394-3.109,0.304-4.206-0.274C106.903,16.619,106.091,15.595,105.567,14.125L105.567,14.125z"/>
<polygon fill="#E75E24" points="120.02,15.6 118.33,1.841 128.53,0.588 128.816,2.917 121.395,3.829 121.769,6.879 128.675,6.03 
	128.959,8.347 122.053,9.194 122.513,12.939 130.196,11.996 130.482,14.314 120.02,15.6 "/>
<path fill="#E75E24" d="M138.364,0l5.115,0.089c1.151,0.021,2.027,0.123,2.631,0.313c0.81,0.252,1.499,0.69,2.064,1.313
	c0.572,0.62,1,1.377,1.289,2.266c0.283,0.894,0.416,1.986,0.394,3.287c-0.021,1.139-0.179,2.121-0.478,2.942
	c-0.362,1-0.871,1.808-1.526,2.42c-0.492,0.466-1.153,0.822-1.984,1.072c-0.62,0.187-1.447,0.269-2.483,0.251l-5.263-0.091
	L138.364,0L138.364,0z M141.121,2.396l-0.16,9.177l2.088,0.036c0.781,0.014,1.346-0.019,1.696-0.103
	c0.454-0.105,0.835-0.288,1.139-0.555c0.307-0.265,0.555-0.71,0.758-1.326c0.197-0.617,0.309-1.463,0.327-2.536
	c0.019-1.071-0.063-1.892-0.241-2.47c-0.18-0.578-0.437-1.031-0.77-1.356c-0.337-0.328-0.766-0.552-1.285-0.674
	c-0.389-0.098-1.154-0.153-2.296-0.173L141.121,2.396L141.121,2.396z M152.105,14.2l1.69-13.759l10.198,1.252l-0.286,2.329
	l-7.422-0.912l-0.373,3.05l6.906,0.849l-0.285,2.315l-6.906-0.848l-0.46,3.745l7.685,0.943l-0.285,2.32L152.105,14.2L152.105,14.2z"
	/>
<polygon fill="#E75E24" points="170.187,17.108 173.774,3.719 182.955,6.18 182.349,8.445 175.873,6.71 175.024,9.877 
	180.614,11.375 180.007,13.643 174.417,12.145 172.893,17.833 170.187,17.108 "/>
<path fill="#E75E24" d="M183.489,13.555c0.506-1.319,1.127-2.35,1.865-3.093c0.547-0.543,1.176-0.983,1.886-1.313
	c0.71-0.326,1.417-0.5,2.12-0.521c0.938-0.033,1.932,0.154,2.985,0.559c1.907,0.732,3.206,1.907,3.896,3.532
	c0.692,1.62,0.633,3.485-0.176,5.591c-0.803,2.091-1.998,3.505-3.588,4.25c-1.588,0.742-3.334,0.75-5.231,0.021
	c-1.925-0.739-3.23-1.914-3.915-3.522C182.646,17.448,182.699,15.613,183.489,13.555L183.489,13.555z M186.214,14.5
	c-0.563,1.464-0.648,2.708-0.264,3.722c0.387,1.017,1.102,1.723,2.144,2.124c1.04,0.398,2.038,0.352,2.997-0.144
	c0.954-0.495,1.72-1.491,2.295-2.99c0.569-1.483,0.668-2.713,0.301-3.694c-0.37-0.979-1.095-1.675-2.17-2.088
	c-1.079-0.414-2.09-0.376-3.032,0.108C187.544,12.024,186.785,13.01,186.214,14.5L186.214,14.5z"/>
<path fill="#E75E24" d="M198.201,19.349c0.642-1.26,1.366-2.219,2.179-2.881c0.602-0.482,1.271-0.855,2.013-1.108
	c0.741-0.25,1.46-0.35,2.162-0.297c0.938,0.066,1.905,0.356,2.911,0.869c1.82,0.927,2.988,2.231,3.506,3.919
	c0.518,1.683,0.264,3.532-0.76,5.542c-1.018,1.996-2.354,3.278-4.014,3.852c-1.656,0.573-3.393,0.398-5.204-0.525
	c-1.837-0.937-3.013-2.241-3.526-3.913C196.954,23.133,197.2,21.313,198.201,19.349L198.201,19.349z M200.812,20.574
	c-0.712,1.397-0.927,2.625-0.65,3.674c0.279,1.052,0.915,1.829,1.91,2.337c0.991,0.505,1.99,0.563,2.995,0.171
	c1.001-0.394,1.865-1.303,2.595-2.734c0.722-1.416,0.949-2.629,0.686-3.643c-0.266-1.012-0.914-1.78-1.939-2.303
	c-1.031-0.525-2.039-0.593-3.027-0.21C202.394,18.251,201.536,19.151,200.812,20.574L200.812,20.574z"/>
<polygon fill="#E75E24" points="211.501,34.629 217.604,24.864 214.117,22.686 215.36,20.696 224.702,26.532 223.458,28.522 
	219.979,26.349 213.878,36.114 211.501,34.629 "/>
<path fill="#E75E24" d="M227.911,28.894l4.182,3.637c0.828,0.72,1.416,1.291,1.762,1.716c0.348,0.421,0.586,0.881,0.718,1.38
	c0.13,0.498,0.144,1.02,0.04,1.571c-0.102,0.549-0.35,1.052-0.74,1.501c-0.426,0.491-0.949,0.827-1.568,1.006
	c-0.621,0.179-1.246,0.174-1.875-0.013c0.476,0.738,0.692,1.482,0.646,2.224c-0.046,0.747-0.333,1.42-0.858,2.025
	c-0.413,0.475-0.924,0.842-1.537,1.102c-0.612,0.255-1.227,0.352-1.843,0.288c-0.614-0.065-1.231-0.31-1.851-0.736
	c-0.383-0.268-1.252-0.982-2.607-2.144l-3.562-3.095L227.911,28.894L227.911,28.894z M228.511,32.475l-2.103,2.418l1.384,1.203
	c0.823,0.716,1.346,1.148,1.566,1.297c0.396,0.272,0.789,0.396,1.176,0.369s0.727-0.211,1.021-0.549
	c0.281-0.325,0.422-0.664,0.42-1.021c-0.005-0.358-0.164-0.711-0.479-1.057c-0.189-0.206-0.779-0.741-1.773-1.605L228.511,32.475
	L228.511,32.475z M224.895,36.635l-2.431,2.796l1.953,1.697c0.763,0.663,1.262,1.063,1.504,1.197c0.363,0.218,0.741,0.299,1.13,0.25
	c0.39-0.05,0.749-0.261,1.069-0.631c0.273-0.314,0.426-0.646,0.466-0.998c0.037-0.353-0.042-0.704-0.243-1.054
	c-0.201-0.349-0.784-0.942-1.744-1.776L224.895,36.635L224.895,36.635z"/>
<path fill="#E75E24" d="M238.103,57.534l-2.117-2.192l1.426-3.059l-3.85-3.986l-3.061,1.366l-2.061-2.136l13.722-5.746l2.056,2.129
	L238.103,57.534L238.103,57.534z M238.466,50.017l2.374-4.948l-5.001,2.228L238.466,50.017L238.466,50.017z"/>
<polygon fill="#E75E24" points="238.903,58.943 249.588,50.292 251.349,52.467 242.481,59.648 246.859,65.055 245.043,66.526 
	238.903,58.943 "/>
<polygon fill="#E75E24" points="246.347,68.136 257.876,60.648 259.401,62.995 249.83,69.21 253.62,75.046 251.66,76.318 
	246.347,68.136 "/>
<path fill="#E75E24" d="M260.005,93.247l-1.288-2.761l2.343-2.429l-2.341-5.022l-3.339,0.296l-1.254-2.691l14.845-0.965l1.251,2.682
	L260.005,93.247L260.005,93.247z M262.796,86.258l3.855-3.905l-5.453,0.477L262.796,86.258L262.796,86.258z"/>
<path fill="#E75E24" d="M264.663,92.421l1.14,2.488c-0.814,0.451-1.341,0.984-1.582,1.6c-0.241,0.612-0.226,1.32,0.052,2.126
	c0.293,0.851,0.695,1.434,1.207,1.738c0.51,0.31,1.004,0.381,1.486,0.215c0.311-0.107,0.543-0.29,0.696-0.547
	c0.157-0.255,0.237-0.638,0.239-1.147c0.004-0.346-0.051-1.119-0.156-2.315c-0.137-1.539-0.047-2.683,0.27-3.432
	c0.443-1.053,1.184-1.758,2.221-2.115c0.668-0.23,1.355-0.256,2.068-0.077c0.711,0.179,1.342,0.573,1.892,1.179
	c0.547,0.61,0.995,1.415,1.343,2.421c0.566,1.648,0.633,3.008,0.199,4.089c-0.438,1.079-1.249,1.847-2.439,2.305l-1.025-2.606
	c0.635-0.345,1.035-0.755,1.2-1.229c0.168-0.474,0.122-1.083-0.134-1.827c-0.266-0.77-0.629-1.319-1.096-1.644
	c-0.298-0.211-0.617-0.259-0.957-0.142c-0.311,0.107-0.531,0.33-0.66,0.668c-0.167,0.429-0.18,1.341-0.039,2.733
	c0.139,1.394,0.152,2.453,0.04,3.181c-0.113,0.729-0.39,1.364-0.833,1.908c-0.445,0.543-1.081,0.956-1.908,1.242
	c-0.75,0.259-1.527,0.293-2.324,0.099c-0.801-0.191-1.49-0.611-2.07-1.266c-0.583-0.653-1.07-1.549-1.463-2.689
	c-0.569-1.656-0.625-3.06-0.166-4.211C262.322,94.012,263.257,93.096,264.663,92.421L264.663,92.421z"/>
<path fill="#E75E24" d="M268.923,105.096l0.875,2.592c-0.858,0.364-1.438,0.838-1.742,1.426c-0.303,0.583-0.361,1.289-0.17,2.119
	c0.203,0.877,0.541,1.499,1.018,1.854c0.475,0.361,0.96,0.484,1.457,0.37c0.32-0.074,0.569-0.231,0.748-0.471
	c0.184-0.237,0.305-0.609,0.359-1.116c0.039-0.344,0.066-1.119,0.088-2.318c0.023-1.546,0.232-2.674,0.625-3.385
	c0.551-1.001,1.361-1.625,2.43-1.872c0.689-0.16,1.376-0.113,2.066,0.139c0.688,0.252,1.273,0.709,1.758,1.369
	c0.48,0.664,0.842,1.512,1.08,2.549c0.393,1.698,0.316,3.058-0.228,4.087c-0.548,1.027-1.435,1.706-2.666,2.037l-0.749-2.7
	c0.668-0.276,1.109-0.643,1.322-1.098c0.217-0.453,0.235-1.063,0.058-1.831c-0.183-0.792-0.487-1.378-0.917-1.749
	c-0.274-0.242-0.588-0.322-0.938-0.242c-0.32,0.074-0.562,0.273-0.727,0.597c-0.21,0.409-0.318,1.314-0.324,2.714
	c-0.008,1.399-0.104,2.455-0.291,3.167c-0.189,0.712-0.531,1.315-1.029,1.811c-0.5,0.493-1.175,0.838-2.027,1.034
	c-0.773,0.179-1.549,0.133-2.322-0.143c-0.775-0.275-1.418-0.766-1.926-1.476c-0.512-0.71-0.902-1.653-1.174-2.828
	c-0.395-1.706-0.303-3.109,0.273-4.206C266.43,106.432,267.454,105.619,268.923,105.096L268.923,105.096z"/>
<path fill="#E75E24" d="M274.31,117.894c1.4-0.196,2.601-0.152,3.609,0.133c0.74,0.215,1.43,0.552,2.063,1.013
	c0.629,0.463,1.123,0.996,1.482,1.601c0.484,0.805,0.802,1.764,0.958,2.883c0.284,2.023-0.113,3.729-1.2,5.12
	c-1.081,1.391-2.74,2.243-4.975,2.556c-2.219,0.312-4.035-0.048-5.457-1.078c-1.419-1.029-2.271-2.552-2.555-4.565
	c-0.287-2.042,0.107-3.753,1.182-5.133C270.495,119.043,272.126,118.201,274.31,117.894L274.31,117.894z M274.802,120.734
	c-1.553,0.219-2.681,0.747-3.383,1.575c-0.701,0.832-0.973,1.799-0.818,2.905c0.156,1.102,0.681,1.953,1.578,2.551
	c0.896,0.595,2.139,0.782,3.729,0.558c1.574-0.221,2.697-0.731,3.378-1.527c0.676-0.799,0.934-1.771,0.773-2.911
	c-0.161-1.145-0.684-2.01-1.564-2.6C277.614,120.698,276.384,120.513,274.802,120.734L274.802,120.734z"/>
<path fill="#E75E24" d="M274.565,143.018l-0.764,2.739c-1.527-0.363-2.674-1.015-3.443-1.957c-0.766-0.938-1.177-2.154-1.229-3.641
	c-0.064-1.84,0.512-3.373,1.726-4.602c1.216-1.227,2.915-1.881,5.091-1.956c2.307-0.081,4.117,0.453,5.438,1.599
	c1.314,1.146,2.008,2.688,2.076,4.63c0.059,1.693-0.394,3.087-1.359,4.181c-0.568,0.652-1.402,1.152-2.502,1.509l-0.758-2.747
	c0.715-0.188,1.27-0.549,1.668-1.086c0.397-0.534,0.582-1.174,0.556-1.916c-0.036-1.025-0.433-1.848-1.192-2.461
	c-0.759-0.612-1.963-0.889-3.613-0.832c-1.752,0.061-2.989,0.418-3.71,1.075c-0.723,0.655-1.065,1.487-1.03,2.494
	c0.025,0.745,0.283,1.374,0.777,1.894C272.785,142.46,273.544,142.817,274.565,143.018L274.565,143.018z"/>
<polygon fill="#E75E24" points="269.257,148.185 283.085,149.151 282.889,151.942 269.062,150.976 269.257,148.185 "/>
<path fill="#E75E24" d="M267.417,166.092l0.372-3.022l3.274-0.818l0.676-5.5l-2.988-1.518l0.362-2.947l13.1,7.049l-0.36,2.938
	L267.417,166.092L267.417,166.092z M273.487,161.646l5.34-1.27l-4.878-2.484L273.487,161.646L273.487,161.646z"/>
<polygon fill="#E75E24" points="266.507,169.091 277.728,171.683 278.652,167.676 280.938,168.204 278.46,178.937 276.175,178.409 
	277.097,174.412 265.877,171.821 266.507,169.091 "/>
<polygon fill="#E75E24" points="264.296,177.577 277.685,181.164 276.961,183.866 263.571,180.279 264.296,177.577 "/>
<path fill="#E75E24" d="M269.329,184.766c1.32,0.507,2.35,1.128,3.094,1.865c0.543,0.548,0.982,1.177,1.313,1.886
	c0.326,0.711,0.5,1.418,0.52,2.12c0.034,0.938-0.153,1.932-0.558,2.985c-0.732,1.908-1.907,3.206-3.532,3.896
	c-1.619,0.691-3.485,0.633-5.592-0.176c-2.091-0.803-3.504-1.999-4.249-3.588c-0.743-1.588-0.751-3.334-0.022-5.232
	c0.739-1.925,1.914-3.229,3.523-3.915C265.437,183.922,267.271,183.977,269.329,184.766L269.329,184.766z M268.384,187.49
	c-1.465-0.563-2.707-0.648-3.723-0.264c-1.016,0.388-1.723,1.102-2.123,2.144c-0.398,1.04-0.353,2.039,0.143,2.997
	c0.496,0.954,1.492,1.72,2.991,2.296c1.482,0.568,2.713,0.668,3.694,0.301c0.979-0.371,1.674-1.096,2.088-2.171
	c0.414-1.079,0.376-2.089-0.107-3.032C270.86,188.821,269.875,188.062,268.384,187.49L268.384,187.49z"/>
<polygon fill="#E75E24" points="257.124,196.748 269.476,203.04 268.239,205.468 257.415,206.32 265.663,210.523 264.482,212.841 
	252.131,206.548 253.407,204.044 263.999,203.169 255.943,199.065 257.124,196.748 "/>
<polygon fill="#E75E24" points="96.914,205.706 99.44,202.861 88.556,193.197 74.276,209.276 77.469,212.112 83.471,205.354 
	90.205,211.335 92.731,208.49 85.996,202.509 89.223,198.876 96.914,205.706 "/>
<polygon fill="#E75E24" points="104.538,229.813 106.506,226.558 96.813,220.702 99.693,215.933 108.22,221.082 110.187,217.825 
	101.66,212.675 103.998,208.807 113.276,214.412 115.243,211.155 102.356,203.372 91.238,221.78 104.538,229.813 "/>
<polygon fill="#E75E24" points="111.904,231.718 113.324,227.597 109.287,226.206 107.868,230.327 111.904,231.718 "/>
<path fill="#E75E24" d="M136.291,229.657l-4.212-0.667c-0.973,2.565-2.668,3.663-5.098,3.299c-1.762-0.3-2.918-1.241-3.47-2.83
	c-0.563-1.521-0.688-3.259-0.377-5.217c0.241-1.524,0.611-2.739,1.108-3.646c0.478-0.91,1.007-1.6,1.589-2.06
	c0.625-0.462,1.244-0.763,1.846-0.89c0.594-0.108,1.136-0.119,1.629-0.041c0.878,0.14,1.578,0.383,2.109,0.733
	c0.521,0.321,0.905,0.7,1.147,1.143c0.238,0.448,0.413,0.88,0.528,1.302c0.064,0.455,0.097,0.854,0.099,1.199l4.211,0.668
	c0.193-1.705-0.26-3.466-1.357-5.282c-1.125-1.871-3.164-3.074-6.133-3.604c-2.678-0.425-5.025,0.159-7.036,1.756
	c-2.064,1.6-3.406,4.264-4.035,7.982c-0.562,3.671-0.128,6.581,1.303,8.723c1.379,2.145,3.438,3.441,6.167,3.895
	c2.524,0.379,4.633-0.045,6.319-1.279C134.295,233.675,135.514,231.946,136.291,229.657L136.291,229.657z"/>
<path fill="#E75E24" d="M158.544,224.978c-0.195-2.504-0.716-4.504-1.555-5.986c-0.841-1.439-1.826-2.5-2.966-3.182
	c-1.109-0.684-2.216-1.122-3.314-1.311c-1.12-0.137-2.035-0.178-2.753-0.127c-0.687,0.047-1.557,0.213-2.607,0.502
	c-1.048,0.338-2.088,0.928-3.13,1.761c-1.028,0.833-1.861,2.022-2.489,3.563c-0.669,1.589-0.922,3.644-0.767,6.151
	c0.194,2.488,0.728,4.453,1.608,5.889c0.838,1.463,1.83,2.539,2.964,3.221c1.148,0.686,2.259,1.113,3.344,1.293
	c0.278,0.041,0.54,0.072,0.788,0.104c0.243,0.045,0.48,0.078,0.717,0.096c0.449,0.029,0.834,0.031,1.152,0.01
	c0.717-0.049,1.615-0.243,2.702-0.584c1.063-0.33,2.099-0.907,3.102-1.743c1.034-0.833,1.86-2.037,2.491-3.603
	C158.46,229.489,158.698,227.47,158.544,224.978L158.544,224.978z M154.284,225.276c0.104,1.47,0.024,2.705-0.234,3.716
	c-0.301,0.997-0.711,1.79-1.225,2.388c-0.529,0.604-1.1,1.033-1.711,1.291c-0.627,0.289-1.242,0.453-1.844,0.494
	c-0.553,0.039-1.159-0.039-1.803-0.239c-0.678-0.168-1.318-0.513-1.92-1.036c-0.598-0.52-1.1-1.25-1.516-2.197
	c-0.438-0.961-0.707-2.174-0.809-3.643c-0.106-1.514-0.01-2.773,0.291-3.77c0.279-1.01,0.674-1.809,1.193-2.4
	c0.524-0.592,1.108-1.028,1.756-1.3c0.613-0.238,1.205-0.374,1.758-0.413c0.604-0.042,1.232,0.009,1.889,0.158
	c0.644,0.181,1.269,0.532,1.875,1.045c0.592,0.514,1.108,1.25,1.545,2.209C153.928,222.527,154.179,223.762,154.284,225.276
	L154.284,225.276z"/>
<polygon fill="#E75E24" points="164.328,233.671 163.348,229.425 159.188,230.385 160.168,234.632 164.328,233.671 "/>
<polygon fill="#E75E24" points="177.927,209.193 176.202,205.802 163.229,212.401 172.977,231.569 176.782,229.634 172.686,221.577 
	180.714,217.495 178.99,214.104 170.962,218.187 168.759,213.855 177.927,209.193 "/>
<polygon fill="#E75E24" points="186.405,225.147 184.494,221.229 180.657,223.101 182.567,227.019 186.405,225.147 "/>
<path fill="#E75E24" d="M208.591,209.69l-19.313-12.028l-3.957,3.208l7.723,21.422l3.593-2.911l-1.656-4.366l6.048-4.901l3.847,2.59
	L208.591,209.69L208.591,209.69z M197.734,208.002l-4.163,3.372l-3.26-8.296l0.047-0.038L197.734,208.002L197.734,208.002z"/>
<polygon fill="#E75E24" points="214.38,205.042 211.192,202.069 208.28,205.192 211.467,208.165 214.38,205.042 "/>
</svg>
