<svg xmlns="http://www.w3.org/2000/svg" height="383" width="383" version="1.1">
<g fill="#231f20">
<path d="m350.55 28.37c4.91 11.19-5.08 20.63-9.83 27.74 3.36 0.69 6.64 1.46 9.25 2.89-1.94 5.29-10.57 2.59-15.61 4.63-2.91 1.18-3.25 3.13-5.2 5.2 2.43 1.03 6.38 0.56 8.67 1.73-3.86 3.46-9 5.65-16.18 5.78-2.2 1.66-3.97 3.74-5.21 6.36 3.85-0.2 7.2-0.9 11.57-0.58-1.94 2.78-3.74 5.02-7.52 6.36-5.7 2.02-13.55-0.56-15.6 4.63 6.26 0.28 10.8 2.29 15.02 4.62-3.1 3.09-9.74 4.63-16.18 4.62-4.84 0-9.38-1.6-10.98 2.89 7.23 2.4 16.08 3.18 19.65 9.25-6.14 1.03-13.84 1.81-20.81 1.16-5.34-0.5-9.99-3.65-13.29-1.74 7.07 4.49 15.4 7.72 19.07 15.61-9.93 2.86-19.9-0.41-26.59-4.63-2.52-1.59-4.76-5.28-8.09-2.89 3.08 3.94 8.15 5.69 11.56 9.25 3.2 3.34 4.67 7.73 7.52 11.56-9.1 1.8-17.54-0.86-24.28-4.05-4.71-2.22-8.42-5.39-12.71-7.51 0.3 2.74 4.58 5.34 7.51 7.51 5.94 4.42 12.65 8.86 15.61 16.77-18.99 1.85-27.95-6.41-38.15-13.87-1.67-1.23-3.51-4.76-6.36-2.32 3.19 4.97 10.19 7.88 15.03 12.72 4.76 4.76 7.29 11.32 11.56 16.18-16.77 0.94-28.24-7.65-38.15-15.6-1.5-1.21-3.46-2.88-5.2-4.05-1.78-1.19-3.23-3.18-5.78-1.73 0.47 3.38 5.35 5.05 8.67 7.51 9.45 7 19.07 15.9 23.7 28.32-23.15-2.48-38.35-12.9-49.13-27.74-2.93 0.35-5.08 1.47-7.52 2.31 14.88 9.21 28.59 19.58 36.99 35.26-25.79-0.79-42.66-10.52-51.44-28.32-3.45 0.01-4.99 1.94-8.09 2.31 15.34 9.32 28.11 24.29 36.99 38.15-24.65-3.48-43.9-12.36-56.06-28.33-2.15 1.14-3.72 2.84-6.36 3.47 16.39 10.77 32.71 21.62 42.77 38.73-27.09 0.27-46.88-11.67-62.42-24.86-1.96 0.74-3.67 1.73-5.2 2.89 19.43 12.36 41 22.58 49.13 46.24-25.16 0.41-49.86-8.88-64.16-24.27-1.35-1.45-3.72-4.46-6.36-7.52-1.96-2.26-6.1-6.91-6.36-6.93-2.57-0.24-9.75 8.96-10.98 10.4-9.96 11.7-16.69 26.3-22.54 41.04-1.48-4.02-2.95-8.5-4.05-13.29-1.07-4.69-3-11.22-1.73-15.61 0.69-2.37 5.25-5.48 8.09-8.09 7.95-7.3 17.69-16.93 23.7-24.28-10.39-27.64-8.02-71.77 12.14-86.7 7.46 19.33 14.72 41.92 14.45 67.05 2.47 0.36 2.35-1.88 4.62-1.73-1.07-7.74-2.13-15.35-1.73-23.12 1.3-25.31 8.77-49.64 22.54-62.43 4.72 19.3 7.32 45.14 4.62 68.21 2.38 1 5.08-2.62 8.09-2.89-2.98-33.04 5.23-59.38 20.81-75.72 3.95 19.64 2.67 46.7-1.15 65.31 1.98-0.52 3.73-1.27 5.2-2.31-0.74-28.87 7.85-48.4 20.81-63.58 3.81 17.31 0.99 39.89-2.32 55.49 3.27 0.19 4.47-1.7 7.52-1.73-0.72-23.85 3.63-42.61 16.18-53.18 4 14.13 2.86 33.37 0 47.97 1.77-0.35 3.01-1.22 4.63-1.73 1.05-21.87 7.77-41.16 19.65-50.29 0.5 16.5-1.64 30.35-4.05 43.93 1.77 0.42 1.7-0.99 3.47-0.58 2.14-3.98 2.32-8.57 3.46-12.71 3.38-12.15 8.46-23.45 17.35-30.64 1.95 13.71-0.78 27.75-4.63 37.57 2.29-0.21 4.2-0.81 5.78-1.73 1.55-16.37 6.95-28.88 16.76-36.99 0.75 12.5-0.82 22.68-3.46 31.79 1.07 1.04 3.16-1.82 5.2-1.74 0.93-9.86 4.33-18.78 8.67-26 1.17-1.95 2.86-5.41 5.2-5.21 0.29 9.16-0.35 17.37-2.31 24.28 1.18 0.77 3.95-1.8 5.78-2.31-2.05-10.94 2.28-20.43 7.51-26.01 2.33 4.99 3.39 11.25 2.89 19.07 5.24 0.04 2.92-7.31 3.47-12.72 0.56-5.47 2.24-10.57 5.2-12.13 2.1 4.65 3.68 9.8 4.05 16.18 0.58 1.1 2.33-1.47 3.46-1.73-2.51-8.13-0.3-16.84 2.89-22.54 3.6 2.76 4.16 8.55 5.2 13.87 1.55-0.38 2.21-1.66 3.47-2.31-1.64-5.48-3.86-14.58-1.15-20.81 0.76-1.99 4.1 2.73 5.2 4.62 1.5 2.58 2.2 6.2 3.47 8.09 3.96-1.18 1.11-5.45 1.15-8.67 0.06-4.06 1.76-7.57 2.31-10.98 4.53 0.87 5.18 5.61 6.36 9.83 3.77-6.64 7.49-13.32 13.3-17.92" fill-rule="evenodd"/>
<g>
<path d="m29.53 273.72h6.75l12.88 21.8h0.09v-21.8h6.36v32.5h-6.79l-12.85-21.76h-0.08v21.76h-6.36v-32.5z"/>
<path d="m61.53 273.72h23.09v6h-16.3v6.97h14.96v5.55h-14.96v7.97h16.65v6.01h-23.44v-32.5z"/>
<path d="m119.83 306.22h-6.75l-5.23-22.13h-0.08l-5.15 22.13h-6.87l-8.18-32.5h6.79l4.89 22.12h0.08l5.37-22.12h6.35l5.28 22.39h0.09l5.05-22.39h6.66l-8.3 32.5z"/>
<path d="m142.06 300.57 16.56-20.85h-15.27v-6h24.3v5.64l-16.56 20.85h17v6.01h-26.03v-5.65z"/>
<path d="m172.74 273.72h23.09v6h-16.3v6.97h14.96v5.55h-14.96v7.97h16.65v6.01h-23.44v-32.5z"/>
<path d="m209.85 293.65h8l-3.89-11.92h-0.09l-4.02 11.92zm0.65-19.93h6.96l11.55 32.5h-7.05l-2.34-7.24h-11.54l-2.42 7.24h-6.88l11.72-32.5z"/>
<path d="m232.3 273.72h6.79v26.49h15.05v6.01h-21.84v-32.5z"/>
<path d="m267.43 293.65h8l-3.89-11.92h-0.09l-4.02 11.92zm0.65-19.93h6.96l11.55 32.5h-7.05l-2.34-7.24h-11.54l-2.42 7.24h-6.88l11.72-32.5z"/>
<path d="m289.88 273.72h6.75l12.88 21.8h0.09v-21.8h6.35v32.5h-6.78l-12.85-21.76h-0.08v21.76h-6.36v-32.5z"/>
<path d="m329.26 300.21h6.05c3.93 0 7.7-2.55 7.7-9.74 0-6.56-2.17-10.75-8.91-10.75h-4.84v20.49zm-6.79-26.49h13.32c8 0 14 5.28 14 16.06 0 9.43-4.58 16.44-14 16.44h-13.32v-32.5z"/>
<path d="m67.16 319.48h21.7v6h-14.91v7.51h12.93v5.56h-12.93v13.42h-6.79v-32.49z"/>
<path d="m108.93 346.74c6.09 0 8.39-5.46 8.39-10.88 0-5.69-2.3-11.15-8.39-11.15-6.1 0-8.39 5.46-8.39 11.15 0 5.42 2.29 10.88 8.39 10.88m0-28.04c9.55 0 15.17 7.51 15.17 17.16 0 9.38-5.62 16.89-15.17 16.89-9.56 0-15.18-7.51-15.18-16.89 0-9.65 5.62-17.16 15.18-17.16"/>
<path d="m145.51 346.74c6.1 0 8.39-5.46 8.39-10.88 0-5.69-2.29-11.15-8.39-11.15s-8.39 5.46-8.39 11.15c0 5.42 2.29 10.88 8.39 10.88m0-28.04c9.56 0 15.18 7.51 15.18 17.16 0 9.38-5.62 16.89-15.18 16.89-9.55 0-15.18-7.51-15.18-16.89 0-9.65 5.63-17.16 15.18-17.16"/>
<path d="m174.46 325.48h-9.26v-6h25.3v6h-9.25v26.49h-6.79v-26.49z"/>
<path d="m203.65 346.42h7.26c2.68 0 5.02-0.91 5.02-4.28 0-3.32-1.99-4.64-4.89-4.64h-7.39v8.92zm0-13.79h6.88c2.37 0 4.15-1.14 4.15-3.87 0-3.09-2.25-3.73-4.67-3.73h-6.36v7.6zm-6.79-13.15h14.53c5.88 0 9.86 2 9.86 8.05 0 3.19-1.51 5.42-4.2 6.78 3.76 1.14 5.67 4.19 5.67 8.24 0 6.6-5.32 9.42-10.9 9.42h-14.96v-32.49z"/>
<path d="m237.83 339.41h8l-3.89-11.92h-0.09l-4.02 11.92zm0.65-19.93h6.96l11.55 32.49h-7.05l-2.34-7.23h-11.54l-2.42 7.23h-6.88l11.72-32.49z"/>
<path d="m262.92 319.48h6.78v26.48h15.05v6.01h-21.83v-32.49z"/>
<path d="m291.24 319.48h6.79v26.48h15.04v6.01h-21.83v-32.49z"/>
</g>
<path d="m350.55 28.37c4.91 11.19-5.08 20.63-9.83 27.74 3.36 0.69 6.64 1.46 9.25 2.89-1.94 5.29-10.57 2.59-15.61 4.63-2.91 1.18-3.25 3.13-5.2 5.2 2.43 1.03 6.38 0.56 8.67 1.73-3.86 3.46-9 5.65-16.18 5.78-2.2 1.66-3.97 3.74-5.21 6.36 3.85-0.2 7.2-0.9 11.57-0.58-1.94 2.78-3.74 5.02-7.52 6.36-5.7 2.02-13.55-0.56-15.6 4.63 6.26 0.28 10.8 2.29 15.02 4.62-3.1 3.09-9.74 4.63-16.18 4.62-4.84 0-9.38-1.6-10.98 2.89 7.23 2.4 16.08 3.18 19.65 9.25-6.14 1.03-13.84 1.81-20.81 1.16-5.34-0.5-9.99-3.65-13.29-1.74 7.07 4.49 15.4 7.72 19.07 15.61-9.93 2.86-19.9-0.41-26.59-4.63-2.52-1.59-4.76-5.28-8.09-2.89 3.08 3.94 8.15 5.69 11.56 9.25 3.2 3.34 4.67 7.73 7.52 11.56-9.1 1.8-17.54-0.86-24.28-4.05-4.71-2.22-8.42-5.39-12.71-7.51 0.3 2.74 4.58 5.34 7.51 7.51 5.94 4.42 12.65 8.86 15.61 16.77-18.99 1.85-27.95-6.41-38.15-13.87-1.67-1.23-3.51-4.76-6.36-2.32 3.19 4.97 10.19 7.88 15.03 12.72 4.76 4.76 7.29 11.32 11.56 16.18-16.77 0.94-28.24-7.65-38.15-15.6-1.5-1.21-3.46-2.88-5.2-4.05-1.78-1.19-3.23-3.18-5.78-1.73 0.47 3.38 5.35 5.05 8.67 7.51 9.45 7 19.07 15.9 23.7 28.32-23.15-2.48-38.35-12.9-49.13-27.74-2.93 0.35-5.08 1.47-7.52 2.31 14.88 9.21 28.59 19.58 36.99 35.26-25.79-0.79-42.66-10.52-51.44-28.32-3.45 0.01-4.99 1.94-8.09 2.31 15.34 9.32 28.11 24.29 36.99 38.15-24.65-3.48-43.9-12.36-56.06-28.33-2.15 1.14-3.72 2.84-6.36 3.47 16.39 10.77 32.71 21.62 42.77 38.73-27.09 0.27-46.88-11.67-62.42-24.86-1.96 0.74-3.67 1.73-5.2 2.89 19.43 12.36 41 22.58 49.13 46.24-25.16 0.41-49.86-8.88-64.16-24.27-1.35-1.45-3.72-4.46-6.36-7.52-1.96-2.26-6.1-6.91-6.36-6.93-2.57-0.24-9.75 8.96-10.98 10.4-9.96 11.7-16.69 26.3-22.54 41.04-1.48-4.02-2.95-8.5-4.05-13.29-1.07-4.69-3-11.22-1.73-15.61 0.69-2.37 5.25-5.48 8.09-8.09 7.95-7.3 17.69-16.93 23.7-24.28-10.39-27.64-8.02-71.77 12.14-86.7 7.46 19.33 14.72 41.92 14.45 67.05 2.47 0.36 2.35-1.88 4.62-1.73-1.07-7.74-2.13-15.35-1.73-23.12 1.3-25.31 8.77-49.64 22.54-62.43 4.72 19.3 7.32 45.14 4.62 68.21 2.38 1 5.08-2.62 8.09-2.89-2.98-33.04 5.23-59.38 20.81-75.72 3.95 19.64 2.67 46.7-1.15 65.31 1.98-0.52 3.73-1.27 5.2-2.31-0.74-28.87 7.85-48.4 20.81-63.58 3.81 17.31 0.99 39.89-2.32 55.49 3.27 0.19 4.47-1.7 7.52-1.73-0.72-23.85 3.63-42.61 16.18-53.18 4 14.13 2.86 33.37 0 47.97 1.77-0.35 3.01-1.22 4.63-1.73 1.05-21.87 7.77-41.16 19.65-50.29 0.5 16.5-1.64 30.35-4.05 43.93 1.77 0.42 1.7-0.99 3.47-0.58 2.14-3.98 2.32-8.57 3.46-12.71 3.38-12.15 8.46-23.45 17.35-30.64 1.95 13.71-0.78 27.75-4.63 37.57 2.29-0.21 4.2-0.81 5.78-1.73 1.55-16.37 6.95-28.88 16.76-36.99 0.75 12.5-0.82 22.68-3.46 31.79 1.07 1.04 3.16-1.82 5.2-1.74 0.93-9.86 4.33-18.78 8.67-26 1.17-1.95 2.86-5.41 5.2-5.21 0.29 9.16-0.35 17.37-2.31 24.28 1.18 0.77 3.95-1.8 5.78-2.31-2.05-10.94 2.28-20.43 7.51-26.01 2.33 4.99 3.39 11.25 2.89 19.07 5.24 0.04 2.92-7.31 3.47-12.72 0.56-5.47 2.24-10.57 5.2-12.13 2.1 4.65 3.68 9.8 4.05 16.18 0.58 1.1 2.33-1.47 3.46-1.73-2.51-8.13-0.3-16.84 2.89-22.54 3.6 2.76 4.16 8.55 5.2 13.87 1.55-0.38 2.21-1.66 3.47-2.31-1.64-5.48-3.86-14.58-1.15-20.81 0.76-1.99 4.1 2.73 5.2 4.62 1.5 2.58 2.2 6.2 3.47 8.09 3.96-1.18 1.11-5.45 1.15-8.67 0.06-4.06 1.76-7.57 2.31-10.98 4.53 0.87 5.18 5.61 6.36 9.83 3.77-6.64 7.49-13.32 13.3-17.92" fill-rule="evenodd"/>
<g>
<path d="m29.53 273.72h6.75l12.88 21.8h0.09v-21.8h6.36v32.5h-6.79l-12.85-21.76h-0.08v21.76h-6.36v-32.5z"/>
<path d="m61.53 273.72h23.09v6h-16.3v6.97h14.96v5.55h-14.96v7.97h16.65v6.01h-23.44v-32.5z"/>
<path d="m119.83 306.22h-6.75l-5.23-22.13h-0.08l-5.15 22.13h-6.87l-8.18-32.5h6.79l4.89 22.12h0.08l5.37-22.12h6.35l5.28 22.39h0.09l5.05-22.39h6.66l-8.3 32.5z"/>
<path d="m142.06 300.57 16.56-20.85h-15.27v-6h24.3v5.64l-16.56 20.85h17v6.01h-26.03v-5.65z"/>
<path d="m172.74 273.72h23.09v6h-16.3v6.97h14.96v5.55h-14.96v7.97h16.65v6.01h-23.44v-32.5z"/>
<path d="m209.85 293.65h8l-3.89-11.92h-0.09l-4.02 11.92zm0.65-19.93h6.96l11.55 32.5h-7.05l-2.34-7.24h-11.54l-2.42 7.24h-6.88l11.72-32.5z"/>
<path d="m232.3 273.72h6.79v26.49h15.05v6.01h-21.84v-32.5z"/>
<path d="m267.43 293.65h8l-3.89-11.92h-0.09l-4.02 11.92zm0.65-19.93h6.96l11.55 32.5h-7.05l-2.34-7.24h-11.54l-2.42 7.24h-6.88l11.72-32.5z"/>
<path d="m289.88 273.72h6.75l12.88 21.8h0.09v-21.8h6.35v32.5h-6.78l-12.85-21.76h-0.08v21.76h-6.36v-32.5z"/>
<path d="m329.26 300.21h6.05c3.93 0 7.7-2.55 7.7-9.74 0-6.56-2.17-10.75-8.91-10.75h-4.84v20.49zm-6.79-26.49h13.32c8 0 14 5.28 14 16.06 0 9.43-4.58 16.44-14 16.44h-13.32v-32.5z"/>
<path d="m67.16 319.48h21.7v6h-14.91v7.51h12.93v5.56h-12.93v13.42h-6.79v-32.49z"/>
<path d="m108.93 346.74c6.09 0 8.39-5.46 8.39-10.88 0-5.69-2.3-11.15-8.39-11.15-6.1 0-8.39 5.46-8.39 11.15 0 5.42 2.29 10.88 8.39 10.88m0-28.04c9.55 0 15.17 7.51 15.17 17.16 0 9.38-5.62 16.89-15.17 16.89-9.56 0-15.18-7.51-15.18-16.89 0-9.65 5.62-17.16 15.18-17.16"/>
<path d="m145.51 346.74c6.1 0 8.39-5.46 8.39-10.88 0-5.69-2.29-11.15-8.39-11.15s-8.39 5.46-8.39 11.15c0 5.42 2.29 10.88 8.39 10.88m0-28.04c9.56 0 15.18 7.51 15.18 17.16 0 9.38-5.62 16.89-15.18 16.89-9.55 0-15.18-7.51-15.18-16.89 0-9.65 5.63-17.16 15.18-17.16"/>
<path d="m174.46 325.48h-9.26v-6h25.3v6h-9.25v26.49h-6.79v-26.49z"/>
<path d="m203.65 346.42h7.26c2.68 0 5.02-0.91 5.02-4.28 0-3.32-1.99-4.64-4.89-4.64h-7.39v8.92zm0-13.79h6.88c2.37 0 4.15-1.14 4.15-3.87 0-3.09-2.25-3.73-4.67-3.73h-6.36v7.6zm-6.79-13.15h14.53c5.88 0 9.86 2 9.86 8.05 0 3.19-1.51 5.42-4.2 6.78 3.76 1.14 5.67 4.19 5.67 8.24 0 6.6-5.32 9.42-10.9 9.42h-14.96v-32.49z"/>
<path d="m237.83 339.41h8l-3.89-11.92h-0.09l-4.02 11.92zm0.65-19.93h6.96l11.55 32.49h-7.05l-2.34-7.23h-11.54l-2.42 7.23h-6.88l11.72-32.49z"/>
<path d="m262.92 319.48h6.78v26.48h15.05v6.01h-21.83v-32.49z"/>
<path d="m291.24 319.48h6.79v26.48h15.04v6.01h-21.83v-32.49z"/>
</g>
</g>
</svg>
