<?xml version="1.0" encoding="utf-8"?>
<!-- Generator: Adobe Illustrator 13.0.0, SVG Export Plug-In . SVG Version: 6.00 Build 14948)  -->
<!DOCTYPE svg PUBLIC "-//W3C//DTD SVG 1.0//EN" "http://www.w3.org/TR/2001/REC-SVG-20010904/DTD/svg10.dtd">
<svg version="1.0" id="HQFL" xmlns="http://www.w3.org/2000/svg" xmlns:xlink="http://www.w3.org/1999/xlink" x="0px" y="0px"
	 width="400.21px" height="305.104px" viewBox="0 0 400.21 305.104" enable-background="new 0 0 400.21 305.104"
	 xml:space="preserve">
<path d="M161.489,124.604c0-32.855,13.431-62.715,35.128-84.36c2.045-2.05,4.166-4.027,6.355-5.926
	C181.492,13.122,152.008,0,119.541,0C86.634,0,56.774,13.432,35.077,35.077C13.431,56.774,0,86.634,0,119.49
	c0,32.753,13.431,62.56,35.128,84.206c21.646,21.594,51.505,35.025,84.412,35.025c29.864,0,57.097-10.984,77.936-29.072
	c-0.285-0.28-0.576-0.556-0.858-0.839C174.973,187.217,161.489,157.356,161.489,124.604z"/>
<path fill="#FFD500" d="M365.236,40.192c-21.595-21.646-51.402-35.077-84.257-35.077c-29.791,0-57.083,11.051-78.006,29.203
	c-2.189,1.899-4.31,3.875-6.355,5.926c-21.697,21.646-35.128,51.505-35.128,84.36c0,32.752,13.483,62.613,35.128,84.206
	c0.283,0.283,0.573,0.559,0.858,0.839c21.575,21.148,51.076,34.187,83.503,34.187c32.958,0,62.714-13.38,84.257-34.923
	c21.646-21.594,34.974-51.505,34.974-84.309C400.21,91.749,386.829,61.889,365.236,40.192z"/>
<path fill="#FFFFFF" d="M29.136,190.78c0,0.052,0,0.104,0,0.156c0.93,1.188,1.911,2.324,2.893,3.513H75.32
	c-0.465-1.189-0.93-2.429-1.343-3.669H29.136z"/>
<path fill="#FFFFFF" d="M192.434,30.222c-6.716-5.476-14.052-10.281-21.904-14.155h-7.026c2.687,4.959,5.734,10.125,8.472,14.155
	H192.434z"/>
<path fill="#FFFFFF" d="M190.832,46.391c1.86-2.118,3.771-4.184,5.786-6.147c1.085-1.137,2.169-2.17,3.306-3.254
	c-1.084-1.034-2.118-2.067-3.255-3.1h-19.682c1.55,1.188,3.151,2.48,4.752,3.823C184.995,40.501,188.197,43.55,190.832,46.391z"/>
<path fill="#FFFFFF" d="M122.744,48.096v-0.671C108.537,35.232,99.91,34.406,80.331,33.993c-3.616,1.602-7.698,4.081-11.83,6.922
	c-3.1,2.221-6.251,4.649-9.195,7.181H122.744z"/>
<path fill="#FFFFFF" d="M187.422,48.096c-2.428-2.531-5.218-5.166-8.06-7.594c-2.737-2.325-5.476-4.495-7.956-6.199
	c-16.375-1.034-36.988,7.077-44.996,13.38v0.413H187.422z"/>
<path fill="#FFFFFF" d="M122.538,65.918l0.155-14.155H55.276c-0.981,0.93-1.911,1.808-2.841,2.738
	c-1.55,3.461-2.893,7.284-3.771,11.417H122.538z"/>
<path fill="#FFFFFF" d="M177.039,65.918c2.79-4.959,5.94-9.712,9.454-14.155H126.36l-0.155,14.155H177.039z"/>
<path fill="#FFFFFF" d="M122.434,76.767l0.052-7.181H47.992c-0.62,4.443-0.775,9.247-0.155,14.206h63.593
	C115.253,81.313,119.024,78.937,122.434,76.767z"/>
<path fill="#FFFFFF" d="M168.721,83.792c1.809-4.907,3.927-9.66,6.303-14.206h-48.87l-0.052,7.077
	c3.565,2.17,7.439,4.546,11.469,7.129H168.721z"/>
<path fill="#FFFFFF" d="M49.439,97.947c-1.188,1.085-2.48,2.325-3.875,3.668h16.427C57.807,100.427,53.623,99.188,49.439,97.947z"/>
<path fill="#FFFFFF" d="M105.748,87.409H48.405c0.413,2.273,0.981,4.598,1.705,6.922c5.476,1.653,11.004,3.255,16.531,4.805
	c2.893,0.878,5.786,1.705,8.627,2.479h9.454C90.612,97.328,98.206,92.317,105.748,87.409z"/>
<path fill="#FFFFFF" d="M163.762,101.615c0.93-4.855,2.169-9.557,3.719-14.207h-24.28c7.026,4.649,14.207,9.557,20.509,14.207
	H163.762z"/>
<path fill="#FFFFFF" d="M83.896,119.386c-1.137-4.132-2.169-8.369-3.048-12.398c-2.066-0.568-4.081-1.136-6.096-1.705H41.896
	c-4.236,4.288-8.833,9.247-13.173,14.103H83.896z"/>
<path fill="#FFFFFF" d="M162.16,137.261c-0.31-3.151-0.516-6.354-0.62-9.609c-0.93,3.203-1.86,6.458-2.842,9.609H162.16z"/>
<path fill="#FFFFFF" d="M95.158,154.98c-1.498-4.185-3.152-8.989-4.805-14.052H20.922c0.258,4.133,0.774,8.472,1.653,12.812
	c0.103,0.414,0.207,0.878,0.31,1.343h72.169C95.105,155.032,95.105,155.032,95.158,154.98z"/>
<path fill="#FFFFFF" d="M165.518,155.083c-1.24-4.597-2.221-9.35-2.892-14.154h-5.114c-1.706,5.321-3.411,10.28-4.959,14.154
	H165.518z"/>
<path fill="#FFFFFF" d="M78.471,172.958c4.288-4.751,8.782-9.66,13.07-14.206H23.763c1.395,5.011,3.254,9.815,5.734,14.206H78.471z"
	/>
<path fill="#FFFFFF" d="M159.112,172.958c-3.048-4.804-6.147-9.66-9.144-14.206H96.604c-4.287,4.442-8.782,9.35-13.224,14.206
	H159.112z"/>
<path fill="#FFFFFF" d="M171.821,172.958c-2.015-4.597-3.823-9.35-5.269-14.206H154.36c2.996,4.649,6.096,9.454,9.04,14.206H171.821
	z"/>
<path fill="#FFFFFF" d="M167.016,185.563c-0.723-1.137-1.446-2.273-2.117-3.41v0.052c-1.137-1.859-2.325-3.719-3.514-5.631H80.073
	c-1.498,1.705-2.996,3.306-4.442,4.908c0.723,3.306,1.601,6.406,2.635,9.298h85.962
	C165.157,189.128,166.086,187.422,167.016,185.563z"/>
<path fill="#FFFFFF" d="M175.799,180.913c-0.775-1.446-1.55-2.84-2.273-4.339h-7.8c0.775,1.24,1.498,2.479,2.273,3.667l0,0
	c0.568,0.982,1.188,1.912,1.756,2.791C171.718,182.773,173.732,181.999,175.799,180.913z"/>
<path fill="#FFFFFF" d="M149.711,208.655c4.235-3.823,8.42-8.369,12.243-14.206H79.711c2.273,5.372,5.114,10.073,8.421,14.206
	H149.711z"/>
<path fill="#FFFFFF" d="M137.054,218.264c2.738-1.86,5.527-3.771,8.317-5.993H91.334c1.396,1.498,2.894,2.944,4.443,4.288
	c5.27,3.512,12.502,5.58,20.25,5.785C123.054,222.552,130.441,221.26,137.054,218.264z"/>
<path fill="#FFFFFF" d="M143.149,226.478c-1.912-1.447-4.03-2.842-6.25-4.185c-6.716,2.738-14.052,3.926-20.975,3.72
	c-7.284-0.207-14.257-1.963-19.785-4.959c-2.738,1.343-6.096,3.1-9.712,5.424H143.149z"/>
<path fill="#FFFFFF" d="M87.512,230.146c10.177,2.944,20.922,4.494,32.029,4.494c10.126,0,19.941-1.292,29.292-3.719
	c-0.31-0.258-0.62-0.517-0.982-0.774H87.512z"/>
<path fill="#FFFFFF" d="M19.373,176.574c1.912,3.358,3.978,6.561,6.25,9.66c0.414-3.563,0.982-6.974,1.446-9.66H19.373z"/>
<path fill="#FFFFFF" d="M11.055,158.752c1.756,4.907,3.874,9.608,6.302,14.206h7.956c-2.273-4.442-4.029-9.298-5.321-14.206H11.055z
	"/>
<path fill="#FFFFFF" d="M6.096,140.929c0.93,4.804,2.169,9.558,3.667,14.154h9.402c-0.052-0.206-0.104-0.412-0.155-0.62
	c-0.93-4.598-1.498-9.195-1.756-13.535H6.096z"/>
<path fill="#FFFFFF" d="M20.716,137.261h68.449c-1.446-4.598-2.893-9.402-4.288-14.206H25.52c-1.601,1.911-3.151,3.771-4.597,5.579
	C20.716,131.268,20.664,134.162,20.716,137.261z"/>
<path fill="#FFFFFF" d="M4.133,123.055c0.155,4.804,0.62,9.557,1.343,14.206H17.1c-0.104-3.513,0-6.819,0.207-9.815
	c-0.827-1.498-1.654-2.996-2.479-4.391H4.133z"/>
<path fill="#FFFFFF" d="M42.257,33.889c-1.446,1.343-2.893,2.687-4.288,4.082c-3.203,3.203-6.199,6.561-8.989,10.125h24.848
	c3.875-3.616,8.214-7.129,12.605-10.177c2.067-1.447,4.133-2.79,6.199-4.03H42.257z"/>
<path fill="#FFFFFF" d="M68.449,16.066c-7.852,3.875-15.239,8.679-21.955,14.155h33.321c0.258-0.104,0.517-0.207,0.826-0.31
	c3.927-3.875,8.576-8.782,12.501-13.845H68.449z"/>
<path fill="#FFFFFF" d="M100.014,5.734C91.903,7.129,84.05,9.402,76.56,12.399h19.321C97.482,10.126,98.929,7.904,100.014,5.734z"/>
<path fill="#FFFFFF" d="M4.546,109.003c-0.311,3.461-0.465,6.922-0.465,10.383h8.524C10.229,115.719,7.697,112.257,4.546,109.003z"
	/>
<path fill="#FFFFFF" d="M26.191,51.764c-2.066,2.841-4.03,5.786-5.837,8.833c8.472-2.273,18.494-5.217,28.361-8.833H26.191z"/>
<path fill="#FFFFFF" d="M17.357,119.386c0.724,1.188,1.447,2.429,2.118,3.668h0.723c1.034-1.188,2.067-2.428,3.152-3.668H17.357z"/>
<path fill="#FFFFFF" d="M43.911,69.586c0.155-1.24,0.361-2.479,0.619-3.668H17.357c-0.671,1.24-1.291,2.428-1.859,3.668H43.911z"/>
<path fill="#FFFFFF" d="M44.272,87.409c-0.207-1.188-0.414-2.428-0.517-3.616H9.763c-0.414,1.188-0.775,2.428-1.137,3.616H44.272z"
	/>
<path fill="#FFFFFF" d="M5.114,103.888c0.517,0.466,0.981,0.931,1.446,1.396h29.653c1.24-1.292,2.428-2.48,3.564-3.668H5.476
	C5.372,102.391,5.217,103.114,5.114,103.888z"/>
<path fill="#FFFFFF" d="M158.906,16.066c-0.671-1.24-1.343-2.479-1.911-3.667h-56.207c-0.103,0.207-0.258,0.413-0.361,0.62
	c-0.723,0.981-1.395,2.015-2.17,3.048H158.906z"/>
<path fill="#FFFFFF" d="M89.991,30.222c5.321,0.31,9.867,0.878,14.258,2.014c1.653,0.465,3.307,1.033,4.908,1.653h36.833
	c0.672-0.207,1.343-0.413,2.015-0.62c5.631-1.601,11.572-2.738,17.357-3.047H89.991z"/>
<path fill="#FFFFFF" d="M135.71,87.409c-1.963-1.24-3.875-2.479-5.786-3.616h-10.953c-1.859,1.188-3.771,2.376-5.682,3.616H135.71z"
	/>
<path fill="#FFFFFF" d="M161.799,105.284c-1.602-1.188-3.306-2.428-5.011-3.668h-65.04c-1.86,1.292-3.564,2.48-5.166,3.668H161.799z
	"/>
<path fill="#FFFFFF" d="M158.648,123.055c0.361-1.24,0.671-2.428,1.033-3.668H88.08c0.361,1.24,0.672,2.48,1.034,3.668H158.648z"/>
<path fill="#FFFFFF" d="M153.275,140.929c0.362-1.24,0.775-2.428,1.137-3.668H93.453c0.362,1.24,0.775,2.428,1.188,3.668H153.275z"
	/>
<path fill="#FFFFFF" d="M85.91,212.271c-0.981-1.188-1.962-2.376-2.841-3.617H46.649c1.549,1.24,3.1,2.428,4.701,3.617H85.91z"/>
<path fill="#FFFFFF" d="M72.685,179.312c0.827-0.878,1.653-1.809,2.48-2.738H39.727C50.213,178.847,62.405,179.364,72.685,179.312z"
	/>
<path fill="#FFFFFF" d="M168.876,190.78c-0.672,1.292-1.395,2.48-2.118,3.669h17.564c-0.878-1.189-1.756-2.429-2.583-3.669H168.876z
	"/>
<path fill="#FFFFFF" d="M155.6,208.655c-0.362,0.362-0.775,0.774-1.188,1.136c-0.878,0.879-1.757,1.706-2.687,2.48h35.956
	c1.601-1.188,3.203-2.376,4.701-3.617H155.6z"/>
<path fill="#FFFFFF" d="M149.813,226.478c0.052,0.051,0.155,0.103,0.207,0.155c1.239,1.033,2.428,2.015,3.461,2.944
	c2.944-0.929,5.889-1.962,8.73-3.099H149.813z"/>
<path fill="#FFFFFF" d="M363.168,140.929c0.982-1.188,2.067-2.428,3.101-3.668h-25.417c0.258,0.62,0.414,1.24,0.465,1.963
	c0.052,0.62,0.052,1.188,0,1.705H363.168z"/>
<path fill="#FFFFFF" d="M207.052,208.655c-0.928,2.015-0.361,3.203,0.723,3.617h22.731c1.344-0.208,2.584-0.414,3.151-0.465
	c1.963-1.085,1.034-2.066,2.324-2.893c0.156-0.103,0.311-0.207,0.466-0.258H207.052z"/>
<path fill="#FFFFFF" d="M195.895,190.78c-0.207,0.672-0.362,1.396-0.569,2.273c0.414,0.465,0.827,0.93,1.24,1.396h110.139
	c0.052-0.052,0.103-0.104,0.155-0.156c1.705-1.084,3.41-2.273,5.167-3.513H195.895z"/>
<path fill="#FFFFFF" d="M195.533,172.958c0.413,1.24,0.878,2.481,1.292,3.617H329.59c1.343-1.188,2.687-2.376,3.978-3.617H195.533z"
	/>
<path fill="#FFFFFF" d="M189.695,155.083c0.414,1.188,0.827,2.429,1.24,3.669h156.27c0.414-0.465,0.775-0.931,1.189-1.396
	c0.619-0.774,1.292-1.498,1.911-2.273H189.695z"/>
<path fill="#FFFFFF" d="M177.607,137.261c0.258,0.878,0.568,1.808,0.93,2.79c0.155,0.361,0.31,0.62,0.465,0.878h143.356
	c-0.362-0.878-0.671-1.756-0.723-2.583c-0.052-0.413-0.104-0.775-0.104-1.085H177.607z"/>
<path fill="#FFFFFF" d="M213.82,119.386c-0.154,1.24-0.362,2.48-0.516,3.668h163.658c0.879-1.292,1.705-2.48,2.377-3.668H213.82z"/>
<path fill="#FFFFFF" d="M231.488,105.284c-0.619-0.982-1.24-2.222-1.963-3.668h-13.07c0,0.775,0,1.55-0.155,2.428
	c-0.052,0.413-0.104,0.827-0.156,1.24H231.488z"/>
<path fill="#FFFFFF" d="M372.313,69.586c0-0.361,0.052-0.724,0.104-1.033c0.052-0.878,0.052-1.705,0.052-2.635h-63.077
	c-0.981,1.188-1.911,2.428-2.842,3.668H372.313z"/>
<path fill="#FFFFFF" d="M371.176,87.409c0.156-0.723,0.311-1.446,0.413-2.169c0.104-0.62,0-1.033-0.155-1.447h-76.456
	c-1.499,1.188-3.101,2.376-4.546,3.616H371.176z"/>
<path fill="#FFFFFF" d="M361.516,105.284c-0.567-1.188-0.93-2.428-1.187-3.668H245.125c-0.517,1.396-0.671,2.635-0.981,3.668
	H361.516z"/>
<path fill="#FFFFFF" d="M374.379,101.615c-0.206,0.414-0.361,0.878-0.517,1.396c-0.258,0.723-0.465,1.498-0.671,2.273h7.077
	c-0.723-1.24-1.601-2.428-2.427-3.668H374.379z"/>
<path fill="#FFFFFF" d="M234.794,230.146c14.156,6.199,29.809,9.659,46.185,9.659c16.427,0,32.08-3.46,46.235-9.659H234.794z"/>
<path fill="#FFFFFF" d="M206.329,212.271c6.407,5.476,13.433,10.229,20.923,14.207h107.503c7.491-3.978,14.465-8.731,20.872-14.207
	H230.506c-1.757,0.31-3.668,0.567-4.752,0.62c-2.015,0.052-5.269,4.804-7.18,4.702c-2.222-0.104-2.222-1.395-4.494-1.241
	c-2.171,0.155-3.824-3.978-5.116-3.926c-0.413,0.051-0.826,0-1.188-0.155H206.329z"/>
<path fill="#FFFFFF" d="M236.448,208.655h123.26c0.877-0.878,1.807-1.704,2.634-2.583c3.668-3.667,7.078-7.543,10.177-11.623
	h-65.815c-8.266,5.372-14,9.04-20.354,10.229c-7.748,1.446-16.118-0.311-26.037-0.156
	C244.661,204.729,241.666,205.401,236.448,208.655z"/>
<path fill="#FFFFFF" d="M189.385,194.449c3.099,4.029,6.509,7.903,10.074,11.52c0.878,0.878,1.807,1.808,2.738,2.686h4.855
	c0.052-0.103,0.052-0.154,0.104-0.258c-3.462-3.667-5.115-7.491-10.59-13.948H189.385z"/>
<path fill="#FFFFFF" d="M312.026,190.78h63.18c3.15-4.494,6.043-9.247,8.523-14.206h-54.14
	C323.701,181.896,317.656,186.751,312.026,190.78z"/>
<path fill="#FFFFFF" d="M178.072,176.574c2.531,4.959,5.424,9.712,8.627,14.206h9.196c1.188-3.822,2.376-5.683,2.376-10.796
	c-0.517-1.085-0.982-2.223-1.446-3.41H178.072z"/>
<path fill="#FFFFFF" d="M333.568,172.958h51.969c2.119-4.597,3.927-9.35,5.477-14.206h-43.809
	C343.074,163.556,338.424,168.36,333.568,172.958z"/>
<path fill="#FFFFFF" d="M170.788,158.752c1.549,4.855,3.358,9.608,5.527,14.206h19.218c-1.602-4.597-3.048-9.66-4.597-14.206
	H170.788z"/>
<path fill="#FFFFFF" d="M341.317,140.929h-18.959c0.465,1.085,1.086,2.17,1.653,3.307c0.775,1.602,1.24,3.461,2.015,4.39
	c1.859,2.119,3.408,4.754,5.786,4.754c2.635,0,5.321-4.082,7.181-6.975C340.077,144.906,341.163,143.46,341.317,140.929z"/>
<path fill="#FFFFFF" d="M350.306,155.083h41.74c1.292-4.597,2.273-9.35,2.945-14.154h-31.823
	C358.829,145.837,354.698,150.073,350.306,155.083z"/>
<path fill="#FFFFFF" d="M166.758,140.929c0.671,4.804,1.653,9.558,2.944,14.154h19.993c-0.982-2.737-2.015-5.217-3.151-7.128
	c-3.358-5.838-6.147-5.27-7.542-7.026H166.758z"/>
<path fill="#FFFFFF" d="M366.27,137.261h29.187c0.466-4.185,0.723-8.369,0.723-12.657c0-0.516,0-1.033-0.05-1.549h-19.167
	c-1.549,2.221-3.358,4.649-5.424,7.491C369.73,132.973,367.973,135.194,366.27,137.261z"/>
<path fill="#FFFFFF" d="M321.531,137.261h19.321c-1.032-2.479-3.462-4.03-5.373-5.94c-1.808-2.118-2.583-4.805-5.217-4.547
	c-2.634,0.517-4.804,2.945-6.613,5.012C322.462,133.283,321.376,134.574,321.531,137.261z"/>
<path fill="#FFFFFF" d="M165.57,123.055c0,0.516,0,1.033,0,1.549c0,4.288,0.258,8.472,0.723,12.657h11.314
	c-0.155-0.414-0.258-0.774-0.311-1.188c3.152-3.719,19.89-5.683,35.129-1.24c0-3.875,0.361-7.801,0.879-11.778H165.57z"/>
<path fill="#FFFFFF" d="M237.532,105.284h-6.044c0.724,1.084,1.395,1.756,1.963,1.808
	C234.536,105.955,235.93,105.387,237.532,105.284z"/>
<path fill="#FFFFFF" d="M244.144,105.284h-5.424c1.499,0.103,3.1,0.516,4.752,1.291C243.783,106.213,243.99,105.749,244.144,105.284
	z"/>
<path fill="#FFFFFF" d="M373.191,105.284h-11.676c1.55,3.306,4.392,6.25,8.422,6.974
	C371.589,111.431,372.417,108.28,373.191,105.284z"/>
<path fill="#FFFFFF" d="M379.34,119.386h16.685c-0.207-4.752-0.723-9.453-1.497-14.103h-14.26c0.981,1.653,1.706,3.409,1.859,5.63
	C382.231,113.652,381.25,116.338,379.34,119.386z"/>
<path fill="#FFFFFF" d="M167.223,105.284c-0.775,4.649-1.292,9.35-1.549,14.103h48.146c0.775-4.701,1.653-9.453,2.324-14.103
	H167.223z"/>
<path fill="#FFFFFF" d="M360.329,101.615h14.05c0.724-1.601,1.601-2.686,1.601-3.048c0.569,1.137,1.189,2.118,1.861,3.048h16.014
	c-0.981-4.855-2.272-9.557-3.875-14.207h-18.804c-0.465,2.376-0.98,4.649-1.395,5.993c-3.668,1.343-4.907-2.066-8.731,2.118
	C360.173,97.069,359.915,99.291,360.329,101.615z"/>
<path fill="#FFFFFF" d="M229.525,101.615h15.601c0.156-0.465,0.311-0.93,0.569-1.446c1.292-2.738,4.081-5.838,7.646-8.73
	c3.307-2.635,7.336-4.03,10.642-3.926c6.303,0.207,9.093,7.181,17.151,7.129c2.324-0.052,6.509-4.133,8.575-6.561
	c0.206-0.207,0.466-0.413,0.725-0.672H222.24C224.875,91.232,227.355,97.225,229.525,101.615z"/>
<path fill="#FFFFFF" d="M171.769,87.409c-1.601,4.649-2.893,9.351-3.874,14.207h48.56c-0.103-3.513-1.239-6.354,0.414-14.207
	H171.769z"/>
<path fill="#FFFFFF" d="M371.435,83.792h17.255c-1.861-4.907-4.03-9.66-6.511-14.206h-9.867c-0.463,4.185-1.497,7.904-1.755,10.952
	C370.401,82.14,371.074,82.863,371.435,83.792z"/>
<path fill="#FFFFFF" d="M372.468,65.918h7.646c-2.996-4.959-6.303-9.712-9.918-14.155h-0.57
	C371.28,56.568,372.364,61.527,372.468,65.918z"/>
<path fill="#FFFFFF" d="M191.658,51.764c-3.667,4.442-6.974,9.195-9.919,14.155h127.652c4.029-5.011,8.11-9.247,12.966-12.398
	c1.034-0.62,2.014-1.24,3.048-1.756H191.658z"/>
<path fill="#FFFFFF" d="M209.791,33.889c-3.616,2.893-7.078,5.941-10.383,9.196c-1.55,1.653-3.1,3.306-4.65,5.011h142.065
	c5.113-1.033,10.332-2.687,18.185-2.118c2.168,0.207,6.043,0.672,8.369-0.465c0.826,0.31,1.549,0.62,2.222,0.982
	c-1.034-1.188-2.119-2.325-3.255-3.41c-3.255-3.255-6.664-6.354-10.28-9.196H209.791z"/>
<path fill="#FFFFFF" d="M241.872,16.066c-9.712,3.513-18.856,8.317-27.173,14.155h132.456c-8.266-5.838-17.41-10.643-27.121-14.155
	H241.872z"/>
<path fill="#FFFFFF" d="M280.979,9.196c-9.3,0-18.34,1.137-26.968,3.203h53.934C299.266,10.333,290.277,9.196,280.979,9.196z"/>
<path fill="#FFFFFF" d="M367.095,48.096c0.723,0.878,1.499,1.756,2.273,2.635c0,0.052,0,0.103,0,0.155
	c0.103,0.259,0.155,0.569,0.257,0.878h-44.22c2.738-1.55,5.683-2.687,9.816-3.358c0.515-0.103,1.084-0.207,1.601-0.31H367.095z"/>
<path fill="#FFFFFF" d="M179.622,69.586c-2.48,4.546-4.649,9.299-6.561,14.206h121.918c1.446-1.188,2.839-2.428,3.925-3.874
	c2.687-3.668,5.219-7.129,7.646-10.332H179.622z"/>
<path fill="#FFFFFF" d="M222.24,87.409c-1.499-2.169-2.996-3.616-4.494-3.616c-0.361,1.343-0.671,2.532-0.878,3.616H222.24z"/>
<path fill="#FFFFFF" d="M238.72,105.284c-0.413-0.052-0.827-0.052-1.188,0H238.72z"/>
<polygon points="342.763,287.023 347,287.023 354.852,297.975 354.852,287.023 359.087,287.023 359.087,304.639 354.904,304.639 
	347,293.636 347,304.639 342.763,304.639 "/>
<path d="M330.881,286.61c1.448,0,2.738,0.156,3.926,0.568c1.189,0.414,2.222,1.085,3.049,1.912c0.878,0.827,1.549,1.808,1.963,2.945
	c0.465,1.136,0.671,2.375,0.671,3.823c0,1.395-0.207,2.687-0.671,3.771c-0.414,1.136-1.085,2.117-1.963,2.996
	c-0.827,0.827-1.859,1.446-3.049,1.859c-1.188,0.414-2.479,0.62-3.926,0.62c-1.497,0-2.789-0.207-3.978-0.62
	c-1.188-0.414-2.222-1.033-3.047-1.859l0,0c-0.879-0.827-1.55-1.808-1.963-2.996c-0.413-1.085-0.671-2.377-0.671-3.771
	c0-1.447,0.258-2.687,0.671-3.823c0.413-1.137,1.084-2.118,1.963-2.996l0,0c0.826-0.827,1.859-1.447,3.047-1.861
	C328.092,286.766,329.384,286.61,330.881,286.61z M330.881,290.175c-0.878,0-1.601,0.103-2.221,0.361
	c-0.619,0.258-1.189,0.62-1.653,1.085l0,0c-0.414,0.516-0.775,1.085-1.034,1.756c-0.206,0.723-0.31,1.55-0.31,2.48
	c0,0.878,0.104,1.704,0.31,2.427c0.259,0.672,0.62,1.24,1.034,1.757c0.463,0.465,1.034,0.827,1.653,1.085
	c0.62,0.258,1.343,0.362,2.221,0.362c0.827,0,1.55-0.104,2.222-0.362c0.621-0.258,1.137-0.62,1.601-1.085
	c0.466-0.517,0.775-1.084,1.034-1.757c0.208-0.723,0.362-1.549,0.362-2.427c0-0.93-0.154-1.757-0.362-2.48
	c-0.258-0.671-0.567-1.24-1.034-1.756c-0.463-0.465-0.98-0.827-1.601-1.085C332.432,290.278,331.708,290.175,330.881,290.175z"/>
<rect x="314.505" y="287.023" width="4.341" height="17.615"/>
<polygon points="297.097,287.023 313.006,287.023 313.006,290.64 307.222,290.64 307.222,304.639 302.935,304.639 302.935,290.64 
	297.097,290.64 "/>
<path d="M287.28,287.023h4.339l7.388,17.615h-4.65l-1.705-4.235h-6.458l-1.653,4.235h-4.598L287.28,287.023z M289.45,292.035
	l-1.911,4.855h3.823L289.45,292.035z"/>
<rect x="274.676" y="287.023" width="4.39" height="17.615"/>
<path d="M272.402,293.377h-4.237c-0.103-0.568-0.205-1.137-0.516-1.602c-0.465-0.723-1.292-1.136-2.067-1.343
	c-0.516-0.104-1.084-0.207-1.705-0.207c-0.826,0-1.549,0.155-2.169,0.361c-0.567,0.259-1.084,0.568-1.497,1.034h-0.052
	c-0.413,0.466-0.723,1.033-0.93,1.705c-0.258,0.723-0.361,1.498-0.361,2.376c0,0.931,0.103,1.756,0.361,2.479
	c0.207,0.672,0.517,1.239,0.982,1.757l0,0c0.413,0.465,0.93,0.827,1.549,1.084c0.621,0.259,1.292,0.362,2.067,0.362
	c1.55,0,3.202-0.516,3.926-1.963c0.361-0.619,0.412-1.239,0.463-1.911h4.237c-0.052,1.239-0.155,2.324-0.724,3.461
	c-0.465,0.827-1.084,1.55-1.911,2.222l0,0c-1.757,1.343-3.927,1.912-6.096,1.912c-2.531,0-4.959-0.672-6.768-2.479
	c-1.808-1.86-2.48-4.288-2.48-6.768c0-2.531,0.672-5.011,2.532-6.819c1.861-1.809,4.392-2.429,6.922-2.429
	c2.428,0,4.339,0.518,5.838,1.55c0.775,0.568,1.342,1.241,1.807,1.963C272.144,291.156,272.3,292.189,272.402,293.377z"/>
<path d="M243.37,286.61c1.447,0,2.789,0.156,3.925,0.568c1.188,0.414,2.222,1.085,3.1,1.912c0.827,0.827,1.498,1.808,1.963,2.945
	c0.415,1.136,0.62,2.375,0.62,3.823c0,1.395-0.205,2.687-0.67,3.771c-0.415,1.136-1.085,2.117-1.913,2.996
	c-0.878,0.827-1.912,1.446-3.1,1.859s-2.479,0.62-3.925,0.62c-1.446,0-2.791-0.207-3.979-0.62s-2.169-1.033-3.047-1.859l0,0
	c-0.878-0.827-1.55-1.808-1.963-2.996c-0.414-1.085-0.671-2.377-0.671-3.771c0-1.447,0.257-2.687,0.671-3.823
	c0.413-1.137,1.085-2.118,1.963-2.996l0,0c0.878-0.827,1.859-1.447,3.047-1.861C240.58,286.766,241.924,286.61,243.37,286.61z
	 M243.37,290.175c-0.827,0-1.601,0.103-2.222,0.361c-0.621,0.258-1.188,0.62-1.601,1.085l0,0c-0.465,0.516-0.827,1.085-1.033,1.756
	c-0.259,0.723-0.362,1.55-0.362,2.48c0,0.878,0.104,1.704,0.362,2.427c0.206,0.672,0.568,1.24,1.033,1.757
	c0.413,0.465,0.98,0.827,1.601,1.085c0.621,0.258,1.395,0.362,2.222,0.362c0.826,0,1.549-0.104,2.222-0.362
	c0.62-0.258,1.136-0.62,1.601-1.085c0.465-0.517,0.775-1.084,1.034-1.757c0.205-0.723,0.361-1.549,0.361-2.427
	c0-0.93-0.156-1.757-0.361-2.48c-0.258-0.671-0.569-1.24-1.034-1.756c-0.465-0.465-0.981-0.827-1.601-1.085
	C244.971,290.278,244.196,290.175,243.37,290.175z"/>
<path d="M186.647,287.023h4.339l7.439,17.615h-4.701l-1.653-4.235h-6.509l-1.653,4.235h-4.547L186.647,287.023z M188.817,292.035
	l-1.912,4.855h3.823L188.817,292.035z"/>
<polygon points="155.548,287.023 159.887,287.023 159.887,300.92 169.187,300.92 169.187,304.639 155.548,304.639 "/>
<polygon points="140.722,287.023 145.061,287.023 145.061,300.92 154.308,300.92 154.308,304.639 140.722,304.639 "/>
<path d="M128.22,287.023h4.288l7.439,17.615h-4.701l-1.654-4.235h-6.509l-1.602,4.235h-4.598L128.22,287.023z M130.338,292.035
	l-1.912,4.855h3.823L130.338,292.035z"/>
<path d="M105.024,287.023h8.73c1.033,0,1.963,0.104,2.738,0.258c0.775,0.207,1.499,0.465,2.015,0.878
	c0.568,0.414,1.033,0.93,1.291,1.55c0.31,0.568,0.466,1.291,0.466,2.066c0,0.465-0.104,0.878-0.207,1.292
	c-0.155,0.413-0.31,0.774-0.568,1.136l0,0c-0.258,0.31-0.517,0.62-0.878,0.878c0.104,0,0.156,0.052,0.258,0.104
	c0.465,0.258,0.878,0.62,1.188,1.034l0,0c0.31,0.361,0.568,0.826,0.724,1.342c0.155,0.465,0.258,1.034,0.258,1.602
	c0,0.827-0.156,1.602-0.517,2.273c-0.31,0.671-0.826,1.292-1.498,1.757l0,0c-0.62,0.516-1.395,0.826-2.273,1.084
	c-0.827,0.259-1.808,0.361-2.893,0.361h-8.834V287.023z M109.312,290.536v3.151h3.823c0.516,0,0.981-0.052,1.395-0.155l0,0
	c0.362-0.052,0.621-0.155,0.826-0.31l0,0c0.156-0.104,0.311-0.259,0.414-0.465c0.104-0.207,0.104-0.465,0.104-0.774
	c0-0.258,0-0.466-0.104-0.62c-0.103-0.155-0.207-0.31-0.414-0.413c-0.206-0.156-0.464-0.259-0.826-0.31
	c-0.361-0.104-0.775-0.104-1.291-0.104H109.312z M109.312,297.148v3.823h4.288c0.568,0,1.033-0.051,1.446-0.103
	c0.362-0.103,0.672-0.258,0.93-0.413c0.206-0.155,0.361-0.31,0.465-0.568c0.103-0.207,0.155-0.517,0.155-0.878
	c0-0.311-0.052-0.62-0.155-0.827c-0.104-0.258-0.259-0.413-0.465-0.568l0,0c-0.258-0.155-0.568-0.258-0.982-0.362
	c-0.413-0.104-0.93-0.104-1.549-0.104H109.312z"/>
<polygon points="87.718,287.023 103.63,287.023 103.63,290.64 97.895,290.64 97.895,304.639 93.556,304.639 93.556,290.64 
	87.718,290.64 "/>
<path d="M77.593,286.61c1.447,0,2.738,0.156,3.927,0.568c1.188,0.414,2.221,1.034,3.048,1.912c0.878,0.827,1.549,1.808,1.962,2.945
	c0.466,1.136,0.672,2.375,0.672,3.823c0,1.395-0.206,2.687-0.672,3.771c-0.413,1.136-1.084,2.117-1.962,2.996
	c-0.827,0.827-1.86,1.446-3.048,1.859c-1.188,0.414-2.48,0.62-3.927,0.62c-1.498,0-2.789-0.207-3.978-0.62s-2.222-1.033-3.048-1.859
	l0,0c-0.877-0.827-1.55-1.808-1.962-2.996c-0.414-1.085-0.672-2.377-0.672-3.771c0-1.447,0.258-2.687,0.672-3.823
	c0.413-1.137,1.085-2.118,1.962-2.996l0,0c0.827-0.827,1.86-1.447,3.048-1.861C74.804,286.766,76.095,286.61,77.593,286.61z
	 M77.593,290.175c-0.878,0-1.601,0.103-2.221,0.361c-0.62,0.258-1.188,0.62-1.653,1.085l0,0c-0.413,0.516-0.775,1.085-1.034,1.756
	c-0.207,0.723-0.31,1.55-0.31,2.48c0,0.878,0.103,1.704,0.31,2.427c0.259,0.672,0.621,1.24,1.034,1.757
	c0.464,0.465,1.033,0.827,1.653,1.085c0.62,0.258,1.343,0.362,2.221,0.362c0.827,0,1.55-0.104,2.222-0.362
	c0.62-0.258,1.137-0.62,1.601-1.085c0.466-0.517,0.775-1.084,1.034-1.757c0.207-0.723,0.362-1.549,0.362-2.427
	c0-0.93-0.155-1.757-0.362-2.48c-0.258-0.671-0.568-1.24-1.034-1.756c-0.464-0.465-0.981-0.827-1.601-1.085
	C79.143,290.278,78.42,290.175,77.593,290.175z"/>
<path d="M56.826,286.61c1.498,0,2.789,0.156,3.978,0.568c1.188,0.414,2.169,1.085,3.048,1.912s1.549,1.808,1.963,2.945
	c0.414,1.136,0.672,2.375,0.672,3.823c0,1.395-0.258,2.687-0.672,3.771c-0.414,1.136-1.084,2.117-1.963,2.996
	c-0.878,0.827-1.86,1.446-3.048,1.859c-1.188,0.414-2.479,0.62-3.978,0.62c-1.447,0-2.739-0.207-3.927-0.62
	c-1.188-0.414-2.221-1.033-3.099-1.859l0,0c-0.827-0.827-1.498-1.808-1.912-2.996c-0.465-1.085-0.672-2.377-0.672-3.771
	c0-1.447,0.207-2.687,0.672-3.823c0.414-1.137,1.084-2.118,1.912-2.996l0,0c0.878-0.827,1.912-1.447,3.099-1.861
	C54.087,286.766,55.379,286.61,56.826,286.61z M56.826,290.175c-0.827,0-1.55,0.103-2.222,0.361
	c-0.619,0.258-1.136,0.62-1.601,1.085l0,0c-0.465,0.516-0.775,1.085-1.034,1.756c-0.207,0.723-0.361,1.55-0.361,2.48
	c0,0.878,0.155,1.704,0.361,2.427c0.259,0.672,0.569,1.24,1.034,1.757c0.465,0.465,0.982,0.827,1.601,1.085
	c0.672,0.258,1.395,0.362,2.222,0.362c0.877,0,1.601-0.104,2.221-0.362c0.621-0.258,1.188-0.62,1.602-1.085
	c0.465-0.517,0.826-1.084,1.033-1.757c0.259-0.723,0.362-1.549,0.362-2.427c0-0.93-0.103-1.757-0.362-2.48
	c-0.207-0.671-0.568-1.24-0.981-1.756c-0.465-0.465-0.982-0.827-1.653-1.085C58.427,290.278,57.704,290.175,56.826,290.175z"/>
<polygon points="32.288,287.023 46.287,287.023 46.287,290.64 36.575,290.64 36.575,293.79 45.099,293.79 45.099,297.407 
	36.575,297.407 36.575,304.639 32.288,304.639 "/>
<polygon points="287.28,259.695 291.517,259.695 299.369,270.647 299.369,259.695 303.606,259.695 303.606,277.311 299.369,277.311 
	299.214,277.052 291.517,266.308 291.517,277.311 287.28,277.311 "/>
<path d="M274.779,259.695h4.339l7.388,17.616h-4.65l-1.705-4.236h-6.458l-1.653,4.236h-4.598L274.779,259.695z M276.896,264.707
	l-1.859,4.856h3.771L276.896,264.707z"/>
<path d="M267.546,266.049h-4.288c-0.103-0.568-0.155-1.137-0.465-1.602c-0.826-1.239-2.428-1.55-3.771-1.55
	c-0.827,0-1.55,0.155-2.169,0.362c-2.17,0.826-2.842,2.945-2.842,5.114c0,0.931,0.104,1.757,0.31,2.429
	c0.258,0.723,0.569,1.291,1.034,1.808l0,0c0.413,0.465,0.93,0.827,1.55,1.084c0.567,0.259,1.291,0.361,2.066,0.361
	c1.085,0,2.17-0.206,3.047-0.93l0,0c0.362-0.31,0.673-0.62,0.878-1.034c0.31-0.619,0.362-1.239,0.414-1.911h4.288
	c-0.104,2.377-0.723,4.184-2.635,5.683l0,0c-0.826,0.621-1.757,1.085-2.789,1.396c-0.981,0.361-2.118,0.516-3.306,0.516
	c-2.532,0-4.96-0.671-6.769-2.479c-1.859-1.859-2.531-4.288-2.531-6.819c0-2.48,0.724-4.959,2.531-6.767
	c1.912-1.809,4.443-2.48,6.974-2.48c2.377,0,4.341,0.569,5.838,1.602C266.72,262.175,267.34,263.828,267.546,266.049z"/>
<rect x="242.854" y="259.695" width="4.339" height="17.616"/>
<path d="M224.462,259.695h8.731c0.103,0,0.258,0,0.413,0l0,0c0.156,0,0.31,0,0.413,0h0.052c0.052,0,0.052,0,0.104,0l0,0l0,0
	c0.878,0,1.704,0.104,2.376,0.362l0,0c0.723,0.206,1.395,0.568,1.911,1.033l0,0c0.517,0.465,0.93,0.982,1.24,1.654
	c0.258,0.619,0.361,1.342,0.361,2.117c0,0.518-0.051,1.034-0.154,1.5c-0.155,0.464-0.361,0.877-0.621,1.239l0,0
	c-0.309,0.414-0.619,0.723-1.032,1.034c0,0,0,0-0.052,0c0.311,0.206,0.517,0.464,0.723,0.722c0.208,0.311,0.361,0.672,0.517,1.137
	c0.104,0.414,0.154,0.877,0.206,1.447l0,0l0.155,2.324v0.051c0.052,0.827,0.466,2.635,1.189,2.997h-4.856
	c-0.26-0.413-0.465-0.775-0.569-1.24l0,0c-0.052-0.155-0.052-0.361-0.103-0.672c-0.052-0.258-0.052-0.516-0.052-0.826l0,0
	l-0.104-1.963l0,0c-0.052-0.465-0.104-0.879-0.207-1.137c-0.104-0.258-0.206-0.414-0.31-0.517h-0.052
	c-0.103-0.155-0.361-0.207-0.619-0.31c-0.309-0.052-0.723-0.103-1.188-0.103h-4.133v6.767h-4.339V259.695z M228.75,263.208v3.822
	h3.875c0.62,0,1.138-0.051,1.55-0.155c0.413-0.052,0.724-0.207,0.93-0.362v0.052c0.207-0.156,0.362-0.361,0.413-0.568
	c0.156-0.259,0.208-0.516,0.208-0.929c0-0.672-0.208-1.137-0.621-1.395l0,0c-0.206-0.155-0.465-0.259-0.877-0.362
	c-0.413-0.052-0.931-0.103-1.499-0.103H228.75z"/>
<polygon points="208.707,259.695 222.757,259.695 222.757,263.312 212.994,263.312 212.994,266.462 221.569,266.462 
	221.569,270.079 212.994,270.079 212.994,277.311 208.707,277.311 "/>
<path d="M196.255,259.695h4.289l7.387,17.616h-4.649l-1.705-4.236h-6.406l-1.653,4.236h-4.598L196.255,259.695z M198.426,264.707
	l-1.912,4.856h3.72L198.426,264.707z"/>
<polygon points="160.507,259.695 164.847,259.695 164.847,266.152 172.493,266.152 172.493,259.695 176.832,259.695 
	176.832,277.311 172.493,277.311 172.493,269.82 164.847,269.82 164.847,277.311 160.507,277.311 "/>
<polygon points="143.201,259.695 159.061,259.695 159.061,263.312 153.327,263.312 153.327,277.311 148.987,277.311 
	148.987,263.312 143.201,263.312 "/>
<path d="M125.843,259.695h4.391v10.797c0,0.62,0.052,1.188,0.207,1.653c0.155,0.414,0.361,0.775,0.62,1.034l0,0
	c0.31,0.258,0.671,0.464,1.085,0.62c0.465,0.155,1.084,0.206,1.757,0.206c0.671,0,1.239-0.051,1.705-0.206
	c0.464-0.156,0.826-0.361,1.084-0.62c0.31-0.259,0.517-0.62,0.672-1.034c0.155-0.465,0.207-1.033,0.207-1.653v-10.797h4.391v10.952
	c0,1.084-0.207,2.118-0.568,2.996c-0.361,0.879-0.877,1.654-1.601,2.274c-0.723,0.62-1.55,1.084-2.583,1.395
	c-0.981,0.31-2.066,0.465-3.306,0.465c-1.292,0-2.428-0.155-3.41-0.465s-1.86-0.723-2.532-1.343c-0.723-0.62-1.24-1.394-1.601-2.273
	c-0.362-0.878-0.517-1.912-0.517-3.048V259.695z"/>
<path d="M114.065,259.23c1.447,0,2.738,0.207,3.926,0.62c1.188,0.414,2.221,1.034,3.048,1.861c0.878,0.877,1.549,1.859,1.962,2.996
	c0.465,1.136,0.672,2.375,0.672,3.771c0,1.446-0.207,2.687-0.672,3.823c-0.413,1.136-1.084,2.117-1.962,2.996
	c-0.827,0.827-1.86,1.446-3.048,1.86s-2.479,0.62-3.926,0.62c-1.499,0-2.79-0.206-3.978-0.62c-1.188-0.414-2.221-1.033-3.048-1.86
	l0,0c-0.878-0.827-1.55-1.859-1.962-2.996c-0.465-1.085-0.672-2.377-0.672-3.823c0-1.396,0.207-2.687,0.672-3.771
	c0.413-1.137,1.084-2.17,1.962-2.996l0,0c0.827-0.827,1.86-1.447,3.048-1.861C111.275,259.437,112.566,259.23,114.065,259.23z
	 M114.065,262.847c-0.878,0-1.601,0.103-2.221,0.362c-0.672,0.257-1.188,0.619-1.653,1.084l0,0
	c-0.465,0.516-0.775,1.085-1.034,1.756c-0.207,0.723-0.31,1.55-0.31,2.428c0,0.929,0.103,1.756,0.31,2.479
	c0.259,0.672,0.568,1.24,1.034,1.757c0.464,0.465,0.981,0.826,1.653,1.084c0.62,0.258,1.343,0.362,2.221,0.362
	c0.827,0,1.55-0.104,2.222-0.362c0.62-0.258,1.137-0.62,1.601-1.084c0.465-0.517,0.775-1.085,1.034-1.757
	c0.207-0.724,0.31-1.551,0.31-2.479c0-0.878-0.103-1.706-0.31-2.428c-0.259-0.671-0.568-1.24-1.034-1.756
	c-0.464-0.465-0.981-0.827-1.601-1.084C115.615,262.949,114.892,262.847,114.065,262.847z"/>
<path d="M102.39,265.688h-4.133c-0.051-0.517-0.051-1.084-0.31-1.55c-0.155-0.258-0.413-0.516-0.671-0.723
	c-0.775-0.568-1.705-0.671-2.635-0.671c-0.413,0-0.827,0.051-1.24,0.103c-0.62,0.154-1.602,0.619-1.602,1.446
	c0,0.206,0.052,0.362,0.156,0.567c0.103,0.156,0.257,0.311,0.464,0.466l0,0c0.207,0.155,0.62,0.31,1.136,0.517
	c0.568,0.207,1.343,0.414,2.222,0.567l0,0c1.395,0.311,2.531,0.672,3.461,0.982c0.981,0.362,1.705,0.723,2.222,1.137l0,0
	c0.464,0.413,0.826,0.929,1.084,1.498c0.259,0.62,0.361,1.24,0.361,1.962c0,1.757-0.775,3.203-2.221,4.237
	c-1.654,1.136-3.668,1.498-5.631,1.498c-1.24,0-2.324-0.104-3.306-0.362c-0.981-0.311-1.809-0.672-2.532-1.239l0,0
	c-0.723-0.517-1.291-1.188-1.653-2.015c-0.517-1.033-0.62-2.119-0.672-3.306h4.236c0.052,0.62,0.052,1.188,0.361,1.756
	c0.155,0.31,0.466,0.62,0.775,0.826l0,0c0.361,0.258,0.775,0.466,1.291,0.569c0.465,0.155,1.085,0.207,1.757,0.207
	c0.465,0,0.878-0.052,1.291-0.156l0,0c0.362-0.103,0.724-0.206,0.982-0.413c0.259-0.207,0.465-0.361,0.568-0.568
	c0.413-0.672-0.052-1.446-0.62-1.859l0,0c-0.155-0.156-0.517-0.311-0.981-0.466c-0.826-0.31-1.653-0.465-2.531-0.671
	c-0.207-0.051-0.258-0.051-0.31-0.051H93.66c-1.085-0.259-2.016-0.518-2.791-0.879c-0.774-0.31-1.446-0.671-1.911-1.084l0,0l0,0l0,0
	c-0.517-0.466-0.878-0.982-1.136-1.55c-0.258-0.62-0.362-1.24-0.362-1.963c0-0.826,0.155-1.55,0.568-2.169
	c0.362-0.62,0.879-1.189,1.602-1.705l0,0c0.671-0.465,1.498-0.775,2.428-1.034c0.879-0.206,1.86-0.361,2.997-0.361
	c1.86,0,3.771,0.414,5.27,1.55c0.671,0.517,1.188,1.188,1.549,1.859C102.338,263.673,102.39,264.603,102.39,265.688z"/>
<path d="M231.694,292.964l-4.133,0.052c-0.052-0.568-0.052-1.085-0.309-1.55c-0.208-0.31-0.414-0.567-0.723-0.774
	c-0.258-0.207-0.621-0.362-1.085-0.465c-0.413-0.155-0.93-0.207-1.497-0.207c-0.466,0-0.879,0.052-1.242,0.155
	c-0.361,0.051-0.671,0.207-0.93,0.361l0,0c-0.258,0.155-0.413,0.362-0.515,0.517c-0.104,0.154-0.156,0.361-0.156,0.516
	c0,0.207,0.052,0.414,0.156,0.568c0.052,0.155,0.205,0.362,0.413,0.465l0,0c0.258,0.207,0.671,0.362,1.188,0.517
	c0.567,0.207,1.291,0.414,2.222,0.619l0,0c1.395,0.311,2.531,0.622,3.46,0.983c0.982,0.361,1.705,0.723,2.17,1.136l0,0
	c0.517,0.414,0.877,0.929,1.137,1.499c0.257,0.567,0.361,1.239,0.361,1.962c0,0.827-0.207,1.653-0.569,2.324
	c-0.361,0.723-0.93,1.343-1.653,1.86c-0.724,0.516-1.549,0.877-2.531,1.136c-0.93,0.259-1.963,0.414-3.151,0.414
	s-2.274-0.154-3.255-0.414c-0.981-0.258-1.808-0.671-2.531-1.187l0,0c-0.723-0.569-1.292-1.24-1.653-2.016
	c-0.569-1.084-0.673-2.169-0.725-3.306h4.237c0.052,0.567,0.104,1.188,0.413,1.704c0.156,0.362,0.414,0.621,0.775,0.878l0,0
	c0.362,0.258,0.775,0.414,1.24,0.569c0.517,0.103,1.138,0.207,1.757,0.207c0.517,0,0.93-0.052,1.343-0.156l0,0
	c0.362-0.103,0.672-0.258,0.981-0.464c0.258-0.155,0.465-0.362,0.569-0.568c0.103-0.155,0.154-0.362,0.154-0.569
	c0-0.051,0-0.155,0-0.258c-0.052-0.104-0.104-0.206-0.207-0.31c-0.052-0.155-0.154-0.257-0.258-0.361
	c-0.052-0.155-0.207-0.258-0.31-0.31v-0.052c-0.207-0.103-0.517-0.31-0.98-0.465c-0.569-0.155-1.24-0.361-2.067-0.517l0,0
	c-0.104-0.051-0.31-0.103-0.465-0.103c-0.258-0.052-0.31-0.052-0.362-0.104l0,0c-1.084-0.207-2.014-0.517-2.789-0.827
	c-0.775-0.362-1.446-0.723-1.911-1.136l0,0l0,0l0,0c-0.517-0.414-0.878-0.929-1.136-1.55c-0.258-0.567-0.362-1.239-0.362-1.962
	c0-0.775,0.155-1.498,0.517-2.17c0.361-0.619,0.93-1.188,1.653-1.653l0,0c0.671-0.465,1.499-0.826,2.377-1.034
	c0.928-0.258,1.911-0.362,2.996-0.362c1.084,0,2.066,0.104,2.945,0.362c0.878,0.258,1.653,0.672,2.376,1.189
	c0.671,0.517,1.188,1.136,1.551,1.859C231.643,290.95,231.694,291.931,231.694,292.964z"/>
<path d="M213.769,292.964l-4.185,0.052c-0.052-0.568-0.052-1.085-0.311-1.55c-0.362-0.671-1.034-1.084-1.757-1.239
	c-0.465-0.155-0.93-0.207-1.497-0.207c-0.466,0-0.879,0.052-1.24,0.155c-0.361,0.051-0.671,0.207-0.93,0.361l0,0
	c-0.362,0.258-0.723,0.567-0.723,1.033c0,0.207,0.052,0.414,0.155,0.568c0.104,0.155,0.258,0.362,0.465,0.465l0,0
	c0.258,0.207,0.621,0.362,1.188,0.517c0.569,0.207,1.292,0.414,2.169,0.619l0,0c1.396,0.311,2.583,0.622,3.514,0.983
	c0.98,0.361,1.704,0.723,2.168,1.136l0,0c0.518,0.414,0.879,0.929,1.138,1.499c0.207,0.567,0.361,1.239,0.361,1.962
	c0,0.827-0.205,1.653-0.567,2.324c-0.413,0.723-0.931,1.343-1.705,1.86c-1.601,1.188-3.668,1.549-5.631,1.549
	c-1.24,0-2.324-0.154-3.254-0.414c-0.981-0.258-1.861-0.671-2.531-1.187l0,0c-0.724-0.569-1.292-1.24-1.705-2.016
	c-0.465-1.084-0.568-2.169-0.62-3.306h4.185c0.052,0.567,0.052,1.188,0.361,1.704c0.206,0.362,0.465,0.621,0.775,0.878l0,0
	c0.361,0.258,0.775,0.414,1.291,0.569c0.517,0.103,1.086,0.207,1.757,0.207c0.465,0,0.93-0.052,1.292-0.156l0,0
	c0.361-0.103,0.724-0.258,0.98-0.464c0.311-0.155,0.466-0.362,0.621-0.568c0.258-0.414,0.155-0.775-0.05-1.137
	c-0.104-0.155-0.156-0.257-0.26-0.361c-0.103-0.155-0.207-0.258-0.311-0.31v-0.052c-0.205-0.103-0.567-0.31-1.032-0.465
	c-0.827-0.258-1.653-0.465-2.531-0.619c-0.208-0.052-0.258-0.052-0.31-0.104l0,0c-1.086-0.207-2.016-0.517-2.791-0.827
	c-0.826-0.362-1.445-0.723-1.963-1.136l0,0l0,0l0,0c-0.464-0.414-0.878-0.929-1.136-1.55c-0.207-0.567-0.362-1.239-0.362-1.962
	c0-0.775,0.207-1.498,0.568-2.17c0.361-0.619,0.878-1.188,1.602-1.653l0,0c0.723-0.465,1.498-0.826,2.428-1.034
	c0.878-0.258,1.912-0.362,2.996-0.362c1.085,0,2.067,0.104,2.945,0.362c0.878,0.258,1.653,0.672,2.324,1.189
	c0.671,0.517,1.188,1.136,1.551,1.859C213.666,290.95,213.717,291.931,213.769,292.964z"/>
</svg>
