<?xml version="1.0" encoding="utf-8"?>
<!-- Generator: Adobe Illustrator 13.0.2, SVG Export Plug-In . SVG Version: 6.00 Build 14948)  -->
<!DOCTYPE svg PUBLIC "-//W3C//DTD SVG 1.0//EN" "http://www.w3.org/TR/2001/REC-SVG-20010904/DTD/svg10.dtd">
<svg version="1.0" id="Ebene_1" xmlns="http://www.w3.org/2000/svg" xmlns:xlink="http://www.w3.org/1999/xlink" x="0px" y="0px"
	 width="277.264px" height="527.241px" viewBox="0 0 277.264 527.241" enable-background="new 0 0 277.264 527.241"
	 xml:space="preserve">
<path fill-rule="evenodd" clip-rule="evenodd" fill="#FFFFFF" d="M204.552,527.241L138.441,480.8l-65.985,46.441V426.489h-17.13
	v14.719H29.439v-14.719H10.786V319.263h10.532l-0.634-0.633l-0.762-0.891l-0.762-0.885l-0.76-1.014l-0.762-1.02l-0.762-1.143
	l-0.762-1.014l-0.762-1.143l-0.634-1.143l-0.76-1.014l-0.634-1.143l-0.762-1.143l-0.636-1.143l-0.634-1.143l-0.634-1.137
	l-0.507-1.143l-0.507-1.143l-0.508-1.143l-0.381-1.143l-0.381-1.014l-0.381-1.143l-0.381-1.014l-0.381-1.02l-0.379-1.014
	l-0.255-1.014l-0.253-1.014l-0.253-0.891l-0.381-1.014l-0.255-0.891l-0.253-1.014l-0.253-0.891l-0.253-0.885l-0.253-0.891
	l-0.255-0.891l-0.379-0.885l-0.255-0.891l-0.253-0.885l-0.381-0.891l-0.253-0.762l-0.381-0.891l-0.508-1.014l-0.507-1.266
	l-0.508-1.523l-0.379-1.395l-0.255-1.652L0,270.536l0.253-2.408l1.141-3.047l2.919-3.171l2.539-1.017l-0.255-0.762l-0.253-1.014
	l-0.253-0.889l-0.381-1.015l-0.255-0.888l-0.253-1.015l-0.253-0.888l-0.253-0.889l-0.253-0.888l-0.255-0.889l-0.379-0.888
	l-0.255-0.889l-0.253-0.888l-0.381-0.888l-0.253-0.762l-0.381-0.889l-0.508-1.015l-0.507-1.269l-0.508-1.395l-0.379-1.523
	l-0.255-1.649L0,237.798l0.253-2.411l1.141-3.044l2.919-3.173l2.539-1.015l-0.255-0.634l-0.253-1.015l-0.253-0.889l-0.381-1.014
	l-0.255-0.889l-0.253-1.015l-0.253-0.888l-0.253-0.889l-0.253-0.888l-0.255-0.889l-0.379-0.888l-0.255-0.888l-0.253-0.889
	l-0.381-0.888l-0.253-0.762l-0.381-0.889l-0.508-1.015l-0.507-1.269l-0.508-1.395l-0.379-1.523l-0.255-1.649L0,205.187l0.253-2.41
	l1.141-3.045l2.919-3.173l2.284-0.888l0,0l-0.253-1.017l-0.253-1.015l-0.381-0.888l-0.255-1.015l-0.253-0.888l-0.253-0.889
	l-0.253-1.015l-0.253-0.888l-0.255-0.889l-0.379-0.76l-0.255-0.889l-0.253-0.888l-0.381-0.889l-0.253-0.888l-0.381-0.888
	l-0.508-1.015l-0.507-1.27l-0.508-1.395l-0.379-1.396l-0.255-1.649L0,173.338l0.253-2.413l1.141-3.171l2.919-3.045l4.061-1.649
	l3.426,0.126l2.411,0.762l1.649,0.888l1.396,0.888l1.269,1.017l1.015,1.015l1.015,1.015l0.762,0.762l0.634,0.76l0.634,0.634
	l0.634,0.634l0.634,0.636l0.255,0.126v-0.381l0.127-1.269v-1.396l0.253-1.269l0.126-1.269l0.255-1.143l0.126-1.269l0.253-1.143
	l0.255-1.143l0.253-1.015l0.253-1.141l0.381-1.015l0.253-1.015l0.253-1.015l0.382-1.015l0.252-1.015l0.255-0.889l0.381-0.888
	l0.253-1.015l0.253-0.889l0.255-0.888l0.253-0.888l0.253-0.888l0.253-0.889l0.253-0.888l0.255-0.889l0.253-0.888l0.127-0.888
	l0.253-1.017l0.127-1.014l0.253-1.397l0.381-1.395l0.507-1.523l0.634-1.522l0.889-1.649l1.522-1.777l2.792-2.03l4.061-1.015
	l4.187,0.888l2.919,2.03l1.523,1.904l1.015,1.775l0.634,1.523l0.379,1.396l0.381,1.523l0.255,1.269l0.253,1.141l0.127,0.889
	l0.126,0.888l0.255,0.888l0.253,0.889l0.253,0.888l0.127,0.889l0.253,0.888l0.253,0.888l0.381,0.888l0.253,0.889l0.253,1.015
	l0.255,0.888l0.379,0.889l0.255,1.015l0.253,1.015l0.381,1.015l0.253,1.015l0.255,1.015l0.379,1.015l0.255,1.141l0.253,1.143
	l0.253,1.143l0.253,1.269l0.127,1.143l0.253,1.269l0.127,1.269l0.126,1.27v1.395l0.127,0.634l0.381-0.379l0.762-0.636l0.634-0.634
	l0.634-0.634l0.634-0.76l0.762-0.762l1.015-1.015l1.015-1.015l1.27-1.017l1.269-0.888l1.775-0.888l2.03-0.634V66.618H8.628V0H267.62
	v66.618h-63.067v96.567l2.285,0.762l1.775,0.888l1.269,0.888l1.269,1.017l1.017,1.015l1.014,1.015l0.762,0.762l0.636,0.76
	l0.633,0.634l0.636,0.634l0.762,0.636l0.381,0.379l0.126-0.634v-1.395l0.126-1.27l0.129-1.269l0.252-1.269l0.129-1.143l0.252-1.269
	l0.255-1.143l0.255-1.143l0.252-1.141l0.255-1.015l0.381-1.015l0.252-1.015l0.255-1.015l0.381-1.015l0.255-1.015l0.378-0.889
	l0.255-0.888l0.255-1.015l0.255-0.889l0.252-0.888l0.381-0.888l0.126-0.888l0.255-0.889l0.255-0.888l0.252-0.889l0.126-0.888
	l0.255-0.888l0.126-0.889l0.255-1.141l0.255-1.269l0.252-1.523l0.507-1.396l0.636-1.523l0.888-1.775l1.649-1.904l2.921-2.03
	l4.187-0.888l4.061,1.015l2.792,2.03l1.523,1.777l0.888,1.649l0.633,1.522l0.51,1.523l0.378,1.395l0.255,1.397l0.126,1.014
	l0.255,1.017l0.126,0.888l0.255,0.888l0.255,0.889l0.252,0.888l0.129,0.889l0.252,0.888l0.381,0.888l0.255,0.888l0.252,0.889
	l0.255,1.015l0.381,0.888l0.255,0.889l0.252,1.015l0.381,1.015l0.255,1.015l0.252,1.015l0.381,1.015l0.255,1.141l0.255,1.015
	l0.252,1.143l0.255,1.143l0.126,1.269l0.255,1.143l0.126,1.269l0.126,1.269l0.129,1.396l0.126,1.269v0.381l0.255-0.126l0.633-0.636
	l0.636-0.634l0.633-0.634l0.636-0.76l0.762-0.762l1.014-1.015l1.017-1.015l1.269-1.017l1.395-0.888l1.652-0.888l2.411-0.762
	l3.425-0.126l4.061,1.649l2.918,3.045l1.143,3.171l0.255,2.413l-0.129,1.903l-0.252,1.649l-0.381,1.396l-0.51,1.395l-0.507,1.27
	l-0.507,1.015l-0.381,0.888l-0.255,0.888l-0.381,0.889l-0.252,0.888l-0.381,0.889l-0.255,0.76l-0.255,0.889l-0.252,0.888
	l-0.255,1.015l-0.252,0.889l-0.255,0.888l-0.255,1.015l-0.378,0.888l-0.255,1.015l-0.255,1.017l0,0l2.285,0.888l2.918,3.173
	l1.143,3.045l0.255,2.41l-0.129,1.904l-0.252,1.649l-0.381,1.523l-0.51,1.395l-0.507,1.269l-0.507,1.015l-0.381,0.889l-0.255,0.762
	l-0.381,0.888l-0.252,0.889l-0.381,0.888l-0.255,0.888l-0.255,0.889l-0.252,0.888l-0.255,0.889l-0.252,0.888l-0.255,1.015
	l-0.255,0.889l-0.378,1.014l-0.255,0.889l-0.255,1.015l-0.252,0.634l2.537,1.015l2.918,3.173l1.143,3.044l0.255,2.411l-0.129,1.904
	l-0.252,1.649l-0.381,1.523l-0.51,1.395l-0.507,1.269l-0.507,1.015l-0.381,0.889l-0.255,0.762l-0.381,0.888l-0.252,0.888
	l-0.381,0.889l-0.255,0.888l-0.255,0.889l-0.252,0.888l-0.255,0.889l-0.252,0.888l-0.255,1.015l-0.255,0.888l-0.378,1.015
	l-0.255,0.889l-0.255,1.014l-0.252,0.762l2.537,1.017l2.918,3.171l1.143,3.047l0.255,2.408l-0.129,1.904l-0.252,1.652l-0.381,1.395
	l-0.51,1.523l-0.507,1.266l-0.507,1.014l-0.381,0.891l-0.255,0.762l-0.381,0.891l-0.252,0.885l-0.381,0.891l-0.255,0.885
	l-0.255,0.891l-0.252,0.891l-0.255,0.885l-0.252,0.891l-0.255,1.014l-0.255,0.891l-0.378,1.014l-0.255,0.891l-0.255,1.014
	l-0.381,1.014l-0.252,1.014l-0.381,1.02l-0.381,1.014l-0.381,1.143l-0.381,1.014l-0.381,1.143l-0.507,1.143l-0.507,1.143
	l-0.51,1.143l-0.633,1.137l-0.636,1.143l-0.636,1.143l-0.759,1.143l-0.762,1.143l-0.636,1.014l-0.633,1.143l-0.762,1.143
	l-0.762,1.014l-0.762,1.143l-0.762,1.02l-0.762,1.014l-0.762,0.885l-0.888,0.891l-0.507,0.633h10.277v107.227h-18.398v14.719
	h-25.887v-14.719h-17.385V527.241L204.552,527.241z M93.901,66.618l44.54,31.471l44.666-31.471H93.901L93.901,66.618z
	 M72.456,319.263v-12.814l-0.379,0.633l-0.763,1.143l-0.76,1.143l-0.634,1.014l-0.762,1.143l-0.762,1.143l-0.762,1.014l-0.76,1.143
	l-0.762,1.02l-0.762,1.014l-0.76,0.885l-0.762,0.891l-0.508,0.633H72.456L72.456,319.263z M213.942,319.263l-0.507-0.633
	l-0.762-0.891l-0.762-0.885l-0.888-1.014l-0.762-1.02l-0.762-1.143l-0.762-1.014l-0.759-1.143l-0.636-1.143l-0.633-1.014
	l-0.762-1.143l-0.762-1.143l-0.636-1.143v13.324H213.942L213.942,319.263z"/>
<polygon fill-rule="evenodd" clip-rule="evenodd" points="17.511,326.118 259.499,326.118 259.499,419.763 17.511,419.763 
	17.511,326.118 "/>
<path fill-rule="evenodd" clip-rule="evenodd" fill="#FFDF30" d="M39.971,198.208h0.127l0.379,0.634l0.381,0.634l0.381,0.634
	l0.381,0.508l0.255,0.634l0.381,0.507v0.127l0.126-0.127l0.253-0.507l0.381-0.634l0.381-0.508l0.381-0.634l0.381-0.634l0.379-0.634
	l0.127-0.127l-0.381,0.127l-0.76,0.126h-0.634l-0.763,0.127l-0.76-0.127h-0.634L39.971,198.208L39.971,198.208z M48.473,320.786
	v113.572H36.292V320.786h-0.253l-0.634-0.123l-0.763-0.129l-0.634-0.252l-0.76-0.258l-0.634-0.252l-0.762-0.381l-0.634-0.381
	l-0.634-0.51l-0.762-0.504l-0.634-0.51l-0.634-0.633l-0.634-0.51l-0.634-0.762l-0.762-0.633l-0.636-0.762l-0.634-0.762l-0.76-0.891
	l-0.636-0.885l-0.634-0.891l-0.76-1.014l-0.636-1.014l-0.76-1.014l-0.634-1.02l-0.762-1.014l-0.634-1.014l-0.634-1.014l-0.508-1.02
	l-0.507-1.014l-0.508-1.014l-0.507-1.014l-0.508-1.02l-0.381-0.885l-0.381-1.02l-0.381-1.014l-0.379-0.885l-0.255-1.02l-0.379-1.014
	l-0.255-0.885l-0.253-1.02l-0.381-0.885l-0.253-0.891l-0.255-1.014l-0.253-0.891l-0.253-1.014l-0.253-0.891l-0.255-0.885
	l-0.379-1.02l-0.255-0.885l-0.253-1.014l-0.381-0.891l-0.379-1.014l-0.255-1.014l-0.381-0.891l-0.507-1.014l-0.381-1.02
	l-0.508-1.137l-0.253-1.02l-0.253-0.885l-0.253-0.891v-1.014l0.126-0.891l0.381-1.143l0.888-0.885l1.27-0.51h1.141l0.889,0.252
	l0.888,0.51l0.762,0.51l0.762,0.633l0.76,0.762l0.762,0.762l0.762,0.885l0.762,0.762l0.76,0.762l0.762,0.639l0.762,0.762l0.76,0.633
	l0.763,0.633l0.76,0.633l0.634,0.639l0.634,0.504l-0.379-0.504l-0.636-1.014l-0.76-1.02l-0.634-1.014l-0.762-1.014l-0.634-1.02
	l-0.634-1.014l-0.508-1.014l-0.507-1.014l-0.508-1.02l-0.507-1.014l-0.508-1.014l-0.381-0.89l-0.381-1.015l-0.381-1.015
	l-0.379-0.888l-0.255-1.015l-0.379-1.015l-0.255-0.888l-0.253-0.889l-0.381-1.015l-0.253-0.888l-0.255-1.015l-0.253-0.888
	l-0.253-1.017l-0.253-0.888l-0.255-0.888l-0.379-1.015l-0.255-0.889l-0.253-1.015l-0.381-0.888l-0.379-1.015l-0.255-1.015
	l-0.381-0.889l-0.507-1.014l-0.381-1.015l-0.508-1.143l-0.253-1.015l-0.253-0.888l-0.253-0.889v-1.015l0.126-0.888l0.381-1.015
	l0.888-1.017l1.27-0.507h1.141l0.889,0.253l0.888,0.508l0.762,0.508l0.762,0.634l0.76,0.76l0.762,0.762l0.762,0.888l0.762,0.762
	l0.76,0.762l0.762,0.634l0.762,0.762l0.76,0.634l0.763,0.634l0.76,0.634l0.634,0.634l0.381,0.381l-0.126-0.253l-0.636-1.015
	l-0.76-1.015l-0.634-1.015l-0.762-1.015l-0.634-1.015l-0.634-1.015l-0.508-1.015l-0.507-1.015l-0.508-1.015l-0.507-1.015
	l-0.508-1.015l-0.381-0.888l-0.381-1.017l-0.381-1.015l-0.379-0.888l-0.255-1.015l-0.379-1.015l-0.255-0.888l-0.253-0.889
	l-0.381-1.014l-0.253-0.889l-0.255-1.015l-0.253-0.888l-0.253-1.017l-0.253-0.888l-0.255-0.888l-0.379-1.015l-0.255-0.889
	l-0.253-1.015l-0.381-0.888l-0.379-1.015l-0.255-1.015l-0.381-0.889l-0.507-1.014l-0.381-1.015l-0.508-1.143l-0.253-1.015
	l-0.253-0.888l-0.253-0.889v-1.015l0.126-0.888l0.381-1.015l0.888-1.017l1.27-0.507h1.141l0.889,0.253l0.888,0.508l0.762,0.508
	l0.762,0.634l0.76,0.76l0.762,0.762l0.762,0.888l0.762,0.762l0.76,0.762l0.762,0.634l0.762,0.762l0.76,0.634l0.763,0.634
	l0.634,0.634l-0.381-0.507l-0.634-1.143l-0.762-1.015l-0.634-1.015l-0.634-1.015l-0.508-1.015l-0.507-1.015l-0.508-1.015
	l-0.507-0.889l-0.508-1.014l-0.381-1.015l-0.381-1.017l-0.381-0.888l-0.379-1.015l-0.255-0.888l-0.379-1.015l-0.255-0.889
	l-0.253-1.015l-0.381-0.888l-0.253-1.015l-0.255-0.888l-0.253-1.015l-0.253-0.889l-0.253-0.888l-0.255-1.015l-0.379-0.888
	l-0.255-1.015l-0.253-0.889l-0.381-1.015l-0.379-0.888l-0.255-1.015l-0.381-1.017l-0.507-1.014l-0.381-1.015l-0.508-1.015
	l-0.253-1.015l-0.253-1.015l-0.253-0.889v-0.888l0.126-1.015l0.381-1.015l0.888-1.015l1.27-0.507l1.141,0.126l0.889,0.253
	l0.888,0.381l0.762,0.508l0.762,0.634l0.76,0.76l0.762,0.889l0.762,0.762l0.762,0.76l0.76,0.762l0.762,0.762l0.762,0.634l0.76,0.762
	l0.763,0.634l0.76,0.634l0.634,0.634l0.762,0.634l0.762,0.634l0.762,0.636l0.76,0.634l0.762,0.507l0.762,0.634l0.76,0.634
	l0.763,0.636l0.76,0.634l0.762,0.762l0.762,0.634l0.762,0.634l0.507,0.507l-0.253-0.762l-0.127-0.888l-0.126-1.015l-0.127-1.015
	l-0.127-1.143l-0.126-1.141v-1.143l-0.127-1.143v-1.269v-1.269v-1.269v-1.143v-1.269l0.127-1.143v-1.141l0.126-1.143l0.127-1.143
	l0.127-1.141l0.253-1.015l0.126-1.017l0.255-1.014l0.253-1.015l0.127-1.015l0.253-1.017l0.381-1.014l0.253-0.889l0.253-1.015
	l0.253-0.888l0.253-1.015l0.381-0.888l0.253-0.889l0.255-1.015l0.381-0.888l0.253-0.889l0.253-1.014l0.255-0.889l0.253-1.015
	l0.253-1.015l0.253-0.889l0.255-1.015l0.253-1.141l0.253-1.015l0.127-1.143l0.253-1.015l0.255-1.141l0.252-0.889l0.382-0.888
	l0.507-0.762l0.634-0.762l0.888-0.634l1.269-0.379l1.27,0.379l1.015,0.634l0.634,0.762l0.381,0.762l0.381,0.888l0.379,0.889
	l0.255,1.141l0.127,1.143l0.253,1.015l0.127,1.143l0.253,1.014l0.253,1.015l0.127,0.889l0.253,1.015l0.381,1.015l0.253,0.889
	l0.253,1.014l0.253,0.889l0.255,0.888l0.381,1.015l0.253,0.889l0.253,0.888l0.381,1.015l0.253,0.888l0.255,1.015l0.253,0.889
	l0.253,1.014l0.253,1.017l0.253,1.015l0.255,1.015l0.253,1.014l0.126,1.017l0.255,1.015l0.126,1.141l0.127,1.143l0.127,1.143
	l0.127,1.141v1.143v1.269v1.143v1.269v1.269v1.269l-0.127,1.143v1.143l-0.127,1.141l-0.127,1.143l-0.126,1.015l-0.126,1.015
	l-0.129,0.888l-0.253,0.889v0.253l0.127-0.126l0.762-0.762l0.762-0.634l0.634-0.634l0.76-0.762l0.762-0.634l0.762-0.636l0.762-0.634
	l0.76-0.634l0.762-0.507l0.762-0.634l0.76-0.636l0.763-0.634l0.76-0.634l0.762-0.634l0.762-0.634l0.762-0.634l0.76-0.762
	l0.762-0.634l0.762-0.762l0.634-0.762l0.762-0.76l0.762-0.762l0.76-0.889l0.888-0.76l0.763-0.634l0.76-0.508l0.762-0.381
	l1.015-0.253l1.143-0.126l1.269,0.507l0.888,1.015l0.381,1.015l0.127,1.015l-0.127,0.888l-0.127,0.889l-0.253,1.015l-0.381,1.015
	l-0.381,1.015l-0.507,1.015l-0.381,1.014l-0.381,1.017l-0.381,1.015l-0.253,0.888l-0.381,1.015l-0.253,0.889l-0.381,1.015
	l-0.253,0.888l-0.255,0.888l-0.253,1.015l-0.253,0.889l-0.381,1.015l-0.253,0.888l-0.255,1.015l-0.252,0.888l-0.255,1.015
	l-0.381,0.889l-0.253,1.015l-0.381,0.888l-0.253,1.015l-0.381,0.888l-0.381,1.017l-0.507,1.015l-0.381,1.014l-0.508,0.889
	l-0.508,1.015l-0.507,1.015l-0.634,1.015l-0.634,1.015l-0.634,1.015l-0.634,1.015l-0.762,1.143l-0.381,0.507l0.762-0.634
	l0.762-0.634l0.76-0.634l0.762-0.762l0.762-0.634l0.634-0.762l0.762-0.762l0.762-0.888l0.76-0.762l0.888-0.76l0.763-0.634
	l0.76-0.508l0.762-0.508l1.015-0.253h1.143l1.269,0.507l0.888,0.889l0.381,1.143l0.127,0.888l-0.127,1.015l-0.127,0.889
	l-0.253,0.888l-0.381,1.015l-0.381,1.143l-0.507,1.015l-0.381,1.014l-0.381,0.889l-0.381,1.015l-0.253,1.015l-0.381,0.888
	l-0.253,1.015l-0.381,0.889l-0.253,1.015l-0.255,0.888l-0.253,0.888l-0.253,1.017l-0.381,0.888l-0.253,1.015l-0.255,0.889
	l-0.252,1.014l-0.255,0.889l-0.381,0.888l-0.253,1.015l-0.381,1.015l-0.253,0.888l-0.381,1.015l-0.381,1.017l-0.507,0.888
	l-0.381,1.015l-0.508,1.015l-0.508,1.015l-0.507,1.015l-0.634,1.015l-0.634,1.015l-0.634,1.015l-0.634,1.015l-0.762,1.015
	l-0.634,1.015l-0.762,1.015l-0.127,0.253l0.381-0.381l0.762-0.634l0.762-0.634l0.762-0.634l0.76-0.634l0.762-0.762l0.762-0.634
	l0.634-0.762l0.762-0.762l0.762-0.888l0.76-0.762l0.888-0.76l0.763-0.634l0.76-0.508l0.762-0.508l1.015-0.253h1.143l1.269,0.507
	l0.888,0.889l0.381,1.143l0.127,0.888l-0.127,1.015l-0.127,0.889l-0.253,0.888l-0.381,1.015l-0.381,1.143l-0.507,1.015l-0.381,1.014
	l-0.381,0.889l-0.381,1.015l-0.253,1.015l-0.381,0.888l-0.253,1.015l-0.381,0.889l-0.253,1.015l-0.255,0.888l-0.253,0.888
	l-0.253,1.017l-0.381,0.888l-0.253,1.015l-0.255,0.888l-0.252,1.015l-0.255,0.889l-0.381,0.888l-0.253,1.015l-0.381,1.015
	l-0.253,0.888l-0.381,1.015l-0.381,1.015l-0.507,0.89l-0.381,1.014l-0.508,1.014l-0.508,1.02l-0.507,1.014l-0.634,1.014
	l-0.634,1.014l-0.634,1.02l-0.634,1.014l-0.762,1.014l-0.634,1.02l-0.762,1.014l-0.253,0.504l0.507-0.504l0.762-0.639l0.762-0.633
	l0.762-0.633l0.76-0.633l0.762-0.762l0.762-0.639l0.634-0.762l0.762-0.762l0.762-0.885l0.76-0.762l0.888-0.762l0.763-0.633
	l0.76-0.51l0.762-0.51l1.015-0.252h1.143l1.269,0.51l0.888,0.885l0.381,1.143l0.127,0.891l-0.127,1.014l-0.127,0.891l-0.253,0.885
	l-0.381,1.02l-0.381,1.137l-0.507,1.02l-0.381,1.014l-0.381,0.891l-0.381,1.014l-0.253,1.014l-0.381,0.891l-0.253,1.014
	l-0.381,0.885l-0.253,1.02l-0.255,0.885l-0.253,0.891l-0.253,1.014l-0.381,0.891l-0.253,1.014l-0.255,0.891l-0.252,0.885
	l-0.255,1.02l-0.381,0.885l-0.253,1.014l-0.381,1.02l-0.253,0.885l-0.381,1.014l-0.381,1.02l-0.507,0.885l-0.381,1.02l-0.508,1.014
	l-0.508,1.014l-0.507,1.014l-0.634,1.02l-0.634,1.014l-0.634,1.014l-0.634,1.014l-0.762,1.02l-0.634,1.014l-0.762,1.014
	l-0.634,1.014l-0.636,0.891l-0.76,0.885l-0.634,0.891l-0.634,0.762l-0.762,0.762l-0.634,0.633l-0.636,0.762l-0.634,0.51l-0.76,0.633
	l-0.634,0.51l-0.634,0.504l-0.634,0.51l-0.763,0.381l-0.634,0.381l-0.634,0.252l-0.76,0.258l-0.634,0.252l-0.762,0.129
	L48.473,320.786L48.473,320.786L48.473,320.786z M50.376,287.669l-0.379,0.129l-0.762,0.123l-0.762,0.129h-0.634h-0.762h-0.634
	l-0.762-0.129l-0.634-0.123l-0.762-0.258l-0.634-0.381l-0.634-0.252l-0.634-0.381l-0.126-0.129l-0.129,0.129l-0.507,0.381
	l-0.634,0.252l-0.762,0.381l-0.634,0.258l-0.634,0.123l-0.76,0.129H37.56h-0.762h-0.76l-0.634-0.129l-0.763-0.123l-0.379-0.129
	v0.129l0.762,0.756l0.76,0.891l0.762,0.891l0.634,0.885l0.762,1.02l0.634,1.014l0.634,1.014l0.381,0.633l0.508,0.639l0.379,0.504
	l0.381,0.633l0.381,0.639l0.381,0.633l0.255,0.51l0.381,0.633l0,0h0.126l0.253-0.633l0.381-0.51l0.381-0.633l0.381-0.639
	l0.381-0.633l0.379-0.504l0.381-0.639l0.508-0.633l0.634-1.014l0.634-1.014l0.762-1.02l0.634-0.885l0.762-0.891l0.634-0.891
	l0.762-0.756L50.376,287.669L50.376,287.669z M50.25,255.057l-0.253,0.126l-0.762,0.127l-0.762,0.126h-0.634h-0.762h-0.634
	l-0.762-0.126l-0.634-0.253l-0.762-0.127l-0.634-0.381l-0.634-0.253l-0.634-0.381l-0.126-0.126l-0.129,0.126l-0.507,0.381
	l-0.634,0.253l-0.762,0.381l-0.634,0.127l-0.634,0.253l-0.76,0.126H37.56h-0.762h-0.76l-0.634-0.126l-0.763-0.127l-0.253-0.126
	l0.636,0.76l0.76,0.889l0.762,0.888l0.634,0.889l0.762,1.014l0.634,1.015l0.634,1.017l0.381,0.634l0.508,0.634l0.379,0.634
	l0.381,0.507l0.381,0.634l0.381,0.637l0.255,0.506l0.381,0.635l0,0h0.126l0.253-0.635l0.381-0.506l0.381-0.637l0.381-0.634
	l0.381-0.507l0.379-0.634l0.381-0.634l0.508-0.634l0.634-1.017l0.634-1.015l0.762-1.014l0.634-0.889l0.762-0.888l0.634-0.889
	L50.25,255.057L50.25,255.057z M49.361,223.333l-0.126,0.127l-0.762,0.126h-0.634h-0.762l-0.634-0.126l-0.762-0.127l-0.634-0.127
	l-0.762-0.253l-0.634-0.253l-0.634-0.381l-0.634-0.381h-0.126h-0.129l-0.507,0.381l-0.634,0.381l-0.762,0.253l-0.634,0.253
	l-0.634,0.127l-0.76,0.127l-0.636,0.126h-0.762h-0.76l-0.634-0.126l-0.255-0.127l0.634,0.762l0.762,0.888l0.634,0.889l0.762,1.014
	l0.634,1.015l0.634,1.017l0.381,0.634l0.508,0.634l0.379,0.634l0.381,0.507l0.381,0.634l0.381,0.636l0.255,0.507l0.381,0.634l0,0
	h0.126l0.253-0.634l0.381-0.507l0.381-0.636l0.381-0.634l0.381-0.507l0.379-0.634l0.381-0.634l0.508-0.634l0.634-1.017l0.634-1.015
	l0.762-1.014l0.634-0.889l0.762-0.888L49.361,223.333L49.361,223.333z"/>
<path fill-rule="evenodd" clip-rule="evenodd" fill="#D7AE00" d="M42.127,196.052c-6.089,0-9.135-6.218-8.881-20.177
	c-0.253-12.816,4.821-20.177,6.853-32.231c1.015-5.965,3.171-6.091,4.187,0c1.777,12.054,7.106,19.415,6.727,32.231
	C51.265,189.833,48.346,196.052,42.127,196.052L42.127,196.052z M45.428,318.12V431.06h-6.091V317.997
	c-4.696,1.904-10.151-2.033-17.004-12.691c-7.233-10.529-7.106-19.541-12.054-30.709c-2.411-5.455-0.634-6.727,3.552-2.285
	c8.121,9.012,16.623,12.311,23.348,23.227c2.285,3.299,3.935,6.34,5.077,8.883c1.141-2.543,2.918-5.584,5.074-8.883
	c6.853-10.916,15.227-14.215,23.476-23.227c4.061-4.441,5.837-3.17,3.426,2.285c-4.822,11.168-4.695,20.18-12.054,30.709
	C55.579,315.841,50.123,319.772,45.428,318.12L45.428,318.12z M40.859,284.493c-5.076,3.428-11.039-0.123-18.526-11.924
	c-7.233-10.534-7.106-19.544-12.054-30.71c-2.411-5.455-0.634-6.725,3.552-2.284c8.121,9.01,16.623,12.309,23.348,23.222
	c2.285,3.297,3.935,6.344,5.077,8.881c1.141-2.537,2.918-5.584,5.074-8.881c6.853-10.913,15.227-14.212,23.476-23.222
	c4.061-4.441,5.837-3.171,3.426,2.284c-4.822,11.167-4.695,20.177-12.054,30.71c-7.487,11.801-13.324,15.352-18.4,11.924
	c-0.634-0.375-1.015-0.756-1.522-1.143C41.875,283.737,41.367,284.118,40.859,284.493L40.859,284.493z M40.859,251.884
	c-5.076,3.426-11.039-0.127-18.526-11.928c-7.233-10.532-7.106-19.542-12.054-30.709c-2.411-5.455-0.634-6.725,3.552-2.284
	c8.121,9.01,16.623,12.309,23.348,23.222c2.285,3.299,3.935,6.344,5.077,8.881c1.141-2.537,2.918-5.583,5.074-8.881
	c6.853-10.913,15.227-14.212,23.476-23.222c4.061-4.441,5.837-3.171,3.426,2.284c-4.822,11.167-4.695,20.177-12.054,30.709
	c-7.487,11.801-13.324,15.354-18.4,11.928c-0.634-0.381-1.015-0.762-1.522-1.143C41.875,251.123,41.367,251.503,40.859,251.884
	L40.859,251.884z M40.859,220.034c-5.076,3.299-11.039-0.255-18.526-11.928c-7.233-10.532-7.106-19.541-12.054-30.709
	c-2.411-5.457-0.634-6.851,3.552-2.284c8.121,9.009,16.623,12.309,23.348,23.221c2.285,3.3,3.935,6.218,5.077,8.757
	c1.141-2.539,2.918-5.457,5.074-8.757c6.853-10.912,15.227-14.212,23.476-23.221c4.061-4.567,5.837-3.173,3.426,2.284
	c-4.822,11.168-4.695,20.177-12.054,30.709c-7.487,11.673-13.324,15.227-18.4,11.928c-0.634-0.381-1.015-0.762-1.522-1.27
	C41.875,219.272,41.367,219.653,40.859,220.034L40.859,220.034z"/>
<path fill-rule="evenodd" clip-rule="evenodd" fill="#FFDF30" d="M237.292,198.208h-0.126l-0.381,0.634l-0.381,0.634l-0.381,0.634
	l-0.381,0.508l-0.255,0.634l-0.381,0.507v0.127l-0.126-0.127l-0.255-0.507l-0.381-0.634l-0.381-0.508l-0.378-0.634l-0.381-0.634
	l-0.381-0.634l-0.129-0.127l0.381,0.127l0.636,0.126h0.762l0.762,0.127l0.759-0.127h0.636L237.292,198.208L237.292,198.208z
	 M228.79,320.786v113.572h12.182V320.786h0.255l0.633-0.123l0.762-0.129l0.636-0.252l0.762-0.258l0.633-0.252l0.762-0.381
	l0.633-0.381l0.636-0.51l0.636-0.504l0.762-0.51l0.633-0.633l0.636-0.51l0.633-0.762l0.762-0.633l0.636-0.762l0.633-0.762
	l0.636-0.891l0.762-0.885l0.633-0.891l0.762-1.014l0.636-1.014l0.762-1.014l0.633-1.02l0.636-1.014l0.759-1.014l0.51-1.014
	l0.633-1.02l0.51-1.014l0.507-1.014l0.507-1.014l0.507-1.02l0.381-0.885l0.381-1.02l0.381-1.014l0.381-0.885l0.255-1.02l0.381-1.014
	l0.252-0.885l0.255-1.02l0.255-0.885l0.378-0.891l0.255-1.014l0.255-0.891l0.255-1.014l0.252-0.891l0.255-0.885l0.381-1.02
	l0.252-0.885l0.255-1.014l0.381-0.891l0.381-1.014l0.252-1.014l0.381-0.891l0.381-1.014l0.51-1.02l0.381-1.137l0.378-1.02
	l0.255-0.885l0.255-0.891v-1.014l-0.129-0.891l-0.381-1.143l-0.888-0.885l-1.269-0.51h-1.143l-0.888,0.252l-0.888,0.51l-0.762,0.51
	l-0.762,0.633l-0.762,0.762l-0.888,0.762l-0.762,0.885l-0.633,0.762l-0.762,0.762l-0.762,0.639l-0.762,0.762l-0.762,0.633
	l-0.762,0.633l-0.762,0.633l-0.759,0.639l-0.51,0.504l0.381-0.504l0.636-1.014l0.762-1.02l0.633-1.014l0.636-1.014l0.759-1.02
	l0.51-1.014l0.633-1.014l0.51-1.014l0.507-1.02l0.507-1.014l0.507-1.014l0.381-0.89l0.381-1.015l0.381-1.015l0.381-0.888
	l0.255-1.015l0.381-1.015l0.252-0.888l0.255-0.889l0.255-1.015l0.378-0.888l0.255-1.015l0.255-0.888l0.255-1.017l0.252-0.888
	l0.255-0.888l0.381-1.015l0.252-0.889l0.255-1.015l0.381-0.888l0.381-1.015l0.252-1.015l0.381-0.889l0.381-1.014l0.51-1.015
	l0.381-1.143l0.378-1.015l0.255-0.888l0.255-0.889v-1.015l-0.129-0.888l-0.381-1.015l-0.888-1.017l-1.269-0.507h-1.143l-0.888,0.253
	l-0.888,0.508l-0.762,0.508l-0.762,0.634l-0.762,0.76l-0.888,0.762l-0.762,0.888l-0.633,0.762l-0.762,0.762l-0.762,0.634
	l-0.762,0.762l-0.762,0.634l-0.762,0.634l-0.762,0.634l-0.759,0.634l-0.255,0.381l0.126-0.253l0.636-1.015l0.762-1.015l0.633-1.015
	l0.636-1.015l0.759-1.015l0.51-1.015l0.633-1.015l0.51-1.015l0.507-1.015l0.507-1.015l0.507-1.015l0.381-0.888l0.381-1.017
	l0.381-1.015l0.381-0.888l0.255-1.015l0.381-1.015l0.252-0.888l0.255-0.889l0.255-1.014l0.378-0.889l0.255-1.015l0.255-0.888
	l0.255-1.017l0.252-0.888l0.255-0.888l0.381-1.015l0.252-0.889l0.255-1.015l0.381-0.888l0.381-1.015l0.252-1.015l0.381-0.889
	l0.381-1.014l0.51-1.015l0.381-1.143l0.378-1.015l0.255-0.888l0.255-0.889v-1.015l-0.129-0.888l-0.381-1.015l-0.888-1.017
	l-1.269-0.507h-1.143l-0.888,0.253l-0.888,0.508l-0.762,0.508l-0.762,0.634l-0.762,0.76l-0.888,0.762l-0.762,0.888l-0.633,0.762
	l-0.762,0.762l-0.762,0.634l-0.762,0.762l-0.762,0.634l-0.762,0.634l-0.633,0.634l0.381-0.507l0.633-1.143l0.636-1.015l0.759-1.015
	l0.51-1.015l0.633-1.015l0.51-1.015l0.507-1.015l0.507-0.889l0.507-1.014l0.381-1.015l0.381-1.017l0.381-0.888l0.381-1.015
	l0.255-0.888l0.381-1.015l0.252-0.889l0.255-1.015l0.255-0.888l0.378-1.015l0.255-0.888l0.255-1.015l0.255-0.889l0.252-0.888
	l0.255-1.015l0.381-0.888l0.252-1.015l0.255-0.889l0.381-1.015l0.381-0.888l0.252-1.015l0.381-1.017l0.381-1.014l0.51-1.015
	l0.381-1.015l0.378-1.015l0.255-1.015l0.255-0.889v-0.888l-0.129-1.015l-0.381-1.015l-0.888-1.015l-1.269-0.507l-1.143,0.126
	l-0.888,0.253l-0.888,0.381l-0.762,0.508l-0.762,0.634l-0.762,0.76l-0.888,0.889l-0.762,0.762l-0.633,0.76l-0.762,0.762
	l-0.762,0.762l-0.762,0.634l-0.762,0.762l-0.762,0.634l-0.762,0.634l-0.759,0.634l-0.636,0.634l-0.762,0.634l-0.762,0.636
	l-0.762,0.634l-0.762,0.507l-0.762,0.634l-0.759,0.634l-0.762,0.636l-0.762,0.634l-0.762,0.762l-0.762,0.634l-0.762,0.634
	l-0.507,0.507l0.255-0.762l0.126-0.888l0.126-1.015l0.126-1.015l0.129-1.143l0.126-1.141v-1.143v-1.143l0.126-1.269v-1.269v-1.269
	v-1.143v-1.269l-0.126-1.143v-1.141l-0.126-1.143l-0.129-1.143l-0.126-1.141l-0.252-1.015l-0.129-1.017l-0.252-1.014l-0.255-1.015
	l-0.255-1.015l-0.252-1.017l-0.255-1.014l-0.252-0.889l-0.255-1.015l-0.255-0.888l-0.381-1.015l-0.252-0.888l-0.255-0.889
	l-0.255-1.015l-0.381-0.888l-0.252-0.889l-0.255-1.014l-0.252-0.889l-0.255-1.015l-0.381-1.015l-0.126-0.889l-0.255-1.015
	l-0.252-1.141l-0.255-1.015l-0.129-1.143l-0.252-1.015l-0.255-1.141l-0.252-0.889l-0.381-0.888l-0.51-0.762l-0.633-0.762
	l-0.888-0.634l-1.269-0.379l-1.271,0.379l-1.014,0.634l-0.633,0.762l-0.384,0.762l-0.381,0.888l-0.378,0.889l-0.255,1.141
	l-0.126,1.143l-0.255,1.015l-0.126,1.143l-0.255,1.014l-0.252,1.015l-0.255,0.889l-0.255,1.015l-0.255,1.015l-0.252,0.889
	l-0.255,1.014l-0.252,0.889l-0.255,0.888l-0.381,1.015l-0.255,0.889l-0.252,0.888l-0.381,1.015l-0.255,0.888l-0.252,1.015
	l-0.255,0.889l-0.381,1.014l-0.255,1.017l-0.126,1.015l-0.255,1.015l-0.252,1.014l-0.255,1.017l-0.126,1.015l-0.126,1.141
	l-0.129,1.143l-0.126,1.143l-0.126,1.141v1.143v1.269v1.143v1.269v1.269v1.269l0.126,1.143v1.143l0.126,1.141l0.129,1.143
	l0.126,1.015l0.126,1.015l0.129,0.888l0.252,0.889v0.253l-0.126-0.126l-0.762-0.762l-0.762-0.634l-0.762-0.634l-0.759-0.762
	l-0.765-0.634l-0.633-0.636l-0.762-0.634l-0.762-0.634l-0.762-0.507l-0.762-0.634l-0.759-0.636l-0.762-0.634l-0.762-0.634
	l-0.762-0.634l-0.762-0.634l-0.762-0.634l-0.762-0.762l-0.762-0.634l-0.762-0.762l-0.633-0.762l-0.762-0.76l-0.762-0.762
	l-0.888-0.889l-0.762-0.76l-0.762-0.634l-0.762-0.508l-0.759-0.381l-1.017-0.253l-1.143-0.126l-1.269,0.507l-0.888,1.015
	l-0.381,1.015l-0.129,1.015l0.129,0.888l0.126,0.889l0.255,1.015l0.381,1.015l0.381,1.015l0.507,1.015l0.381,1.014l0.381,1.017
	l0.381,1.015l0.252,0.888l0.384,1.015l0.252,0.889l0.381,1.015l0.255,0.888l0.252,0.888l0.255,1.015l0.252,0.889l0.255,1.015
	l0.381,0.888l0.255,1.015l0.252,0.888l0.255,1.015l0.381,0.889l0.255,1.015l0.381,0.888l0.252,1.015l0.381,0.888l0.381,1.017
	l0.507,1.015l0.381,1.014l0.507,0.889l0.51,1.015l0.507,1.015l0.633,1.015l0.636,1.015l0.636,1.015l0.633,1.015l0.636,1.143
	l0.507,0.507l-0.762-0.634l-0.762-0.634l-0.762-0.634l-0.762-0.762l-0.762-0.634l-0.633-0.762l-0.762-0.762l-0.762-0.888
	l-0.888-0.762l-0.762-0.76l-0.762-0.634l-0.762-0.508l-0.759-0.508l-1.017-0.253h-1.143l-1.269,0.507l-0.888,0.889l-0.381,1.143
	l-0.129,0.888l0.129,1.015l0.126,0.889l0.255,0.888l0.381,1.015l0.381,1.143l0.507,1.015l0.381,1.014l0.381,0.889l0.381,1.015
	l0.252,1.015l0.384,0.888l0.252,1.015l0.381,0.889l0.255,1.015l0.252,0.888l0.255,0.888l0.252,1.017l0.255,0.888l0.381,1.015
	l0.255,0.889l0.252,1.014l0.255,0.889l0.381,0.888l0.255,1.015l0.381,1.015l0.252,0.888l0.381,1.015l0.381,1.017l0.507,0.888
	l0.381,1.015l0.507,1.015l0.51,1.015l0.507,1.015l0.633,1.015l0.636,1.015l0.636,1.015l0.633,1.015l0.636,1.015l0.762,1.015
	l0.759,1.015v0.253l-0.252-0.381l-0.762-0.634l-0.762-0.634l-0.762-0.634l-0.762-0.634l-0.762-0.762l-0.762-0.634l-0.633-0.762
	l-0.762-0.762l-0.762-0.888l-0.888-0.762l-0.762-0.76l-0.762-0.634l-0.762-0.508l-0.759-0.508l-1.017-0.253h-1.143l-1.269,0.507
	l-0.888,0.889l-0.381,1.143l-0.129,0.888l0.129,1.015l0.126,0.889l0.255,0.888l0.381,1.015l0.381,1.143l0.507,1.015l0.381,1.014
	l0.381,0.889l0.381,1.015l0.252,1.015l0.384,0.888l0.252,1.015l0.381,0.889l0.255,1.015l0.252,0.888l0.255,0.888l0.252,1.017
	l0.255,0.888l0.381,1.015l0.255,0.888l0.252,1.015l0.255,0.889l0.381,0.888l0.255,1.015l0.381,1.015l0.252,0.888l0.381,1.015
	l0.381,1.015l0.507,0.89l0.381,1.014l0.507,1.014l0.51,1.02l0.507,1.014l0.633,1.014l0.636,1.014l0.636,1.02l0.633,1.014
	l0.636,1.014l0.762,1.02l0.759,1.014l0.255,0.504l-0.507-0.504l-0.762-0.639l-0.762-0.633l-0.762-0.633l-0.762-0.633l-0.762-0.762
	l-0.762-0.639l-0.633-0.762l-0.762-0.762l-0.762-0.885l-0.888-0.762l-0.762-0.762l-0.762-0.633l-0.762-0.51l-0.759-0.51
	l-1.017-0.252h-1.143l-1.269,0.51l-0.888,0.885l-0.381,1.143l-0.129,0.891l0.129,1.014l0.126,0.891l0.255,0.885l0.381,1.02
	l0.381,1.137l0.507,1.02l0.381,1.014l0.381,0.891l0.381,1.014l0.252,1.014l0.384,0.891l0.252,1.014l0.381,0.885l0.255,1.02
	l0.252,0.885l0.255,0.891l0.252,1.014l0.255,0.891l0.381,1.014l0.255,0.891l0.252,0.885l0.255,1.02l0.381,0.885l0.255,1.014
	l0.381,1.02l0.252,0.885l0.381,1.014l0.381,1.02l0.507,0.885l0.381,1.02l0.507,1.014l0.51,1.014l0.507,1.014l0.633,1.02l0.636,1.014
	l0.636,1.014l0.633,1.014l0.636,1.02l0.762,1.014l0.759,1.014l0.636,1.014l0.636,0.891l0.759,0.885l0.636,0.891l0.636,0.762
	l0.759,0.762l0.636,0.633l0.636,0.762l0.633,0.51l0.762,0.633l0.636,0.51l0.633,0.504l0.636,0.51l0.762,0.381l0.633,0.381
	l0.636,0.252l0.762,0.258l0.633,0.252l0.762,0.129L228.79,320.786L228.79,320.786L228.79,320.786z M226.885,287.669l0.381,0.129
	l0.762,0.123l0.762,0.129h0.636h0.759h0.636l0.762-0.129l0.636-0.123l0.759-0.258l0.636-0.381l0.633-0.252l0.51-0.381l0.252-0.129
	l0.129,0.129l0.507,0.381l0.636,0.252l0.759,0.381l0.636,0.258l0.633,0.123l0.762,0.129h0.636h0.762h0.762l0.633-0.129l0.762-0.123
	l0.381-0.129l-0.126,0.129l-0.636,0.756l-0.762,0.891l-0.762,0.891l-0.633,0.885l-0.762,1.02l-0.636,1.014l-0.633,1.014
	l-0.381,0.633l-0.507,0.639l-0.381,0.504l-0.381,0.633l-0.381,0.639l-0.381,0.633l-0.255,0.51l-0.381,0.633l0,0h-0.126l-0.255-0.633
	l-0.381-0.51l-0.381-0.633l-0.378-0.639l-0.381-0.633l-0.381-0.504l-0.381-0.639l-0.51-0.633l-0.633-1.014l-0.636-1.014l-0.759-1.02
	l-0.636-0.885l-0.762-0.891l-0.762-0.891l-0.633-0.756L226.885,287.669L226.885,287.669z M227.014,255.057l0.252,0.126l0.762,0.127
	l0.762,0.126h0.636h0.759h0.636l0.762-0.126l0.636-0.253l0.759-0.127l0.636-0.381l0.633-0.253l0.51-0.381l0.252-0.126l0.129,0.126
	l0.507,0.381l0.636,0.253l0.759,0.381l0.636,0.127l0.633,0.253l0.762,0.126h0.636h0.762h0.762l0.633-0.126l0.762-0.127l0.255-0.126
	l-0.636,0.76l-0.762,0.889l-0.762,0.888l-0.633,0.889l-0.762,1.014l-0.636,1.015l-0.633,1.017l-0.381,0.634l-0.507,0.634
	l-0.381,0.634l-0.381,0.507l-0.381,0.634l-0.381,0.637l-0.255,0.506l-0.381,0.635l0,0h-0.126l-0.255-0.635l-0.381-0.506
	l-0.381-0.637l-0.378-0.634l-0.381-0.507l-0.381-0.634l-0.381-0.634l-0.51-0.634l-0.633-1.017l-0.636-1.015l-0.759-1.014
	l-0.636-0.889l-0.762-0.888l-0.762-0.889L227.014,255.057L227.014,255.057z M227.773,223.333l0.255,0.127l0.762,0.126h0.636h0.759
	l0.636-0.126l0.762-0.127l0.636-0.127l0.759-0.253l0.636-0.253l0.633-0.381l0.51-0.381h0.252h0.129l0.507,0.381l0.636,0.381
	l0.759,0.253l0.636,0.253l0.633,0.127l0.762,0.127l0.636,0.126h0.762h0.762l0.633-0.126l0.255-0.127l-0.636,0.762l-0.762,0.888
	l-0.633,0.889l-0.762,1.014l-0.636,1.015l-0.633,1.017l-0.381,0.634l-0.507,0.634l-0.381,0.634l-0.381,0.507l-0.381,0.634
	l-0.381,0.636l-0.255,0.507l-0.381,0.634l0,0h-0.126l-0.255-0.634l-0.381-0.507l-0.381-0.636l-0.378-0.634l-0.381-0.507
	l-0.381-0.634l-0.381-0.634l-0.51-0.634l-0.633-1.017l-0.636-1.015l-0.759-1.014l-0.636-0.889l-0.762-0.888L227.773,223.333
	L227.773,223.333z"/>
<path fill-rule="evenodd" clip-rule="evenodd" fill="#D7AE00" d="M235.135,196.052c6.091,0,9.009-6.218,8.883-20.177
	c0.252-12.816-4.822-20.177-6.853-32.231c-1.017-5.965-3.173-6.091-4.189,0c-1.901,12.054-7.104,19.415-6.724,32.231
	C225.998,189.833,228.916,196.052,235.135,196.052L235.135,196.052z M231.833,318.12V431.06h6.091V317.997
	c4.696,1.904,10.154-2.033,16.878-12.691c7.359-10.529,7.233-19.541,12.182-30.709c2.411-5.455,0.636-6.727-3.554-2.285
	c-8.121,9.012-16.623,12.311-23.347,23.227c-2.285,3.299-3.935,6.34-5.077,8.883c-1.143-2.543-2.918-5.584-5.074-8.883
	c-6.853-10.916-15.229-14.215-23.476-23.227c-4.061-4.441-5.965-3.17-3.425,2.285c4.819,11.168,4.693,20.18,12.053,30.709
	C221.685,315.841,227.14,319.772,231.833,318.12L231.833,318.12z M236.404,284.493c5.074,3.428,11.039-0.123,18.398-11.924
	c7.359-10.534,7.233-19.544,12.182-30.71c2.411-5.455,0.636-6.725-3.554-2.284c-8.121,9.01-16.623,12.309-23.347,23.222
	c-2.285,3.297-3.935,6.344-5.077,8.881c-1.143-2.537-2.918-5.584-5.074-8.881c-6.853-10.913-15.229-14.212-23.476-23.222
	c-4.061-4.441-5.965-3.171-3.425,2.284c4.819,11.167,4.693,20.177,12.053,30.71c7.359,11.801,13.324,15.352,18.401,11.924
	c0.633-0.375,1.014-0.756,1.521-1.143C235.387,283.737,235.894,284.118,236.404,284.493L236.404,284.493z M236.404,251.884
	c5.074,3.426,11.039-0.127,18.398-11.928c7.359-10.532,7.233-19.542,12.182-30.709c2.411-5.455,0.636-6.725-3.554-2.284
	c-8.121,9.01-16.623,12.309-23.347,23.222c-2.285,3.299-3.935,6.344-5.077,8.881c-1.143-2.537-2.918-5.583-5.074-8.881
	c-6.853-10.913-15.229-14.212-23.476-23.222c-4.061-4.441-5.965-3.171-3.425,2.284c4.819,11.167,4.693,20.177,12.053,30.709
	c7.359,11.801,13.324,15.354,18.401,11.928c0.633-0.381,1.014-0.762,1.521-1.143C235.387,251.123,235.894,251.503,236.404,251.884
	L236.404,251.884z M236.404,220.034c5.074,3.299,11.039-0.255,18.398-11.928c7.359-10.532,7.233-19.541,12.182-30.709
	c2.411-5.457,0.636-6.851-3.554-2.284c-8.121,9.009-16.623,12.309-23.347,23.221c-2.285,3.3-3.935,6.218-5.077,8.757
	c-1.143-2.539-2.918-5.457-5.074-8.757c-6.853-10.912-15.229-14.212-23.476-23.221c-4.061-4.567-5.965-3.173-3.425,2.284
	c4.819,11.168,4.693,20.177,12.053,30.709c7.359,11.673,13.324,15.227,18.401,11.928c0.633-0.381,1.014-0.762,1.521-1.27
	C235.387,219.272,235.894,219.653,236.404,220.034L236.404,220.034z"/>
<path fill-rule="evenodd" clip-rule="evenodd" fill="#FFDF30" d="M197.7,514.046l-59.259-41.619l-59.133,41.619
	c0-155.191,0-294.139,0-449.331l59.133,41.622L197.7,64.715C197.7,219.907,197.7,358.854,197.7,514.046L197.7,514.046z"/>
<polygon fill-rule="evenodd" clip-rule="evenodd" fill="#D7AE00" points="194.401,507.577 138.441,468.237 82.608,507.577 
	82.608,71.313 138.441,110.524 194.401,71.313 194.401,507.577 "/>
<polygon fill-rule="evenodd" clip-rule="evenodd" fill="#FFFFFF" points="17.511,333.981 259.499,333.981 259.499,411.771 
	17.511,411.771 17.511,333.981 "/>
<path fill-rule="evenodd" clip-rule="evenodd" fill="#009BD5" d="M17.511,394.134h241.988v8.883H17.511V394.134L17.511,394.134z
	 M17.511,377.001h241.988v8.883H17.511V377.001L17.511,377.001z M17.511,359.487h241.988v8.883H17.511V359.487L17.511,359.487z
	 M17.511,342.36h241.988v8.883H17.511V342.36L17.511,342.36z"/>
<path fill-rule="evenodd" clip-rule="evenodd" fill="#FFFFFF" d="M113.823,176.509h18.527v27.028v0.634v0.636v0.634v0.507v0.634
	v0.508l0.126,0.507v0.508v0.381v0.507v0.381v0.381v0.381l0.127,0.381v0.253v0.253v0.255l0.127,0.253v0.253v0.253l0.126,0.253v0.255
	v0.126l0.127,0.253v0.255l0.127,0.126v0.255v0.127l0.126,0.126v0.253l0.127,0.127v0.127l0.126,0.253l0.127,0.253l0.255,0.253
	l0.126,0.255l0.253,0.253l0.255,0.126l0.253,0.255l0.253,0.126l0.253,0.127h0.127l0.127,0.126h0.253l0.253,0.127h0.127l0.253,0.127
	h0.253l0.253,0.126h0.253h0.127h0.381l0.255,0.127h0.253h0.253h0.253h0.381h0.253h0.255l0.253-0.127h0.253h0.253h0.254l0.255-0.126
	h0.253l0.256-0.127h0.125l0.254-0.127h0.127l0.254-0.126h0.127l0.127-0.127l0.381-0.126l0.254-0.255l0.254-0.126l0.252-0.253
	l0.129-0.255l0.126-0.253l0.255-0.253l0.126-0.253v-0.127l0.129-0.127v-0.253l0.126-0.126v-0.127v-0.255l0.126-0.126v-0.255
	l0.126-0.253v-0.126v-0.255l0.129-0.253v-0.253v-0.253l0.126-0.253v-0.255v-0.253v-0.253v-0.381l0.126-0.381v-0.381v-0.381v-0.507
	v-0.381v-0.508l0.129-0.507v-0.508v-0.634v-0.507v-0.634v-0.636v-0.634v-27.028h18.524v29.186v0.507v0.508v0.508v0.507l-0.126,0.507
	v0.508v0.381v0.507v0.508v0.381v0.507v0.381l-0.126,0.381v0.507v0.381v0.381l-0.129,0.381v0.381v0.381v0.381l-0.126,0.381v0.381
	l-0.126,0.379v0.381v0.253l-0.129,0.381v0.253l-0.126,0.382v0.253l-0.126,0.381v0.253l-0.129,0.253l-0.126,0.508l-0.126,0.634
	l-0.255,0.507l-0.126,0.508l-0.255,0.508l-0.126,0.507l-0.255,0.507l-0.252,0.508l-0.255,0.507l-0.252,0.381l-0.255,0.508
	l-0.255,0.508l-0.381,0.379l-0.252,0.381l-0.381,0.508l-0.255,0.379l-0.381,0.381l-0.507,0.508l-0.381,0.381l-0.507,0.379
	l-0.381,0.382l-0.507,0.379l-0.51,0.381l-0.507,0.381l-0.507,0.253l-0.51,0.381l-0.507,0.253l-0.633,0.255l-0.507,0.253
	l-0.636,0.253l-0.636,0.253l-0.633,0.253l-0.255,0.127l-0.381,0.127h-0.252l-0.381,0.126l-0.255,0.127l-0.381,0.127h-0.381
	l-0.255,0.127h-0.381l-0.378,0.126l-0.381,0.127h-0.255l-0.381,0.126H145.8l-0.381,0.127h-0.381h-0.381l-0.378,0.127h-0.384h-0.381
	l-0.378,0.126h-0.382h-0.381h-0.38l-0.381,0.127h-0.381h-0.381h-0.381h-0.508h-0.379h-0.381h-0.508h-0.381h-0.379h-0.381h-0.508
	h-0.381h-0.381h-0.381l-0.379-0.127h-0.381h-0.508h-0.381l-0.379-0.126h-0.382h-0.379l-0.381-0.127h-0.255h-0.379l-0.381-0.127
	h-0.381l-0.381-0.126h-0.381l-0.253-0.127l-0.381-0.126h-0.381l-0.253-0.127h-0.381l-0.381-0.127l-0.253-0.127l-0.381-0.126h-0.253
	l-0.381-0.127l-0.253-0.127l-0.636-0.253l-0.634-0.253l-0.634-0.253l-0.507-0.253l-0.634-0.255l-0.508-0.253l-0.507-0.381
	l-0.508-0.253l-0.508-0.381l-0.507-0.381l-0.507-0.379l-0.508-0.382l-0.381-0.379l-0.507-0.381l-0.381-0.381l-0.381-0.508
	l-0.381-0.379l-0.253-0.508l-0.381-0.381l-0.253-0.508l-0.255-0.379l-0.253-0.508l-0.253-0.381l-0.253-0.507l-0.253-0.508
	l-0.255-0.507l-0.253-0.507l-0.127-0.508l-0.253-0.508l-0.126-0.507l-0.127-0.508l-0.127-0.634l-0.127-0.253l-0.126-0.253v-0.381
	l-0.127-0.253v-0.382v-0.253l-0.127-0.381V216.1l-0.126-0.381v-0.379v-0.381l-0.127-0.381v-0.381v-0.381l-0.126-0.381v-0.381v-0.381
	v-0.381l-0.127-0.507v-0.381v-0.381v-0.507v-0.381l-0.127-0.508v-0.507v-0.381v-0.508v-0.507v-0.507v-0.508v-0.508v-0.507V176.509
	L113.823,176.509z M109.255,171.56l19.16-55.452h20.684l19.163,55.452h-18.908l-2.537-9.136h-15.989l-2.666,9.136H109.255
	L109.255,171.56z M135.142,147.831h7.232l-3.553-11.801L135.142,147.831L135.142,147.831z M121.056,293.634v-55.455h35.783v15.861
	h-17.511v4.062h16.623v15.609h-16.623v19.922H121.056L121.056,293.634z"/>
<path fill-rule="evenodd" clip-rule="evenodd" fill="#E2001A" d="M116.235,178.92h13.704v24.617c0,3.554,0.126,6.218,0.255,7.742
	c0.253,1.648,0.507,2.918,1.014,3.933c0.508,1.396,1.396,2.284,2.792,3.045c1.269,0.634,2.918,1.015,4.695,1.015
	c1.903,0,3.553-0.381,4.821-1.015c1.271-0.762,2.285-1.649,2.792-3.045c0.51-1.015,0.762-2.285,1.017-3.933
	c0.126-1.523,0.252-4.188,0.252-7.742v-3.552V178.92h13.705v26.774c0,5.457-0.381,9.645-1.014,12.309
	c-0.636,2.539-1.778,4.821-3.428,6.725c-1.649,2.03-4.061,3.554-7.104,4.569c-3.047,1.014-6.726,1.522-11.041,1.522
	c-4.314,0-7.994-0.508-10.913-1.522c-3.045-1.015-5.457-2.539-7.232-4.569c-1.523-1.904-2.666-4.187-3.3-6.725
	c-0.76-2.665-1.014-6.853-1.014-12.309v-5.329V178.92L116.235,178.92z M112.554,169.148l17.511-50.629h17.259l17.511,50.629h-13.705
	l-2.537-9.009h-19.668l-2.539,9.009H112.554L112.554,169.148z M131.969,150.242h13.705l-5.203-16.749
	c-0.128-0.508-0.381-1.27-0.634-2.411c-0.253-1.143-0.634-2.539-1.015-4.314c-0.381,1.269-0.634,2.41-0.888,3.552
	c-0.255,1.143-0.636,2.156-0.889,3.173L131.969,150.242L131.969,150.242z M123.467,291.22V240.59h31.09v11.041h-17.64v8.881h16.623
	v10.786h-16.623v19.922H123.467L123.467,291.22z"/>
<path fill-rule="evenodd" clip-rule="evenodd" fill="#009BD5" d="M202.015,26.902h21.826l6.853-20.811l6.724,20.811h21.826
	l-17.637,12.816l6.724,20.811l-17.637-12.817l-17.766,12.817l6.724-20.811L202.015,26.902L202.015,26.902z M140.471,26.902h21.826
	l6.853-20.811l6.724,20.811H197.7l-17.637,12.816l6.724,20.811L169.15,47.711l-17.766,12.817l6.724-20.811L140.471,26.902
	L140.471,26.902z M78.546,26.902h21.826l6.853-20.811l6.725,20.811h21.826l-17.638,12.816l6.725,20.811l-17.638-12.817
	L89.459,60.529l6.725-20.811L78.546,26.902L78.546,26.902z M17.13,26.902h21.826l6.725-20.811l6.725,20.811h21.826L56.594,39.718
	l6.725,20.811L45.681,47.711L27.917,60.529l6.851-20.811L17.13,26.902L17.13,26.902z"/>
<path fill-rule="evenodd" clip-rule="evenodd" fill="#86C3E7" d="M182.981,55.326l-5.329-16.37l-8.502-2.792L182.981,55.326
	L182.981,55.326z M155.19,55.326l13.96-10.151v-9.01L155.19,55.326L155.19,55.326z M146.688,28.932l13.834,10.024l8.628-2.792
	L146.688,28.932L146.688,28.932z M169.15,36.164V12.69l-5.329,16.242L169.15,36.164L169.15,36.164z M169.15,36.164l22.333-7.232
	H174.35L169.15,36.164L169.15,36.164z M59.512,55.326l-5.329-16.37l-8.502-2.792L59.512,55.326L59.512,55.326z M31.85,55.326
	l13.831-10.151v-9.01L31.85,55.326L31.85,55.326z M23.221,28.932l13.833,10.024l8.628-2.792L23.221,28.932L23.221,28.932z
	 M45.681,36.164V12.69l-5.329,16.242L45.681,36.164L45.681,36.164z M45.681,36.164l22.46-7.232H50.884L45.681,36.164L45.681,36.164z
	 M244.525,55.326l-5.329-16.37l-8.502-2.792L244.525,55.326L244.525,55.326z M216.734,55.326l13.96-10.151v-9.01L216.734,55.326
	L216.734,55.326z M208.232,28.932l13.831,10.024l8.631-2.792L208.232,28.932L208.232,28.932z M230.694,36.164V12.69l-5.332,16.242
	L230.694,36.164L230.694,36.164z M230.694,36.164l22.333-7.232h-17.133L230.694,36.164L230.694,36.164z M121.056,55.326
	l-5.329-16.37l-8.502-2.792L121.056,55.326L121.056,55.326z M93.267,55.326l13.958-10.151v-9.01L93.267,55.326L93.267,55.326z
	 M84.765,28.932l13.831,10.024l8.629-2.792L84.765,28.932L84.765,28.932z M107.225,36.164V12.69l-5.329,16.242L107.225,36.164
	L107.225,36.164z M107.225,36.164l22.333-7.232h-17.13L107.225,36.164L107.225,36.164z"/>
<path fill-rule="evenodd" clip-rule="evenodd" fill="#D7AE00" d="M138.568,382.837c20.556,0,37.179,16.623,37.179,37.184
	c0,20.555-16.623,37.307-37.179,37.307c-20.558,0-37.307-16.752-37.307-37.307C101.262,399.46,118.011,382.837,138.568,382.837
	L138.568,382.837z"/>
<path fill-rule="evenodd" clip-rule="evenodd" d="M138.568,381.442c21.192,0,38.574,17.385,38.574,38.578
	c0,21.188-17.382,38.572-38.574,38.572c-21.319,0-38.577-17.385-38.577-38.572C99.992,398.827,117.249,381.442,138.568,381.442
	L138.568,381.442z M146.817,455.804c-2.666,0.504-5.456,0.885-8.249,0.885c-2.919,0-5.584-0.381-8.249-0.885l-8.755-12.439
	l7.359-10.02h7.233l0,0h12.054l7.359,10.02L146.817,455.804L146.817,455.804z M175.115,423.19c-0.255,2.789-0.891,5.455-1.652,8.121
	c-0.888,2.795-2.156,5.332-3.551,7.611l-14.341,4.441l-7.359-10.02l2.285-6.979l0,0l3.68-11.426l11.801-3.803L175.115,423.19
	L175.115,423.19z M152.779,386.265c2.54,1.014,4.951,2.408,7.362,4.061c2.282,1.775,4.313,3.551,6.088,5.713l-0.252,15.1
	l-11.801,3.803l-5.836-4.313l0,0l-9.772-7.107v-12.434L152.779,386.265L152.779,386.265z M110.905,396.038
	c1.777-2.162,3.807-3.938,6.091-5.713c2.285-1.652,4.695-3.047,7.233-4.061l14.339,4.822v12.434l-5.965,4.318l0,0l-9.771,7.102
	l-11.801-3.803L110.905,396.038L110.905,396.038z M107.098,438.923c-1.396-2.279-2.537-4.816-3.426-7.611
	c-0.888-2.666-1.395-5.332-1.649-8.121l9.01-12.053l11.801,3.803l2.284,6.979l0,0l3.807,11.426l-7.359,10.02L107.098,438.923
	L107.098,438.923z"/>
</svg>
