<?xml version="1.0" encoding="utf-8"?>
<!-- Generator: Adobe Illustrator 13.0.0, SVG Export Plug-In . SVG Version: 6.00 Build 14948)  -->
<!DOCTYPE svg PUBLIC "-//W3C//DTD SVG 1.0//EN" "http://www.w3.org/TR/2001/REC-SVG-20010904/DTD/svg10.dtd">
<svg version="1.0" id="HQFL" xmlns="http://www.w3.org/2000/svg" xmlns:xlink="http://www.w3.org/1999/xlink" x="0px" y="0px"
	 width="248.272px" height="318.466px" viewBox="0 0 248.272 318.466" enable-background="new 0 0 248.272 318.466"
	 xml:space="preserve">
<path d="M44.192,222.547H25.435v0.573c0.798,0.177,0.997,0.444,0.997,1.284v19.516c0,0.838-0.199,1.06-0.997,1.282v0.576h6.571
	v-0.576c-0.835-0.222-0.995-0.444-0.995-1.282v-8.363h8.403c0.756,0,0.995,0.176,1.154,1.061h0.519v-5.886h-0.519
	c-0.199,0.974-0.398,1.063-1.154,1.063h-8.403v-5.134h13.181c0.757,0,0.997,0.222,1.155,1.106h0.519v-6.327h-0.519
	C45.149,222.415,44.95,222.547,44.192,222.547z"/>
<path d="M59.008,222.147c-7.208,0-12.027,5.313-12.027,11.993s4.938,12.036,12.027,12.036c7.249,0,12.105-5.355,12.105-12.036
	S66.336,222.147,59.008,222.147z M59.047,241.84c-4.739,0-7.646-3.232-7.646-7.833c0-4.601,2.945-7.876,7.606-7.876
	c4.78,0,7.687,3.275,7.687,7.876C66.695,238.608,63.748,241.84,59.047,241.84z"/>
<path d="M87.005,222.147c-7.208,0-12.028,5.313-12.028,11.993s4.938,12.036,12.028,12.036c7.249,0,12.107-5.355,12.107-12.036
	S94.333,222.147,87.005,222.147z M87.045,241.84c-4.739,0-7.647-3.232-7.647-7.833c0-4.601,2.947-7.876,7.607-7.876
	c4.779,0,7.686,3.275,7.686,7.876C94.691,238.608,91.744,241.84,87.045,241.84z"/>
<path d="M120.099,222.547h-17.523c-0.758,0-0.995-0.222-1.155-1.106h-0.517v6.282h0.517c0.199-0.929,0.397-1.062,1.155-1.062h6.452
	v17.259c0,0.838-0.199,1.06-0.996,1.282v0.576h6.531v-0.576c-0.835-0.222-0.956-0.444-0.956-1.282v-17.259h6.492
	c0.756,0,0.996,0.222,1.155,1.106h0.517v-6.327h-0.517C121.054,222.415,120.855,222.547,120.099,222.547z"/>
<path d="M144.87,233.299c1.912-1.106,2.867-2.699,2.867-4.823c0-3.541-2.548-5.929-7.487-5.929h-14.137v0.573
	c0.795,0.177,0.996,0.444,0.996,1.284v19.516c0,0.838-0.2,1.06-0.996,1.282v0.576h13.66c5.616,0,8.603-2.613,8.603-6.816
	C148.375,236.396,147.219,234.583,144.87,233.299z M131.687,226.307h7.368c2.987,0,4.262,0.576,4.262,2.566
	c0,1.726-1.195,2.524-3.705,2.524h-7.925V226.307z M138.378,241.84h-6.691v-6.329h6.851c3.543,0,5.335,0.841,5.335,3.186
	C143.873,241.264,142.122,241.84,138.378,241.84z"/>
<path d="M173.186,242.947l-8.006-18.054c-0.118-0.312-0.199-0.576-0.199-0.798c0-0.487,0.28-0.706,0.996-0.974v-0.573h-7.088v0.573
	c0.717,0.222,1.115,0.576,1.115,1.106c0,0.222-0.081,0.4-0.199,0.666l-7.767,18.054c-0.438,1.06-0.677,1.901-1.872,2.256v0.576
	h6.492v-0.576c-0.717-0.265-0.997-0.53-0.997-1.017c0-0.222,0.081-0.487,0.199-0.798l1.435-3.584h9.598l1.514,3.584
	c0.118,0.311,0.199,0.576,0.199,0.798c0,0.487-0.279,0.752-0.997,1.017v0.576h7.528v-0.576
	C174.18,244.938,173.742,244.186,173.186,242.947z M158.689,236.664l3.543-8.188l3.385,8.188H158.689z"/>
<path d="M196.642,241.619H183.54v-17.214c0-0.84,0.199-1.106,0.995-1.284v-0.573h-6.571v0.573c0.796,0.177,0.995,0.444,0.995,1.284
	v19.516c0,0.838-0.199,1.06-0.995,1.282v0.576h18.678c0.758,0,0.996,0.222,1.155,1.106h0.517v-6.329h-0.517
	C197.598,241.529,197.399,241.619,196.642,241.619z"/>
<path d="M221.89,240.556c-0.199,0.974-0.397,1.063-1.154,1.063h-13.104v-17.214c0-0.84,0.2-1.106,0.997-1.284v-0.573h-6.571v0.573
	c0.797,0.177,0.996,0.444,0.996,1.284v19.516c0,0.838-0.199,1.06-0.996,1.282v0.576h18.678c0.756,0,0.995,0.222,1.154,1.106h0.519
	v-6.329H221.89z"/>
<path d="M46.975,314.526l-8.004-18.053c-0.12-0.311-0.199-0.576-0.199-0.796c0-0.488,0.278-0.708,0.995-0.976v-0.573h-7.09v0.573
	c0.718,0.222,1.117,0.576,1.117,1.106c0,0.222-0.08,0.4-0.2,0.666l-7.765,18.053c-0.438,1.063-0.677,1.903-1.871,2.257v0.576h6.49
	v-0.576c-0.717-0.267-0.995-0.53-0.995-1.017c0-0.222,0.079-0.487,0.2-0.798l1.433-3.584h9.598l1.512,3.584
	c0.121,0.311,0.2,0.576,0.2,0.798c0,0.487-0.278,0.75-0.995,1.017v0.576h7.526v-0.576C47.972,316.517,47.534,315.766,46.975,314.526
	z M32.479,308.244l3.545-8.187l3.385,8.187H32.479z"/>
<path d="M66.49,294.701c0.795,0.179,0.955,0.444,0.955,1.285l0.041,11.902c0,3.982-1.434,6.02-6.014,6.02
	c-4.54,0-5.935-1.816-5.935-5.71v-12.212c0-0.841,0.16-1.106,0.957-1.285v-0.573h-6.531v0.573c0.795,0.179,0.957,0.444,0.957,1.285
	v12.523c0,6.591,3.065,9.248,10.512,9.248c7.727,0,10.634-2.61,10.634-9.248v-12.523c0-0.841,0.198-1.106,0.997-1.285v-0.573H66.49
	V294.701z"/>
<path d="M89.468,303.154c-5.097-0.708-8.205,0.046-8.205-2.521c0-1.595,1.832-2.878,5.099-2.878c3.863,0,7.367,2.168,7.367,3.365
	c0,0.088,0,0.131-0.039,0.219l0.677,0.4l2.548-5.488l-0.478-0.265c-0.317,0.265-0.556,0.441-0.755,0.441
	c-0.798,0-4.183-2.61-9.202-2.61c-5.972,0-9.717,3.187-9.717,7.654c0,3.852,2.469,5.932,7.447,6.417
	c4.779,0.488,8.285-0.177,8.285,2.655c0,1.727-2.152,3.143-5.537,3.143c-4.021,0-7.804-1.947-7.804-2.921
	c0-0.133,0.039-0.265,0.077-0.444l-0.636-0.308l-2.23,5.531l0.637,0.222c0.121-0.355,0.239-0.487,0.519-0.487
	c0.677,0,3.425,2.478,9.279,2.478c6.373,0,10.435-3.453,10.435-7.699C97.235,306.34,94.566,303.862,89.468,303.154z"/>
<path d="M117.704,294.128h-17.521c-0.758,0-0.997-0.222-1.155-1.106h-0.519v6.283h0.519c0.198-0.931,0.397-1.063,1.155-1.063h6.45
	v17.259c0,0.838-0.199,1.061-0.996,1.282v0.576h6.533v-0.576c-0.837-0.222-0.957-0.444-0.957-1.282v-17.259h6.491
	c0.757,0,0.996,0.222,1.155,1.106h0.519v-6.326h-0.519C118.66,293.996,118.461,294.128,117.704,294.128z"/>
<path d="M166.688,314.526l-8.004-18.053c-0.12-0.311-0.199-0.576-0.199-0.796c0-0.488,0.278-0.708,0.994-0.976v-0.573h-7.087v0.573
	c0.716,0.222,1.115,0.576,1.115,1.106c0,0.222-0.081,0.4-0.199,0.666l-7.767,18.053c-0.337,0.82-0.562,1.504-1.193,1.938
	c-0.775-0.49-1.396-0.982-1.953-1.893l-4.341-6.859c3.784-1.151,5.615-3.363,5.615-6.859c0-4.114-2.986-6.724-8.602-6.724h-13.141
	v0.573c0.796,0.222,0.995,0.444,0.995,1.285v19.515c0,0.838-0.199,1.106-0.995,1.282v0.576h6.57v-0.576
	c-0.835-0.222-0.994-0.444-0.994-1.282v-7.656h5.655l4.419,7.123c0.279,0.442,0.478,1.02,0.478,1.063
	c0,0.397-0.318,0.664-0.876,0.752v0.576h12.983v-0.576c-0.716-0.267-0.996-0.53-0.996-1.017c0-0.222,0.079-0.487,0.199-0.798
	l1.435-3.584h9.596l1.514,3.584c0.12,0.311,0.2,0.576,0.2,0.798c0,0.487-0.279,0.75-0.997,1.017v0.576h7.527v-0.576
	C167.683,316.517,167.246,315.766,166.688,314.526z M133.951,304.482h-6.45v-6.373h6.292c3.703,0,5.456,0.62,5.456,3.099
	C139.249,303.684,137.537,304.482,133.951,304.482z M152.191,308.244l3.545-8.187l3.385,8.187H152.191z"/>
<path d="M188.354,313.198H175.25v-17.211c0-0.841,0.2-1.106,0.995-1.285v-0.573h-6.571v0.573c0.798,0.179,0.997,0.444,0.997,1.285
	v19.515c0,0.838-0.199,1.061-0.997,1.282v0.576h18.68c0.755,0,0.994,0.222,1.154,1.106h0.517v-6.33h-0.517
	C189.309,313.11,189.108,313.198,188.354,313.198z"/>
<path d="M192.773,294.701c0.796,0.179,0.956,0.444,0.956,1.285v19.515c0,0.838-0.16,1.061-0.956,1.282v0.576h6.531v-0.576
	c-0.835-0.222-0.955-0.444-0.955-1.282v-19.515c0-0.841,0.16-1.106,0.955-1.285v-0.573h-6.531V294.701z"/>
<path d="M223.199,314.526l-8.004-18.053c-0.12-0.311-0.199-0.576-0.199-0.796c0-0.488,0.278-0.708,0.994-0.976v-0.573h-7.087v0.573
	c0.716,0.222,1.115,0.576,1.115,1.106c0,0.222-0.081,0.4-0.199,0.666l-7.767,18.053c-0.438,1.063-0.677,1.903-1.873,2.257v0.576
	h6.492v-0.576c-0.716-0.267-0.995-0.53-0.995-1.017c0-0.222,0.079-0.487,0.199-0.798l1.435-3.584h9.596l1.515,3.584
	c0.118,0.311,0.199,0.576,0.199,0.798c0,0.487-0.279,0.75-0.997,1.017v0.576h7.528v-0.576
	C224.194,316.517,223.756,315.766,223.199,314.526z M208.703,308.244l3.545-8.187l3.385,8.187H208.703z"/>
<path d="M197.549,195.928c0.043,0.115,0.058,0.205,0.058,0.262c0,0.233-1.314,1.109-2.875,1.109c-1.782,0-2.979-1.08-2.979-2.656
	c0-1.461,1.197-2.599,2.936-2.599c1.371,0,2.627,0.628,2.627,1.005c0,0.032,0,0.046-0.015,0.075l0.176,0.101l1.081-1.737
	l-0.162-0.101c-0.161,0.029-0.291,0.043-0.395,0.043c-0.467,0-1.489-0.686-3.27-0.686c-2.847,0-4.63,1.737-4.63,3.984
	c0,2.235,1.841,3.987,4.439,3.987c2.249,0,3.549-1.256,3.854-1.256c0.074,0,0.133,0.043,0.219,0.118l0.161-0.104l-1.066-1.65
	L197.549,195.928z"/>
<path d="M211.523,190.904h-6.424c-0.278,0-0.365-0.072-0.424-0.363h-0.19v2.071h0.19c0.074-0.305,0.146-0.349,0.424-0.349h2.365
	v5.694c0,0.278-0.074,0.35-0.365,0.422v0.191h2.394v-0.191c-0.307-0.072-0.352-0.144-0.352-0.422v-5.694h2.381
	c0.278,0,0.364,0.072,0.423,0.363h0.188v-2.086h-0.188C211.873,190.861,211.801,190.904,211.523,190.904z"/>
<path d="M223.656,191.094v-0.19h-2.818v0.19c0.205,0.061,0.291,0.132,0.291,0.294c0,0.086-0.043,0.173-0.101,0.276l-2.175,4.03
	l-2.045-4.03c-0.043-0.104-0.102-0.176-0.102-0.262c0-0.176,0.088-0.279,0.278-0.308v-0.19h-2.891v0.19
	c0.292,0.061,0.365,0.146,0.365,0.423v6.44c0,0.278-0.072,0.35-0.365,0.422v0.191h2.191v-0.191
	c-0.308-0.072-0.351-0.144-0.351-0.422v-4.908l2.817,5.462l2.964-5.462v4.908c0,0.278-0.072,0.364-0.366,0.422v0.191h2.308v-0.191
	c-0.291-0.058-0.365-0.144-0.365-0.422v-6.44C223.291,191.24,223.365,191.169,223.656,191.094z"/>
<path d="M194.723,187.196c-4.134,0-7.496,3.362-7.496,7.496c0,4.131,3.362,7.496,7.496,7.496c4.132,0,7.496-3.365,7.496-7.496
	C202.219,190.558,198.855,187.196,194.723,187.196z M194.723,200.345c-3.117,0-5.652-2.535-5.652-5.652s2.535-5.652,5.652-5.652
	c3.116,0,5.652,2.535,5.652,5.652S197.839,200.345,194.723,200.345z"/>
<path fill="#004B94" d="M97.315,275.155c-0.144,0.708-0.25,0.732-0.778,0.732c0,0-10.304,0-10.59,0c0-0.268,0-4.287,0-4.555
	c0.282,0,6.574,0,6.574,0c0.517,0,0.661,0.072,0.779,0.729l0.021,0.121h0.686v-5.004h-0.683l-0.023,0.118
	c-0.146,0.708-0.25,0.731-0.78,0.731c0,0-6.292,0-6.574,0c0-0.265,0-3.546,0-3.811c0.286,0,10.396,0,10.396,0
	c0.506,0,0.66,0.095,0.779,0.763l0.022,0.121h0.686v-5.355h-0.147h-0.536l-0.023,0.115c-0.151,0.74-0.277,0.769-0.781,0.769H81.191
	v0.726l0.117,0.026c0.566,0.124,0.681,0.274,0.681,0.881v15.612c0,0.59-0.104,0.723-0.688,0.883l-0.11,0.03v0.72h15.347
	c0.504,0,0.657,0.095,0.778,0.763l0.023,0.121h0.685v-5.355h-0.682L97.315,275.155z"/>
<path fill="#004B94" d="M42.454,275.155c-0.146,0.708-0.249,0.732-0.779,0.732c0,0-10.302,0-10.59,0c0-0.268,0-4.287,0-4.555
	c0.282,0,6.575,0,6.575,0c0.518,0,0.662,0.072,0.779,0.729l0.022,0.121h0.684v-5.004h-0.681l-0.025,0.118
	c-0.144,0.708-0.249,0.731-0.779,0.731c0,0-6.293,0-6.575,0c0-0.265,0-3.546,0-3.811c0.288,0,10.4,0,10.4,0
	c0.504,0,0.657,0.095,0.778,0.763l0.021,0.121h0.685v-5.355h-0.147h-0.534l-0.024,0.115c-0.15,0.74-0.275,0.769-0.778,0.769H26.33
	v0.726l0.117,0.026c0.565,0.124,0.68,0.274,0.68,0.881v15.612c0,0.59-0.104,0.723-0.688,0.883l-0.108,0.03v0.72h15.345
	c0.504,0,0.658,0.095,0.778,0.763l0.022,0.121h0.686v-5.355h-0.683L42.454,275.155z"/>
<path fill="#004B94" d="M69.204,262.755c-1.945-1.777-4.278-2.126-7.649-2.126h-8.252h-0.148v0.726l0.117,0.026
	c0.566,0.124,0.681,0.274,0.681,0.881v15.612c0,0.59-0.104,0.723-0.688,0.883l-0.109,0.03v0.72h8.4c3.371,0,5.703-0.346,7.649-2.126
	c1.757-1.619,2.725-4.224,2.725-7.332c0-3.083-0.968-5.674-2.724-7.292L69.204,262.755z M62.224,276.1c0,0-4.036,0-4.313,0
	c0-0.285,0-11.848,0-12.131c0.276,0,4.313,0,4.313,0c3.771,0,5.684,2.036,5.684,6.047C67.908,274.051,65.995,276.1,62.224,276.1z"/>
<path fill="#004B94" d="M16.671,259.745l-0.024,0.115c-0.151,0.74-0.275,0.769-0.779,0.769H0.714v0.726l0.115,0.026
	c0.567,0.124,0.682,0.274,0.682,0.881v15.612c0,0.59-0.103,0.723-0.688,0.883l-0.109,0.03v0.72h5.552v-0.72l-0.109-0.03
	c-0.597-0.157-0.686-0.272-0.686-0.883c0,0,0-6.26,0-6.542c0.283,0,6.574,0,6.574,0c0.516,0,0.66,0.072,0.778,0.729l0.023,0.121
	h0.686v-5.004h-0.683l-0.024,0.118c-0.146,0.708-0.25,0.731-0.779,0.731c0,0-6.292,0-6.574,0c0-0.265,0-3.546,0-3.811
	c0.285,0,10.397,0,10.397,0c0.504,0,0.658,0.095,0.778,0.763l0.023,0.121h0.686v-5.355h-0.148H16.671z"/>
<path fill="#004B94" d="M185.341,260.629v0.726l0.117,0.026c0.55,0.121,0.648,0.253,0.648,0.881v15.612
	c0,0.61-0.086,0.726-0.657,0.883l-0.108,0.03v0.72h5.52v-0.72l-0.111-0.03c-0.605-0.16-0.654-0.278-0.654-0.883v-15.612
	c0-0.628,0.098-0.76,0.648-0.881l0.117-0.026v-0.726h-0.148H185.341z"/>
<path fill="#004B94" d="M248.165,261.378l0.108-0.029v-0.72h-0.147h-4.958v0.723l0.111,0.026c0.634,0.162,0.685,0.282,0.685,0.884
	c0,0,0,9.51,0,10.233c-0.487-0.553-8.821-9.976-8.821-9.976c-0.294-0.329-0.409-0.539-0.409-0.752c0-0.188,0.159-0.334,0.423-0.386
	l0.118-0.023v-0.729h-6.286v0.726l0.117,0.026c0.566,0.124,0.682,0.274,0.682,0.881v15.612c0,0.59-0.104,0.723-0.688,0.883
	l-0.11,0.03v0.72h5.076v-0.72l-0.111-0.03c-0.606-0.16-0.655-0.278-0.655-0.883c0,0,0-10.002,0-10.726
	c0.49,0.552,9.269,10.469,9.269,10.469c0.298,0.332,0.408,0.536,0.408,0.752c0,0.19-0.159,0.334-0.422,0.386l-0.12,0.023v0.729
	h5.808v-0.726l-0.115-0.026c-0.553-0.123-0.649-0.253-0.649-0.881v-15.612C247.476,261.675,247.578,261.542,248.165,261.378z"/>
<path fill="#004B94" d="M209.894,260.31c-5.661,0-9.769,4.097-9.769,9.74c0,5.575,4.201,9.778,9.769,9.778
	c5.697,0,9.833-4.111,9.833-9.778C219.726,264.406,215.59,260.31,209.894,260.31z M209.925,276.065
	c-3.627,0-5.969-2.402-5.969-6.119c0-3.682,2.386-6.155,5.938-6.155c3.646,0,6.001,2.416,6.001,6.155
	C215.895,273.605,213.495,276.065,209.925,276.065z"/>
<path fill="#004B94" d="M124.667,277.053c0,0-2.927-4.624-3.382-5.344c2.961-0.959,4.425-2.766,4.425-5.552
	c0-3.515-2.564-5.528-7.029-5.528h-10.516h-0.146v0.72l0.107,0.029c0.587,0.164,0.689,0.294,0.689,0.884v15.612
	c0,0.607-0.114,0.757-0.681,0.881l-0.115,0.026v0.726h5.551v-0.72l-0.11-0.03c-0.596-0.157-0.686-0.272-0.686-0.883
	c0,0,0-5.696,0-5.978c0.275,0,4.37,0,4.373,0v0.001c0,0.128,3.414,5.629,3.414,5.629l0.363,0.793
	c-0.003,0.279-0.317,0.393-0.579,0.435l-0.125,0.017v0.735h6.444V278.9C125.735,278.26,125.179,277.889,124.667,277.053z
	 M117.787,268.912c0,0-4.736,0-5.013,0c0-0.271,0-4.532,0-4.803c0.277,0,4.886,0,4.886,0c3.152,0,4.217,0.588,4.217,2.331
	C121.877,268.221,120.731,268.912,117.787,268.912z"/>
<path fill="#004B94" d="M151.438,277.036l-6.404-14.445c0.003,0.009-0.147-0.576-0.147-0.576c0-0.27,0.098-0.417,0.7-0.64
	l0.098-0.037v-0.709h-0.148h-5.818v0.717l0.104,0.03c0.53,0.163,0.788,0.408,0.788,0.745l-0.146,0.47
	c-0.001,0.003-6.214,14.448-6.214,14.448l-0.089,0.219c-0.297,0.734-0.51,1.265-1.313,1.501l-0.107,0.032v0.717h5.488v-0.709
	l-0.097-0.036c-0.589-0.218-0.7-0.405-0.7-0.676l0.148-0.585l1.147-2.866c0,0,7.523,0.092,7.536,0.092
	c-0.003,0.003-0.006,0.006-0.006,0.011c0,0.196,1.086,2.769,1.086,2.769c0-0.003,0.147,0.579,0.147,0.579
	c0,0.271-0.111,0.458-0.7,0.676l-0.095,0.036v0.709h6.316v-0.72l-0.108-0.03C152.229,278.571,151.906,278.076,151.438,277.036z
	 M139.932,271.922c0.158-0.369,2.365-5.465,2.607-6.024c0.233,0.565,2.339,5.658,2.491,6.024
	C144.639,271.922,140.327,271.922,139.932,271.922z"/>
<path fill="#004B94" d="M175.588,259.745l-0.026,0.115c-0.15,0.74-0.274,0.769-0.778,0.769h-14.018
	c-0.504,0-0.659-0.095-0.778-0.763l-0.023-0.121h-0.686v5.319h0.683l0.023-0.117c0.147-0.677,0.252-0.731,0.781-0.731
	c0,0,4.736,0,5.013,0c0,0.288,0,13.658,0,13.658c0,0.59-0.103,0.723-0.688,0.883l-0.108,0.03v0.72h5.52v-0.72l-0.11-0.03
	c-0.608-0.16-0.655-0.278-0.655-0.883c0,0,0-13.37,0-13.658c0.278,0,5.046,0,5.046,0c0.504,0,0.657,0.095,0.778,0.763l0.023,0.121
	h0.684v-5.355h-0.148H175.588z"/>
<linearGradient id="SVGID_1_" gradientUnits="userSpaceOnUse" x1="90.937" y1="38.9312" x2="181.4757" y2="-5.2275">
	<stop  offset="0" style="stop-color:#004B94"/>
	<stop  offset="1" style="stop-color:#002857"/>
</linearGradient>
<path fill="url(#SVGID_1_)" d="M87.04,39.265c-2.011,1.567-4.068,3.196-6.177,4.901c-5.295,4.282-10.523,8.947-15.528,13.777
	c5.232-1.601,9.663-3.148,11.794-3.913c18.688-7.423,32.582-14.625,50.838-26.328c15.358-9.847,21.001-17.487,21.912-20.447
	c0.225-0.727,0.029-1.076-0.17-1.296c-0.731-0.824-2.342-1.142-4.987-0.636c-3.523,0.675-6.769,1.609-10.561,3.162
	c-8.032,11.796-38.667,27.156-39.03,27.336C92.747,37.01,89.974,38.165,87.04,39.265z"/>
<linearGradient id="SVGID_2_" gradientUnits="userSpaceOnUse" x1="80.0269" y1="15.8774" x2="171.5615" y2="-28.767">
	<stop  offset="0" style="stop-color:#004B94"/>
	<stop  offset="1" style="stop-color:#002857"/>
</linearGradient>
<path fill="url(#SVGID_2_)" d="M87.676,16.133c11.313-5.939,15.678-9.964,16.752-11.629c1.075-1.664,0.317-1.719-0.328-1.769
	c-3.138-0.245-19.192,6.318-25.848,10.055c-4.085,2.297-7.749,4.492-9.869,5.951c-4.699,3.232-7.969,5.864-11.23,8.792
	c-0.132,0.12-0.256,0.236-0.392,0.359c-0.368,0.335-0.723,0.659-1.076,0.98c6.48-2.136,8.777-2.848,13.982-4.761
	C75.937,21.808,81.935,19.146,87.676,16.133z"/>
<linearGradient id="SVGID_3_" gradientUnits="userSpaceOnUse" x1="109.7744" y1="77.5518" x2="200.3128" y2="33.3932">
	<stop  offset="0" style="stop-color:#004B94"/>
	<stop  offset="1" style="stop-color:#002857"/>
</linearGradient>
<path fill="url(#SVGID_3_)" d="M99.439,79.351c-2.337,2.182-7.702,7.296-12.924,12.972c-4.021,4.368-8.66,10.112-11.854,14.177
	c13.652-4.044,38.92-12.806,65.539-28.515c21.163-12.489,30.54-22.035,39.488-32.356c0.225-0.313,2.077-2.428,2.587-3.025
	l1.112-1.275c5.759-6.822,7.257-11.188,6.707-13.088c-0.412-1.411-1.786-1.822-8.49-0.34c-3.077,0.678-8.061,2.537-10.411,3.445
	c-10.619,13.758-34.372,29.973-57.375,41.419C109.061,75.131,104.244,77.329,99.439,79.351z"/>
<linearGradient id="SVGID_4_" gradientUnits="userSpaceOnUse" x1="89.3271" y1="34.4248" x2="181.3884" y2="-10.4765">
	<stop  offset="0" style="stop-color:#004B94"/>
	<stop  offset="1" style="stop-color:#002857"/>
</linearGradient>
<path fill="url(#SVGID_4_)" d="M35.711,63.046c1.699,1.021,6.43,0.443,10.748-0.364c4.085-5.07,8.124-9.728,11.492-13.18
	c0.71-0.727,1.426-1.432,2.14-2.137c-5.958,1.466-9.731,2.157-13.586,3.041c-3.139,0.717-6.153,1.353-9.047,1.967
	c-1.527,2.659-2.808,5.393-3.075,7.556C34.159,61.756,34.893,62.555,35.711,63.046z"/>
<linearGradient id="SVGID_5_" gradientUnits="userSpaceOnUse" x1="132.1055" y1="123.3384" x2="222.644" y2="79.1798">
	<stop  offset="0" style="stop-color:#004B94"/>
	<stop  offset="1" style="stop-color:#002857"/>
</linearGradient>
<path fill="url(#SVGID_5_)" d="M112.913,145.745c1.715-0.721,3.437-1.459,5.159-2.234c27.126-12.192,47.007-23.032,60.781-33.147
	c14.398-10.574,23.747-19.417,23.839-19.505l0.021,0.022c8.349-7.763,11.532-11.548,13.229-13.785
	c1.516-2.005,1.737-3.265,1.466-3.732c-0.299-0.512-1.616-0.926-4.428-0.563c-5.021,0.649-15.605,5.197-20.235,7.266
	c-13.561,13.369-33.408,27.502-55.421,38.828C127.737,127.961,119.579,137.106,112.913,145.745z"/>
<linearGradient id="SVGID_6_" gradientUnits="userSpaceOnUse" x1="151.5229" y1="163.1494" x2="242.0615" y2="118.9908">
	<stop  offset="0" style="stop-color:#004B94"/>
	<stop  offset="1" style="stop-color:#002857"/>
</linearGradient>
<path fill="url(#SVGID_6_)" d="M91.868,190.737c1.604,3.394,12.696,2.054,25.058-1.576c1.273-4.074,4.03-9.478,8.404-16.078
	c-11.59,4.298-22.654,7.528-32.3,9.458C91.68,186.263,91.139,189.199,91.868,190.737z"/>
<linearGradient id="SVGID_7_" gradientUnits="userSpaceOnUse" x1="152.4717" y1="165.0366" x2="243.4411" y2="120.6679">
	<stop  offset="0" style="stop-color:#004B94"/>
	<stop  offset="1" style="stop-color:#002857"/>
</linearGradient>
<path fill="url(#SVGID_7_)" d="M210.591,127.11c-1.115,0.357-2.279,0.766-3.388,1.188c-2.489,0.999-5.261,2.369-8.227,4.059
	c-6.091,4.864-12.982,9.766-20.412,14.482c-2.642,2.208-5.304,4.556-7.954,7.038c-0.81,0.758-1.615,1.534-2.416,2.319
	c-0.226,0.221-0.451,0.447-0.676,0.669c-0.605,0.601-1.208,1.206-1.806,1.817c-0.208,0.21-0.412,0.423-0.618,0.637
	c-0.736,0.76-1.468,1.53-2.191,2.308c-0.034,0.037-0.069,0.072-0.104,0.109c-4.177,4.508-8.049,9.204-11.264,13.707
	c4.794-2.103,15.741-7.09,23.885-12.186c10.685-6.683,20.192-14.362,20.287-14.439l0.02,0.024c2.495-1.972,8.749-7.248,8.749-7.248
	c5.531-4.81,11.69-10.328,12.301-12.915S213.561,126.248,210.591,127.11z"/>
<linearGradient id="SVGID_8_" gradientUnits="userSpaceOnUse" x1="129.938" y1="118.894" x2="220.4765" y2="74.7355">
	<stop  offset="0" style="stop-color:#004B94"/>
	<stop  offset="1" style="stop-color:#002857"/>
</linearGradient>
<path fill="url(#SVGID_8_)" d="M47.632,158.285c0.858,2.137,5.416,2.685,9.731,2.609c4.422-0.326,10.548-1.291,17.749-2.931
	c2.912-5.686,6.735-11.999,11.29-18.61c-13.873,3.994-26.41,6.149-36.336,6.167C48.557,149.101,46.445,155.331,47.632,158.285z"/>
<linearGradient id="SVGID_9_" gradientUnits="userSpaceOnUse" x1="106.7134" y1="71.2759" x2="197.2527" y2="27.1169">
	<stop  offset="0" style="stop-color:#004B94"/>
	<stop  offset="1" style="stop-color:#002857"/>
</linearGradient>
<path fill="url(#SVGID_9_)" d="M65.364,90.721c-12.265,2.938-23.008,4.074-30.567,3.015c-7.204,10.546-7.895,15.54-6.881,16.903
	c1.239,1.67,7.545,3.682,19.399,2.222C51.76,106.544,57.683,99.198,65.364,90.721z"/>
<linearGradient id="SVGID_10_" gradientUnits="userSpaceOnUse" x1="30.0942" y1="132.021" x2="123.1102" y2="91.5553">
	<stop  offset="0" style="stop-color:#9B8500"/>
	<stop  offset="1" style="stop-color:#FFD900"/>
</linearGradient>
<path fill="url(#SVGID_10_)" d="M134.199,120.478c38.842-19.331,71.676-47.784,76.366-66.185c0.256-0.999,0.415-1.956,0.507-2.882
	c-5.062-9.193-11.399-17.294-18.697-24.19c0,0-0.005,0.024-0.017,0.062c0.047,0.085,0.106,0.166,0.138,0.259
	c1.607,4.678-4.563,12.492-8.706,17.156c-9.832,11.502-19.06,21.719-42.317,35.443c-33.761,19.924-65.43,28.785-74.323,31.029
	c0,0.002-6.344,1.605-7.254,1.835c0-0.004,0-0.007,0.003-0.011c-20.495,5.21-31.534,2.445-33.991-0.86
	c-0.513-0.688-0.775-1.54-0.838-2.514c-0.038-0.034-0.063-0.057-0.063-0.057l0.129,2.38c1.248,9.912,4.011,19.807,8.427,29.357
	c0.216,0.473,0.458,0.925,0.683,1.385c0.772,0.387,1.599,0.74,2.498,1.047C54.465,149.778,94.542,140.218,134.199,120.478z"/>
<linearGradient id="SVGID_11_" gradientUnits="userSpaceOnUse" x1="-0.1416" y1="62.5234" x2="92.8749" y2="22.0575">
	<stop  offset="0" style="stop-color:#9B8500"/>
	<stop  offset="1" style="stop-color:#FFD900"/>
</linearGradient>
<path fill="url(#SVGID_11_)" d="M64.335,46.283c8.559-2.257,22.162-6.167,30.796-10.46c0.426-0.211,42.795-21.448,40.891-33.155
	c-0.109-0.665-0.357-1.388-0.844-2.084c-9.208-1.051-19.806-0.652-29.244,0.957c0.118,0.009,0.248,0.01,0.354,0.024
	c0.195,0.025,1.101,0.176,1.391,0.725c0.199,0.373,0.124,0.892,0.078,1.031c-0.656,4.92-12.503,11.823-18.178,14.801
	c-6.9,3.622-13.183,6.453-23.692,10.141c-8.694,3.051-19.463,6.033-29.408,9.312c-7.095,2.34-11.892,3.916-15.672,5.715
	c-5.946,2.828-10.685,7.974-15.764,18.1C3.98,63.511,1.213,69.363,0,71.937c1.734-2.041,7.647-8.654,14.5-12.469
	c8.17-4.552,19.091-6.108,32.006-9.063C51.205,49.329,55.773,48.54,64.335,46.283z"/>
<linearGradient id="SVGID_12_" gradientUnits="userSpaceOnUse" x1="12.1875" y1="90.8628" x2="105.2035" y2="50.3971">
	<stop  offset="0" style="stop-color:#9B8500"/>
	<stop  offset="1" style="stop-color:#FFD900"/>
</linearGradient>
<path fill="url(#SVGID_12_)" d="M30.059,92.639c14.658,5.139,50.666-3.405,83.758-19.875c29.976-14.916,61.253-37.932,63.036-53.057
	c0.202-1.734,0.055-3.109-0.484-4.586c-7.283-4.499-14.882-8.026-23.038-10.528c0,0-1.749-0.61-2.138-0.674
	c0.003,0.008,0.003,0.015,0.007,0.022c0.472,0.136,0.813,0.319,1.004,0.54c0.867,1,0.498,2.111,0.066,3.513
	c-0.452,1.477-3.702,9.471-22.955,21.817c-17.974,11.523-31.862,18.774-50.061,26.082c-0.784,0.299-1.683,0.691-2.556,0.946
	c-4.552,1.602-14.214,4.854-23.15,6.895c-11.884,2.708-17.455,2.953-19.866,0.875c-0.66-0.566-1.519-1.625-1.282-3.387
	c0.095-0.706,0.36-1.655,0.902-2.966c-0.239,0.413-0.461,0.827-0.602,1.166c-0.461,1.106-1.225,3.617-1.291,3.503
	c-3.315,8.297-5.421,16.674-6.424,25.602c-0.032,0.275,0.464,1.421,0.775,1.697C26.878,91.212,28.31,92.022,30.059,92.639z"/>
<linearGradient id="SVGID_13_" gradientUnits="userSpaceOnUse" x1="65.7661" y1="214.0195" x2="158.782" y2="173.5538">
	<stop  offset="0" style="stop-color:#9B8500"/>
	<stop  offset="1" style="stop-color:#FFD900"/>
</linearGradient>
<path fill="url(#SVGID_13_)" d="M206.123,143.484c0,0-15.617,12.513-15.695,12.569l-0.02-0.028
	c-3.702,2.731-8.487,6.234-13.658,9.353c-13.696,8.264-32.067,15.931-43.213,20.534c-8.85,3.65-27.141,10.276-37.198,9.237
	c22.21,6.423,46.736,5.213,69.374-5.248c26.657-12.321,45.123-34.705,53.175-60.709c0.124-0.537,0.202-0.943,0.256-1.289
	c-0.035,0.18-0.049,0.346-0.106,0.539C217.488,133.558,212.916,137.574,206.123,143.484z"/>
<linearGradient id="SVGID_14_" gradientUnits="userSpaceOnUse" x1="49.3818" y1="176.3652" x2="142.4793" y2="135.864">
	<stop  offset="0" style="stop-color:#9B8500"/>
	<stop  offset="1" style="stop-color:#FFD900"/>
</linearGradient>
<path fill="url(#SVGID_14_)" d="M221.777,81.239c0,0-0.87-4.619-0.988-5.374c-0.32-2.051-0.951-3.099-1.564-3.63
	c0.125,0.126,0.251,0.248,0.34,0.4c0.651,1.118,0.901,2.629-1.628,5.971c-2.002,2.639-5.989,7.346-17.475,17.731l-0.049-0.051
	c-4.094,3.596-11.114,9.513-20.08,16.096c-13.917,10.22-33.945,21.148-61.235,33.412c-19.67,8.837-41.11,14.804-55.356,16.887
	l0.003,0.012c-2.558,0.415-5.462,0.564-5.462,0.564c-4.817,0.242-11.22-0.176-12.894-3.877c0.402,1.095,1.146,2.518,2.073,3.65
	c1.446,1.763,6.032,8.424,24.603,21.485c17.587,1.171,50.688-8.279,82.303-24.015c32.545-16.197,61.103-38.905,68.91-54.207
	C223.869,97.722,223.48,89.881,221.777,81.239z"/>
<path fill="#FFFFFF" d="M193.562,123.14c2.38-7.479,3.14-14.491,3.14-14.491s-3.333,3.879-7.715,7.874
	c-4.194-5.158-7.404-7.136-7.404-7.136s1.104,4.859,1.4,12.003c-5.076,3.481-9.881,4.59-9.881,4.59s4.35,1.108,9.895,2.664
	c-0.281,8.778-1.413,16.512-1.413,16.512s5.773-8.454,8.856-14.335c4.678,1.461,7.369,2.535,7.369,2.535
	S196.446,128.287,193.562,123.14z"/>
<path fill="#FFFFFF" d="M122.817,43.214c4.094-8.887,6.623-13.536,6.623-13.536s-4.376,2.903-12.971,7.979
	c-6.561-5.312-17.151-12.694-17.151-12.694s3.1,9.375,4.986,19.488c-6.925,3.552-14.165,6.876-14.165,6.876s4.9,0.464,15.55,1.896
	c1.571,11.033,2.76,22.16,2.76,22.16s4.939-10.88,9.188-20.535c8.769,1.154,10.746,1.338,19.227,3.635
	C136.864,58.482,131.386,51.235,122.817,43.214z"/>
<path fill="#FFFFFF" d="M167.243,75.74c2.656,10.748,4.716,21.926,4.716,21.926s4.935-7.427,8.556-20.978
	c7.261,0.808,14.472,1.848,14.472,1.848s-5.245-9.297-11.56-15.611c-0.035-0.036-0.075-0.072-0.112-0.108
	c1.354-8.347,1.933-13.255,1.656-19.505c-1.429,1.684-5.177,6.299-11.327,12.493c-7.917-4.684-16.545-8.284-16.545-8.284
	s3.792,7.431,6.984,17.042c-6.941,5.669-13.844,10.162-13.844,10.162S160.05,75.642,167.243,75.74z"/>
<path fill="#FFFFFF" d="M178.805,170.122c4.142-7.24,6.731-13.578,6.731-13.578s-6.171,4.374-11.711,7.77
	c-4.675-5.387-7.36-8.218-7.36-8.218s-1.085,5.686-2.227,13.323c-7.372,3.627-12.043,5.782-12.043,5.782
	c3.275,1.509,7.264,2.607,10.782,3.221c-0.511,3.889-0.942,7.741-1.386,13.502c0,0,4.379-3.028,11.411-12.785
	c5.877,0.069,8.334-0.441,13.376-1.409C183.223,174.993,181.244,172.939,178.805,170.122z"/>
<path fill="#FFFFFF" d="M93.011,106.626c-4.831,2.071-12.033,4.552-19.836,7.253c-4.891-7.246-7.281-10.886-9.904-15.475
	c0,0-1.946,7.271-2.488,19.006c-5.936,1.183-12.18,1.873-16.354,2.01c4.672,4.048,7.588,6.553,16.337,10.904
	c0.308,7.532,1.149,13.536,2.256,19.159c4.059-4.872,7.54-8.561,10.999-13.246c9.495,3.494,20.249,5.729,20.249,5.729
	c-6.032-7.019-8.995-10.593-13.274-16.644C84.268,119.952,88.244,113.815,93.011,106.626z"/>
</svg>
