<?xml version="1.0" encoding="utf-8"?>
<!-- Generator: Adobe Illustrator 13.0.0, SVG Export Plug-In . SVG Version: 6.00 Build 14948)  -->
<!DOCTYPE svg PUBLIC "-//W3C//DTD SVG 1.0//EN" "http://www.w3.org/TR/2001/REC-SVG-20010904/DTD/svg10.dtd">
<svg version="1.0" id="Ebene_1" xmlns="http://www.w3.org/2000/svg" xmlns:xlink="http://www.w3.org/1999/xlink" x="0px" y="0px"
	 width="283.465px" height="283.464px" viewBox="0 0 283.465 283.464" enable-background="new 0 0 283.465 283.464"
	 xml:space="preserve">
<path fill-rule="evenodd" clip-rule="evenodd" fill="#0071B1" d="M141.732,0c78.264,0,141.732,63.468,141.732,141.732
	c0,78.263-63.469,141.732-141.732,141.732S0,219.995,0,141.732C0,63.468,63.469,0,141.732,0L141.732,0z M139.301,278.57v-32.912
	c-25.457-0.662-48.338-11.676-64.601-28.983l-25.768,25.629C72.772,264.313,104.448,277.962,139.301,278.57L139.301,278.57z
	 M139.301,240.787V54.119c-24.952,0.685-47.279,11.865-62.738,29.284v128.086C92.021,228.912,114.349,240.101,139.301,240.787
	L139.301,240.787z M139.301,49.249V4.892C101.533,5.55,67.494,21.516,43.117,46.849l31.568,31.39
	C90.95,60.926,113.836,49.911,139.301,49.249L139.301,49.249z M144.17,4.893v44.354h1.161v0.039
	c24.918,0.96,47.292,11.831,63.299,28.787l31.563-31.384C215.825,21.451,181.855,5.552,144.17,4.893L144.17,4.893z M144.17,54.06
	v186.727c24.778-0.681,46.972-11.719,62.417-28.935V83.046c-15.271-17.017-37.135-27.993-61.574-28.899V54.06H144.17L144.17,54.06z
	 M144.17,245.659v32.911c34.771-0.608,66.379-14.193,90.199-36.114l-25.755-25.616C192.362,234.051,169.546,244.999,144.17,245.659
	L144.17,245.659z M211.456,139.299h67.115c-0.597-34.21-13.756-65.362-35.057-89.045L211.456,82.13V139.299L211.456,139.299z
	 M278.571,144.169h-67.115v68.629l26.439,26.298C262.479,214.812,277.923,181.291,278.571,144.169L278.571,144.169z M4.894,139.299
	h66.798V82.13l-31.89-31.71C18.59,74.083,5.489,105.168,4.894,139.299L4.894,139.299z M71.692,144.169H4.894
	c0.648,37.042,16.023,70.499,40.516,94.771l26.283-26.142V144.169L71.692,144.169z"/>
<path fill-rule="evenodd" clip-rule="evenodd" fill="#DE3824" d="M101.549,100.911v43.737h20.412c2.018,0,3.136,0.193,3.822-2.35
	l2.42-8.98c0.673-2.499,3.671-2.04,3.671,0.254v32.563c0,2.548-3.062,2.516-3.671,0.255l-2.42-8.981
	c-0.685-2.543-1.804-2.35-3.822-2.35l-20.412-0.029v46.463c0.112,1.287,1.059,2.524,2.64,3.239c1.938,0.876,3.71,1.521,5.564,2.452
	c1.813,0.912,2.423,4.939-1.639,4.939H83.853c-4.062,0-3.452-4.027-1.639-4.939c1.855-0.932,3.627-1.576,5.564-2.452
	c1.38-0.624,2.777-1.621,2.65-3.495V100.468c0-3.042-5.695-3.352-8.087-4.557c-1.816-0.915-1.667-4.558,1.005-4.558h44.484h3.538
	h5.56v22.153c0,2.565-3.626,2.662-4.172,0.632c-0.683-2.537-2.085-7.729-3.268-10.599c-0.808-1.961-1.355-2.524-2.172-2.628H101.549
	L101.549,100.911z"/>
<path fill-rule="evenodd" clip-rule="evenodd" fill="#FBE432" d="M138.707,61.534l17.681,0.002
	c28.033,0.002,29.859,25.412,30.104,42.729l0.129,9.219l0.005,0.53h-11.784l-0.004-0.377l-0.129-9.206
	c-0.066-4.716-0.24-5.199-0.995-9.86c-1.753-10.838-5.461-16.944-17.325-16.946l-17.682-0.002c-5.132,0-9.615,1.28-13.154,5.132
	c-6.849,7.454-7.341,17.557-7.341,27.193v62.9c0,11.277-0.554,34.284,11.516,40.696c2.726,1.448,5.934,1.874,8.983,1.875
	l16.389,0.004c5.479,0.001,10.958-1.075,14.647-5.434c5.532-6.534,6.35-14.258,6.35-22.428v-13.908l-0.012-0.147h12.05v14.056
	c0,21.521-5.252,44.208-32.785,44.202l-16.389-0.003c-21.345-0.005-33.544-15.589-33.544-58.913v-62.9
	C105.416,90.79,110.389,61.531,138.707,61.534L138.707,61.534z"/>
<path fill-rule="evenodd" clip-rule="evenodd" fill="#5D9C5A" d="M166.722,100.911v43.737h20.411c2.018,0,3.136,0.193,3.821-2.35
	l2.422-8.98c0.672-2.499,3.67-2.04,3.67,0.254v32.563c0,2.548-3.061,2.516-3.67,0.255l-2.422-8.981
	c-0.684-2.543-1.804-2.35-3.821-2.35l-20.411-0.029v46.463c0.111,1.287,1.058,2.524,2.639,3.239
	c6.774,3.057,2.818,8.151,1.152,7.392h-21.487c-4.063,0-3.452-4.027-1.64-4.939c1.855-0.932,3.627-1.576,5.564-2.452
	c1.381-0.624,2.777-1.621,2.65-3.495V100.468c0-3.042-5.695-3.352-8.088-4.557c-1.815-0.915-1.666-4.558,1.006-4.558h44.484h3.537
	h5.561v22.153c0,2.565-3.626,2.662-4.172,0.632c-0.682-2.537-2.084-7.729-3.268-10.599c-0.807-1.961-1.355-2.524-2.172-2.628
	H166.722L166.722,100.911z"/>
<path fill-rule="evenodd" clip-rule="evenodd" fill="#65A23E" d="M218.935,88.126c-0.227,1.438,0.234,3.125,0.182,4.145
	c-0.137,2.613-0.459,4.336-0.266,7.161c0.211,3.091,2.207,1.638,3.629,3.669c0.889,1.268,0.449,2.732,1.641,4.506
	c0.715,1.064,2.328,2.304,3.725,2.356c3.479,0.128,4.766-1.535,5.156-2.917c1.08-3.815-1.52-3.018-1.659-4.788
	c-0.171-2.164,3.148-1.558,2.61-4.891c-0.29-1.789-1.903-1.309-2.008-2.191c-0.148-1.263,2.365-0.88,2.288-4.399
	c-0.079-3.664-3.169-2.226-2.969-3.332c0.442-2.441,2.886-1.876,2.582-4.192c-0.267-2.035-1.138-2.859-3.431-2.134
	c-2.021,0.641-3.508,2.506-5.379,3.404c-1.215,0.581-2.228,0.025-3.339,0.254C220.44,85.037,219.146,86.783,218.935,88.126
	L218.935,88.126z"/>
<path fill-rule="evenodd" clip-rule="evenodd" fill="#65A23E" d="M219.692,141.737c-1.094,1.216-2.521,5.625-2.363,7.478
	c0.125,1.442,1.634,1.055,1.602,2.428c-0.061,2.443-2.328,4.378-1.133,6.299c1.314,2.116,2.678,0.436,4.598,1.435
	c1.057,0.552,1.215,2.086,1.987,3.152c0.466,0.642,1.48,1.115,2.133,1.109c3.337-0.03,3.111-4.884,5.392-4.979
	c1.895-0.08,2.627,1.322,4.637,1.732c1.104,0.225,2.58-0.802,3.883-0.872c2.172-0.115,4.092,0.394,4.664-1.071
	c2.589-6.642-2.59-4.199-2.895-7.108c-0.577-5.525,5.323-2.014,1.883-9.35c-0.481-1.028-1.533-1.354-2.642-2.119
	c-0.81-0.56-0.526-1.11-1.634-2.151c-0.652-0.61-1.594-1.054-2.42-1.048c-5.029,0.037-3.755,2.93-6.039,3.3
	c-3.316,0.539-4.137-2.481-7.835-1.877C221.604,138.407,220.886,140.411,219.692,141.737L219.692,141.737z"/>
<path fill-rule="evenodd" clip-rule="evenodd" fill="#5E9F3A" d="M67.181,47.931c-1.653-0.166-3.813,1.126-3.792,4.179
	c0.033,4.896-1.125,9.279,0.757,13.799c0.638,1.53,3.172,3.119,4.804,3.418c2.649,0.484,7.132,0.571,9.602-0.507
	c2.669-1.166,4.597-3.733,7.353-5.102c3.123-1.551,6.704-1.918,7.811-5.025c1.335-3.745-1.313-4.552-2.99-7.188
	c-1.146-1.802-0.532-5.133-2.318-5.599c-1.706-0.445-4.261,0.246-7.153,0.817c-1.976,0.392-4.446,0.219-5.981,0.498
	C70.571,48.077,70.343,48.248,67.181,47.931L67.181,47.931z"/>
<path fill-rule="evenodd" clip-rule="evenodd" fill="#5E9F3A" d="M103.689,67.555c-0.793-0.382-1.962,1.229-3.148,1.926
	c-1.187,0.696-2.402,0.873-3.288,1.93c-0.805,0.962-0.452,1.957-1.146,2.347c-1.335,0.75-2.973,0.723-4.641,0.647
	c-1.781-0.081-3.26,1.44-4.204,2.897c-0.688,1.061,0.55,2.093,1.974,3.143c0.854,0.631,1.696,1.596,2.45,1.667
	c2.621,0.252,5.152-0.229,8.005-0.311c2.426-0.069,4.553-0.216,5.896-1.625c0.436-0.458,1.036-0.407,1.514-0.975
	c1.359-1.612-0.544-2.932-1.746-5.365C104.296,71.688,106.129,68.732,103.689,67.555L103.689,67.555z"/>
<path fill-rule="evenodd" clip-rule="evenodd" fill="#5E9F3A" d="M171.804,234.149c-1.377,0.138-3.352-0.207-4.631-0.816
	c-1.453-0.692-2.199-1.72-3.457-2.729c-3.02-2.421-5.863-0.679-7.833-7.343c-0.707-2.392-1.546-4.746-1.833-7.531
	c-0.326-3.16,0.858-6.907,1.527-9.81c0.178-0.776,1.131-1.167,1.315-1.901c0.55-2.165,1.878-10.417,5.409-14.354
	c1.496-1.666,3.449-1.203,5.382-0.092c1.501,0.864,2.689,2.079,2.854,3.307c0.433,3.21-0.353,7.422,0.334,10.771
	c0.535,2.604,3.233,4.282,3.999,6.495c1.364,3.937,3.913,5.323,4.763,9.947c0.431,2.345-0.127,4.714,0.102,7.09
	c0.084,0.884,0.836,1.773,0.912,2.661c0.125,1.431-1.531,1.485-3.01,2.116C175.737,232.77,173.718,233.957,171.804,234.149
	L171.804,234.149z"/>
<path fill-rule="evenodd" clip-rule="evenodd" fill="#5E9F3A" d="M114.563,217.186c-3.016-1.682-3.058,0.717-5.615,1.722
	c-1.337,0.524-2.938,0.041-4.099,1.025c-1.704,1.444-3.738,3.169-4.817,4.341c-0.907,0.986-0.614,2.233-1.085,3.572
	c-0.689,1.959-1.377,3.882-0.937,5.797c0.382,1.659,1.982,2.886,2.81,4.332c0.827,1.444,0.257,2.867,1.612,3.896
	c1.99,1.514,6.824,1.843,9.225,1.14c3.262-0.955,7.393-2.428,7.583-5.822c0.108-1.955-2.474-4.077-2.555-6.206
	c-0.172-4.53,1.312-4.35,1.765-6.412C119.03,221.921,118.325,219.284,114.563,217.186L114.563,217.186z"/>
<path fill-rule="evenodd" clip-rule="evenodd" fill="#5E9F3A" d="M75.776,226.809c-1.479,0-3.572-0.367-5.224-0.453
	c-1.875-0.099-3.263,0.162-3.874,1.719c-0.521,1.329,0.848,2.799,1.977,4.308c1.452,1.94,0.476,4.301,4.719,4.048
	c1.201-0.071,1.886-1.315,2.821-2.417c0.728-0.855,1.685-1.387,1.997-2.355c0.429-1.33-0.358-2.137,0.111-3.329
	C78.661,227.416,76.757,226.809,75.776,226.809L75.776,226.809z"/>
<path fill-rule="evenodd" clip-rule="evenodd" fill="#5E9F3A" d="M149.312,94.644c-1.089,0.182-1.584,1.34-2.565,2.092
	c-0.981,0.753-2.208,1.239-2.235,2.341c-0.145,5.6,2.197,8.671,4.523,11.925c0.91,1.272,0.727,2.837,2.172,3.138
	c1.945,0.404,2.687-2.481,4.318-2.602c4.907-0.362,8.63-2.322,13.625-1.955c1.993,0.146,3.07-3.068,1.39-4.304
	c-3.897-2.866-4.329-4.752-6.536-6.308c-1.717-1.209-3.896-1.111-6.1-2.301C155.315,95.273,152.213,94.162,149.312,94.644
	L149.312,94.644z"/>
</svg>
